<?xml version="1.0" standalone="no"?>
<!DOCTYPE svg PUBLIC "-//W3C//DTD SVG 20010904//EN"
 "http://www.w3.org/TR/2001/REC-SVG-20010904/DTD/svg10.dtd">
<svg version="1.0" xmlns="http://www.w3.org/2000/svg"
 width="1280.000000pt" height="622.000000pt" viewBox="0 0 1280.000000 622.000000"
 preserveAspectRatio="xMidYMid meet">

<g transform="translate(0.000000,622.000000) scale(0.100000,-0.100000)"
fill="#000000" stroke="none">
<path d="M0 3200 l0 -3020 750 0 750 0 0 2460 c0 2180 -2 2460 -15 2460 -13 0
-15 28 -15 195 0 151 3 194 13 192 9 -1 13 78 15 366 l2 367 -750 0 -750 0 0
-3020z m284 2865 c10 -26 -4 -43 -41 -50 -49 -9 -83 -45 -83 -90 0 -28 -5 -38
-22 -44 -33 -13 -51 13 -44 63 5 46 30 82 76 114 39 26 105 30 114 7z m398
-137 c22 -63 24 -77 12 -82 -8 -3 -20 3 -26 14 -15 24 -66 27 -74 5 -5 -13
-44 -23 -44 -11 0 6 51 139 57 149 3 4 15 7 26 5 17 -2 28 -19 49 -80z m76 -1
c3 -72 1 -77 -18 -77 -18 0 -20 6 -20 81 0 71 2 80 18 77 14 -3 17 -16 20 -81z
m60 0 c3 -72 1 -77 -18 -77 -18 0 -20 6 -20 81 0 71 2 80 18 77 14 -3 17 -16
20 -81z m58 25 c1 -6 2 -28 3 -48 2 -51 25 -39 31 17 4 32 10 45 23 47 16 3
18 -3 15 -60 l-3 -63 -45 4 c-25 1 -48 5 -52 8 -5 2 -8 29 -8 59 0 47 3 55 18
52 9 -2 18 -9 18 -16z m174 8 c0 -5 -9 -14 -20 -20 -15 -8 -20 -21 -20 -50 0
-33 -3 -40 -20 -40 -18 0 -20 7 -20 60 l0 60 40 0 c22 0 40 -4 40 -10z m92 -7
c10 -9 18 -24 18 -35 0 -14 -8 -18 -40 -18 -31 0 -38 -3 -33 -16 4 -11 13 -13
35 -8 23 5 29 3 26 -7 -6 -18 -65 -24 -84 -8 -19 16 -18 68 3 91 20 22 51 23
75 1z m-727 -170 c-6 -25 -42 -32 -62 -12 -8 8 -17 8 -31 0 -34 -18 -100 -14
-111 8 -13 24 14 51 51 51 29 0 78 35 78 55 0 11 8 13 30 9 23 -5 31 -2 37 12
10 23 17 -89 8 -123z m-226 64 c22 -18 25 -25 15 -34 -6 -7 -15 -9 -18 -5 -4
3 -4 -1 0 -11 8 -21 -5 -22 -34 -1 -30 21 -30 74 1 74 5 0 21 -10 36 -23z m93
-475 c7 19 28 -1 28 -27 0 -13 6 -26 13 -29 10 -5 10 -7 0 -12 -7 -3 -13 -19
-13 -35 0 -24 -4 -29 -25 -29 -18 0 -25 5 -25 20 0 11 -4 20 -10 20 -9 0 -14
-14 -11 -32 0 -5 -12 -8 -29 -8 -25 0 -30 4 -30 23 0 13 -5 28 -12 35 -6 6
-10 13 -7 15 2 1 21 17 42 35 30 26 42 30 57 22 13 -7 20 -6 22 2z m261 -44
c15 -7 27 -20 27 -28 1 -13 2 -13 13 1 14 19 78 20 85 2 2 -8 -5 -13 -17 -13
-12 0 -21 -4 -21 -10 0 -5 10 -10 22 -10 16 0 19 -3 11 -11 -17 -17 -53 -1
-54 24 l0 22 -11 -22 c-14 -29 -26 -29 -37 -1 l-8 23 -7 -22 c-13 -42 -71 -40
-82 3 -12 46 26 66 79 42z m246 -35 c0 -35 -3 -42 -8 -28 -5 11 -7 23 -4 28 2
4 0 7 -4 7 -5 0 -14 -12 -20 -27 l-11 -28 -13 33 c-16 38 -32 37 -40 -4 -6
-27 -7 -27 -8 9 -1 33 2 37 22 37 15 0 28 -9 35 -22 l11 -23 0 23 c1 13 7 22
16 22 8 0 15 5 15 10 0 6 2 10 5 10 3 0 5 -21 4 -47z m92 8 c1 -13 2 -13 6 2
2 9 8 17 13 17 5 0 14 -8 19 -17 10 -17 10 -17 11 0 0 9 4 17 9 17 6 0 6 -12
1 -31 -12 -40 -18 -46 -26 -25 -6 15 -7 15 -20 -1 -13 -17 -14 -17 -20 5 -4
15 -14 22 -30 22 -13 0 -24 -4 -24 -10 0 -5 10 -10 23 -10 19 -1 20 -2 5 -10
-23 -14 -48 -2 -48 24 0 31 7 36 46 34 23 -1 34 -6 35 -17z m-691 -311 c0 -5
-4 -10 -10 -10 -5 0 -10 5 -10 10 0 6 5 10 10 10 6 0 10 -4 10 -10z m148 -55
l-3 -40 -67 0 -66 0 -4 33 c-2 17 0 36 6 42 5 5 38 9 73 7 l64 -2 -3 -40z
m143 -17 c-3 -21 -6 -26 -9 -15 -3 17 3 47 11 47 2 0 1 -15 -2 -32z m406 -35
c-3 -10 -5 -2 -5 17 0 19 2 27 5 18 2 -10 2 -26 0 -35z m-170 15 c-3 -8 -6 -5
-6 6 -1 11 2 17 5 13 3 -3 4 -12 1 -19z m110 -10 c-3 -7 -5 -2 -5 12 0 14 2
19 5 13 2 -7 2 -19 0 -25z m133 22 c0 -5 -8 -10 -17 -10 -15 0 -16 2 -3 10 19
12 20 12 20 0z m-363 -32 c-3 -7 -5 -2 -5 12 0 14 2 19 5 13 2 -7 2 -19 0 -25z
m100 26 c-3 -3 -12 -4 -19 -1 -8 3 -5 6 6 6 11 1 17 -2 13 -5z m-16 -32 c-7
-2 -18 1 -23 6 -8 8 -4 9 13 5 13 -4 18 -8 10 -11z m-168 1 c-7 -2 -19 -2 -25
0 -7 3 -2 5 12 5 14 0 19 -2 13 -5z m-230 -250 c3 -5 -10 -8 -28 -8 -18 0 -31
3 -28 8 2 4 15 7 28 7 13 0 26 -3 28 -7z m57 -48 c0 -25 -1 -25 -90 -25 -89 0
-90 0 -90 25 0 25 1 25 90 25 89 0 90 0 90 -25z m277 -72 c-3 -10 -5 -4 -5 12
0 17 2 24 5 18 2 -7 2 -21 0 -30z m60 5 c-3 -7 -5 -2 -5 12 0 14 2 19 5 13 2
-7 2 -19 0 -25z m-452 12 c3 -5 17 -10 31 -10 13 0 24 5 24 10 0 6 14 10 30
10 27 0 30 -3 30 -30 l0 -31 -87 3 c-88 3 -88 3 -91 31 -3 24 0 27 27 27 16 0
33 -4 36 -10z m550 -11 c11 -16 1 -19 -13 -3 -7 8 -8 14 -3 14 5 0 13 -5 16
-11z m-502 -432 l102 -3 -107 -2 -108 -2 2 78 2 77 3 -72 4 -72 102 -4z m67
78 c0 -30 -4 -55 -10 -55 -5 0 -10 25 -10 55 0 30 5 55 10 55 6 0 10 -25 10
-55z m-80 -5 c0 -27 -4 -50 -10 -50 -5 0 -10 23 -10 50 0 28 5 50 10 50 6 0
10 -22 10 -50z m40 -15 c0 -19 -4 -35 -10 -35 -5 0 -10 16 -10 35 0 19 5 35
10 35 6 0 10 -16 10 -35z m437 -17 c-2 -13 -4 -5 -4 17 -1 22 1 32 4 23 2 -10
2 -28 0 -40z m-260 10 c-3 -7 -5 -2 -5 12 0 14 2 19 5 13 2 -7 2 -19 0 -25z
m97 17 c-4 -8 -8 -15 -10 -15 -2 0 -4 7 -4 15 0 8 4 15 10 15 5 0 7 -7 4 -15z
m98 -25 c-2 -22 -6 -40 -8 -40 -2 0 -4 18 -4 40 0 22 3 40 8 40 4 0 6 -18 4
-40z m-452 5 c0 -14 -4 -25 -10 -25 -5 0 -10 11 -10 25 0 14 5 25 10 25 6 0
10 -11 10 -25z m430 -15 c0 -5 -5 -10 -11 -10 -5 0 -7 5 -4 10 3 6 8 10 11 10
2 0 4 -4 4 -10z m-358 -300 c24 -25 29 -36 23 -58 -11 -43 -34 -62 -76 -62
-60 0 -101 69 -66 112 35 45 79 48 119 8z m435 -72 c-2 -13 -4 -5 -4 17 -1 22
1 32 4 23 2 -10 2 -28 0 -40z m-230 -5 c-3 -10 -5 -4 -5 12 0 17 2 24 5 18 2
-7 2 -21 0 -30z m70 -10 c-3 -10 -5 -2 -5 17 0 19 2 27 5 18 2 -10 2 -26 0
-35z m190 10 c-3 -10 -5 -4 -5 12 0 17 2 24 5 18 2 -7 2 -21 0 -30z m90 -5
c-3 -7 -5 -2 -5 12 0 14 2 19 5 13 2 -7 2 -19 0 -25z m43 22 c0 -5 -5 -10 -11
-10 -5 0 -7 5 -4 10 3 6 8 10 11 10 2 0 4 -4 4 -10z m-710 -310 c0 -5 -4 -10
-10 -10 -5 0 -10 5 -10 10 0 6 5 10 10 10 6 0 10 -4 10 -10z m160 0 c0 -6 -30
-10 -70 -10 -40 0 -70 4 -70 10 0 6 30 10 70 10 40 0 70 -4 70 -10z m-160 -40
c0 -5 -4 -10 -10 -10 -5 0 -10 5 -10 10 0 6 5 10 10 10 6 0 10 -4 10 -10z
m160 0 c0 -6 -30 -10 -70 -10 -40 0 -70 4 -70 10 0 6 30 10 70 10 40 0 70 -4
70 -10z m158 3 c-11 -3 -18 -17 -21 -41 l-4 -37 -1 43 c-2 38 0 42 21 41 16
-1 17 -3 5 -6z m119 -50 c-3 -10 -5 -2 -5 17 0 19 2 27 5 18 2 -10 2 -26 0
-35z m103 27 c0 -5 -7 -7 -15 -4 -8 4 -15 8 -15 10 0 2 7 4 15 4 8 0 15 -4 15
-10z m87 -12 c-3 -8 -6 -5 -6 6 -1 11 2 17 5 13 3 -3 4 -12 1 -19z m90 -25
c-3 -10 -5 -2 -5 17 0 19 2 27 5 18 2 -10 2 -26 0 -35z m-717 17 c0 -5 -4 -10
-10 -10 -5 0 -10 5 -10 10 0 6 5 10 10 10 6 0 10 -4 10 -10z m160 0 c0 -6 -30
-10 -70 -10 -40 0 -70 4 -70 10 0 6 30 10 70 10 40 0 70 -4 70 -10z m182 -22
c-8 -8 -9 -4 -5 13 4 13 8 18 11 10 2 -7 -1 -18 -6 -23z m135 10 c-3 -8 -6 -5
-6 6 -1 11 2 17 5 13 3 -3 4 -12 1 -19z m60 6 c-3 -3 -12 -4 -19 -1 -8 3 -5 6
6 6 11 1 17 -2 13 -5z m117 -10 c3 -8 2 -12 -4 -9 -6 3 -10 10 -10 16 0 14 7
11 14 -7z m134 -9 c-3 -3 -9 2 -12 12 -6 14 -5 15 5 6 7 -7 10 -15 7 -18z
m-788 -15 c0 -5 -4 -10 -10 -10 -5 0 -10 5 -10 10 0 6 5 10 10 10 6 0 10 -4
10 -10z m160 0 c0 -6 -30 -10 -70 -10 -40 0 -70 4 -70 10 0 6 30 10 70 10 40
0 70 -4 70 -10z m-50 -260 c0 -6 -28 -10 -65 -10 -37 0 -65 4 -65 10 0 6 28
10 65 10 37 0 65 -4 65 -10z m40 -40 c0 -6 -35 -10 -85 -10 -50 0 -85 4 -85
10 0 6 35 10 85 10 50 0 85 -4 85 -10z m168 -7 c-11 -3 -16 -14 -16 -34 1 -16
-2 -32 -5 -36 -4 -3 -7 12 -7 35 0 37 3 42 23 41 15 -1 17 -3 5 -6z m184 -16
c3 -13 1 -32 -3 -43 -5 -13 -8 -7 -8 24 -1 46 4 55 11 19z m-382 -17 c0 -6
-30 -10 -70 -10 -40 0 -70 4 -70 10 0 6 30 10 70 10 40 0 70 -4 70 -10z m480
-20 c0 -11 -4 -20 -9 -20 -5 0 -7 9 -4 20 3 11 7 20 9 20 2 0 4 -9 4 -20z m23
0 c3 -11 1 -18 -4 -14 -5 3 -9 12 -9 20 0 20 7 17 13 -6z m37 -11 c0 -11 -4
-18 -10 -14 -5 3 -7 12 -3 20 7 21 13 19 13 -6z m-500 -9 c0 -6 -37 -10 -90
-10 -53 0 -90 4 -90 10 0 6 37 10 90 10 53 0 90 -4 90 -10z m-99 -2464 c-10
-11 -10 -20 -1 -38 l12 -23 -22 21 c-21 21 -21 22 -4 42 10 12 20 19 22 17 3
-3 -1 -11 -7 -19z m477 -32 c2 -21 0 -25 -7 -14 -5 8 -7 18 -4 23 3 5 -1 14
-8 19 -12 8 -11 9 1 5 8 -2 16 -17 18 -33z m-71 -11 c-3 -10 -5 -4 -5 12 0 17
2 24 5 18 2 -7 2 -21 0 -30z m-163 1 c3 -8 2 -12 -4 -9 -6 3 -10 10 -10 16 0
14 7 11 14 -7z"/>
<path d="M620 5951 c0 -5 -3 -16 -6 -25 -4 -11 0 -16 14 -16 15 0 19 5 15 20
-6 22 -23 38 -23 21z"/>
<path d="M1090 5930 c0 -5 7 -10 15 -10 8 0 15 5 15 10 0 6 -7 10 -15 10 -8 0
-15 -4 -15 -10z"/>
<path d="M484 5316 c-9 -24 4 -48 23 -44 12 2 18 12 18 28 0 29 -32 41 -41 16z"/>
<path d="M197 3802 c-36 -40 -11 -95 43 -95 36 0 60 23 60 58 0 48 -70 73
-103 37z m53 -27 c0 -17 -5 -25 -17 -24 -11 0 -13 3 -5 6 6 2 12 13 12 24 0
10 2 19 5 19 3 0 5 -11 5 -25z"/>
<path d="M1810 5883 c-6 -15 -16 -41 -22 -56 -13 -33 -4 -47 12 -18 15 29 56
28 65 -1 3 -13 8 -18 11 -13 6 14 -31 108 -45 113 -6 2 -16 -9 -21 -25z m39
-35 c1 -5 -8 -8 -19 -8 -23 0 -24 4 -8 33 11 21 11 21 19 2 4 -11 8 -23 8 -27z"/>
<path d="M1900 5850 l0 -60 43 2 c36 1 38 2 10 5 -33 4 -33 5 -33 59 0 30 -4
54 -10 54 -6 0 -10 -27 -10 -60z"/>
<path d="M2000 5851 l0 -61 43 1 42 2 -35 6 c-34 6 -34 7 -31 52 1 26 -2 50
-8 54 -7 4 -11 -14 -11 -54z"/>
<path d="M2100 5862 c0 -26 5 -53 12 -60 19 -19 66 -15 78 7 13 25 13 101 0
101 -5 0 -10 -22 -10 -49 0 -41 -4 -51 -20 -56 -31 -10 -40 2 -40 56 0 27 -4
49 -10 49 -5 0 -10 -22 -10 -48z"/>
<path d="M2232 5848 c0 -35 3 -48 5 -30 6 42 36 44 58 2 9 -16 20 -30 26 -30
5 0 3 12 -5 28 -10 19 -11 32 -3 43 18 29 1 49 -43 49 l-40 0 2 -62z m73 32
c0 -10 -12 -16 -32 -18 -28 -3 -33 0 -33 18 0 18 5 21 33 18 20 -2 32 -8 32
-18z"/>
<path d="M2350 5850 l0 -60 48 2 c43 1 44 2 10 5 -32 4 -38 8 -38 28 0 20 6
24 38 28 l37 4 -37 1 c-30 2 -38 6 -38 21 0 15 8 21 38 24 34 3 33 4 -10 5
l-48 2 0 -60z"/>
<path d="M2521 5848 c1 -45 3 -55 8 -33 8 41 35 43 57 6 10 -17 22 -31 26 -31
12 0 9 13 -7 34 -12 16 -12 21 0 39 20 29 2 47 -46 47 l-39 0 1 -62z m74 32
c0 -10 -12 -16 -32 -18 -28 -3 -33 0 -33 18 0 18 5 21 33 18 20 -2 32 -8 32
-18z"/>
<path d="M2642 5850 l0 -60 51 2 c51 1 51 2 10 5 -38 4 -43 7 -43 28 0 20 6
24 38 28 l37 4 -37 1 c-30 2 -38 6 -38 21 0 15 8 21 38 24 35 3 34 4 -9 5
l-46 2 -1 -60z"/>
<path d="M2760 5851 c0 -34 4 -61 10 -61 6 0 10 11 10 24 0 21 6 25 33 28 28
3 32 6 32 33 0 28 -3 30 -42 33 l-43 3 0 -60z m77 33 c7 -18 -12 -34 -39 -34
-13 0 -18 8 -18 25 0 20 5 25 25 25 14 0 28 -7 32 -16z"/>
<path d="M2886 5888 c-9 -12 -16 -29 -16 -38 0 -30 30 -60 60 -60 36 0 60 24
60 60 0 16 -7 36 -16 44 -23 24 -70 20 -88 -6z m73 -2 c31 -37 -9 -103 -46
-80 -37 23 -24 94 17 94 10 0 23 -6 29 -14z"/>
<path d="M3010 5851 c0 -34 4 -61 10 -61 6 0 10 14 10 30 0 20 5 30 15 30 8 0
24 -13 37 -30 29 -39 44 -39 21 0 -14 25 -15 32 -4 39 7 5 11 17 9 27 -2 15
-14 20 -51 22 l-47 3 0 -60z m80 29 c0 -16 -7 -20 -30 -20 -23 0 -30 4 -30 20
0 16 7 20 30 20 23 0 30 -4 30 -20z"/>
<path d="M3147 5903 c19 -4 23 -12 26 -61 l3 -57 2 57 c2 50 5 57 25 61 12 2
0 4 -28 4 -27 0 -40 -2 -28 -4z"/>
<path d="M3308 5903 c17 -2 32 -6 32 -7 0 -2 -6 -16 -14 -32 -22 -46 -28 -74
-17 -74 6 0 11 8 11 18 0 10 9 35 20 57 11 22 20 41 20 42 0 2 -19 2 -42 1
-37 -1 -39 -2 -10 -5z"/>
<path d="M3407 5903 c-9 -17 -29 -104 -25 -108 2 -2 11 23 20 55 14 54 16 73
5 53z"/>
<path d="M3440 5896 c0 -8 -3 -21 -6 -30 -4 -11 1 -15 23 -13 22 2 29 -3 31
-21 4 -27 -22 -40 -45 -21 -14 12 -16 12 -11 -1 7 -21 58 -19 72 3 14 22 -3
51 -33 55 -30 5 -26 30 7 35 25 4 25 4 -5 6 -23 1 -33 -4 -33 -13z"/>
<path d="M3541 5867 c-6 -25 -14 -53 -17 -63 -5 -13 -4 -16 3 -9 12 12 38 104
31 111 -3 2 -10 -15 -17 -39z"/>
<path d="M3587 5904 c-14 -14 -7 -26 8 -14 16 13 45 7 45 -10 0 -6 -16 -27
-35 -47 -19 -20 -35 -38 -35 -40 0 -1 19 -2 43 -2 29 2 34 3 15 6 -34 5 -35
10 -2 35 34 27 30 72 -6 76 -14 2 -29 0 -33 -4z"/>
<path d="M3680 5891 c-31 -59 16 -131 58 -89 16 16 16 80 0 96 -18 18 -46 14
-58 -7z m56 -27 c7 -38 -13 -73 -35 -60 -12 8 -15 78 -4 89 16 17 33 4 39 -29z"/>
<path d="M3780 5895 c-9 -10 -9 -15 -1 -15 6 0 11 5 11 10 0 6 9 10 20 10 30
0 25 -32 -10 -65 -16 -16 -30 -32 -30 -37 0 -4 19 -7 43 -6 38 1 39 2 8 5
l-34 4 33 34 c24 24 30 38 25 54 -8 25 -46 28 -65 6z"/>
<path d="M3886 5870 c-14 -22 -26 -42 -26 -45 0 -3 13 -5 29 -5 20 0 31 -6 34
-17 4 -17 5 -17 6 0 0 9 6 17 13 17 9 0 9 3 0 12 -7 7 -12 27 -12 45 0 43 -12
42 -44 -7z m34 -10 c0 -20 -25 -38 -36 -27 -7 6 18 47 28 47 5 0 8 -9 8 -20z"/>
<path d="M7378 5903 c20 -4 22 -10 22 -59 0 -30 5 -54 10 -54 6 0 10 24 10 54
0 49 2 55 23 59 12 2 -3 4 -33 4 -30 0 -45 -2 -32 -4z"/>
<path d="M7481 5848 c1 -45 3 -55 8 -33 8 41 35 43 57 6 10 -17 22 -31 26 -31
12 0 9 13 -7 34 -12 16 -12 21 0 39 20 29 2 47 -46 47 l-39 0 1 -62z m74 32
c0 -10 -12 -16 -32 -18 -28 -3 -33 0 -33 18 0 18 5 21 33 18 20 -2 32 -8 32
-18z"/>
<path d="M7602 5850 l0 -60 51 2 c51 1 51 2 10 5 -38 4 -43 7 -43 28 0 20 6
24 38 28 l37 4 -37 1 c-30 2 -38 6 -38 21 0 15 8 21 38 24 35 3 34 4 -9 5
l-46 2 -1 -60z"/>
<path d="M7720 5850 c0 -33 4 -60 9 -60 5 0 8 18 6 40 -2 22 0 40 5 40 4 0 19
-18 34 -40 14 -22 31 -40 36 -40 6 0 10 27 10 60 0 33 -4 60 -10 60 -5 0 -10
-21 -10 -47 l0 -47 -30 47 c-16 26 -34 47 -40 47 -6 0 -10 -26 -10 -60z"/>
<path d="M7850 5850 l0 -60 34 0 c42 0 66 22 66 60 0 38 -24 60 -66 60 l-34 0
0 -60z m76 25 c3 -14 3 -36 0 -50 -5 -20 -13 -25 -36 -25 -29 0 -30 1 -30 50
0 49 1 50 30 50 23 0 31 -5 36 -25z"/>
<path d="M7632 5530 c0 -19 2 -27 5 -17 2 9 2 25 0 35 -3 9 -5 1 -5 -18z"/>
<path d="M7685 5531 c4 -8 2 -17 -6 -22 -9 -6 -10 -9 -2 -9 19 0 27 21 13 33
-10 9 -11 9 -5 -2z"/>
<path d="M7748 5523 c20 -4 22 -10 22 -78 0 -68 -2 -74 -22 -78 l-23 -4 23 -2
c21 -1 22 -5 22 -75 0 -69 -2 -75 -22 -79 l-23 -4 23 -2 c21 -1 22 -5 22 -75
0 -69 -2 -75 -22 -79 l-23 -4 23 -2 c21 -1 22 -5 22 -75 0 -69 -2 -75 -22 -79
l-23 -4 23 -2 c21 -1 22 -5 22 -75 0 -69 -2 -75 -22 -79 l-23 -4 23 -2 c21 -1
22 -5 22 -75 0 -69 -2 -75 -22 -79 l-23 -4 23 -2 c21 -1 22 -5 22 -75 0 -69
-2 -75 -22 -79 l-23 -4 23 -2 c21 -1 22 -5 22 -75 0 -69 -2 -75 -22 -79 l-23
-4 23 -2 c21 -1 22 -5 22 -75 0 -69 -2 -75 -22 -79 l-23 -4 23 -2 c21 -1 22
-5 22 -75 0 -69 -2 -75 -22 -79 l-23 -4 23 -2 c21 -1 22 -5 22 -75 0 -69 -2
-75 -22 -79 l-23 -4 23 -2 c21 -1 22 -5 22 -75 0 -69 -2 -75 -22 -79 l-23 -4
23 -2 c21 -1 22 -5 22 -75 0 -69 -2 -75 -22 -79 l-23 -4 23 -2 c12 0 22 -8 22
-16 0 -8 5 -15 10 -15 6 0 10 7 10 15 0 13 70 15 569 15 534 0 570 -1 574 -17
4 -17 5 -17 6 0 1 16 35 17 575 17 l575 0 4 -22 4 -23 2 23 1 22 1149 0 c1086
0 1150 -1 1154 -17 4 -14 5 -12 6 5 l1 22 -2310 0 -2310 0 0 1040 0 1040 -32
-1 c-24 -1 -27 -3 -10 -6z"/>
<path d="M7632 5370 c0 -19 2 -27 5 -17 2 9 2 25 0 35 -3 9 -5 1 -5 -18z"/>
<path d="M7668 5343 c6 -2 18 -2 25 0 6 3 1 5 -13 5 -14 0 -19 -2 -12 -5z"/>
<path d="M5306 5254 c-18 -18 -21 -40 -6 -49 8 -5 7 -11 0 -20 -15 -18 -9 -55
11 -68 23 -14 67 0 74 24 4 13 1 27 -10 39 -11 12 -13 20 -6 25 18 10 12 43
-8 55 -27 14 -37 13 -55 -6z m54 -24 c0 -24 -26 -38 -42 -22 -16 16 -2 42 22
42 13 0 20 -7 20 -20z m10 -73 c0 -7 -5 -18 -12 -25 -18 -18 -36 -15 -48 7 -7
15 -6 23 6 35 12 12 20 13 35 6 10 -6 19 -16 19 -23z"/>
<path d="M5443 5220 c-41 -61 -41 -70 -3 -70 23 0 30 -4 30 -20 0 -27 13 -25
27 5 6 14 7 25 2 25 -5 0 -9 25 -9 55 0 30 -3 55 -7 55 -5 0 -23 -23 -40 -50z
m27 -30 c0 -23 -4 -30 -20 -30 -24 0 -25 8 -4 38 20 29 24 28 24 -8z"/>
<path d="M5620 5252 c-17 -14 -22 -28 -22 -65 0 -26 6 -54 12 -62 35 -42 104
10 81 61 -8 19 -18 25 -39 24 -41 -3 -44 -2 -32 20 12 22 40 26 58 8 9 -9 12
-9 12 0 0 10 -30 32 -43 32 -3 0 -15 -8 -27 -18z m48 -64 c28 -28 -3 -83 -33
-58 -18 15 -20 56 -2 63 19 8 22 8 35 -5z"/>
<path d="M5762 5247 c-25 -26 -30 -46 -7 -27 13 11 15 5 15 -49 0 -34 4 -61
10 -61 6 0 10 33 10 80 0 44 -1 80 -3 80 -2 0 -13 -10 -25 -23z"/>
<path d="M5863 5263 c-19 -7 -16 -72 2 -79 35 -14 61 46 33 74 -13 13 -16 13
-35 5z m34 -29 c8 -21 -13 -42 -28 -27 -13 13 -5 43 11 43 6 0 13 -7 17 -16z"/>
<path d="M5957 5248 c-31 -51 -75 -138 -69 -138 4 0 26 36 50 80 24 44 41 80
38 80 -3 0 -12 -10 -19 -22z"/>
<path d="M7642 5210 c0 -19 2 -27 5 -17 2 9 2 25 0 35 -3 9 -5 1 -5 -18z"/>
<path d="M7682 5210 c0 -19 2 -27 5 -17 2 9 2 25 0 35 -3 9 -5 1 -5 -18z"/>
<path d="M5954 5176 c-3 -8 -4 -25 -2 -38 2 -17 9 -23 28 -23 22 0 25 4 25 35
0 29 -4 36 -23 38 -13 2 -24 -3 -28 -12z m41 -26 c0 -13 -5 -25 -12 -27 -13
-5 -27 32 -18 47 11 18 30 5 30 -20z"/>
<path d="M2921 5133 c-48 -46 -48 -68 -2 -40 16 9 32 17 35 17 3 0 6 -49 6
-110 0 -91 3 -110 15 -110 13 0 15 23 15 145 0 110 -3 145 -12 143 -7 0 -33
-21 -57 -45z"/>
<path d="M3115 5155 c-27 -26 -31 -40 -15 -50 6 -4 20 5 31 19 35 44 89 32 89
-19 0 -28 -5 -35 -30 -44 -29 -10 -43 -39 -17 -38 33 1 45 -5 55 -29 9 -19 9
-30 1 -47 -26 -48 -67 -50 -103 -5 -20 27 -26 29 -31 16 -9 -24 12 -57 43 -69
89 -34 168 62 111 135 -19 24 -19 27 -5 42 30 29 15 78 -31 102 -35 19 -72 14
-98 -13z"/>
<path d="M5545 5120 c-3 -5 1 -10 10 -10 9 0 13 5 10 10 -3 6 -8 10 -10 10 -2
0 -7 -4 -10 -10z"/>
<path d="M7632 5050 c0 -19 2 -27 5 -17 2 9 2 25 0 35 -3 9 -5 1 -5 -18z"/>
<path d="M7661 5054 c0 -11 3 -14 6 -6 3 7 2 16 -1 19 -3 4 -6 -2 -5 -13z"/>
<path d="M7667 4923 c-13 -13 -7 -31 13 -36 13 -3 20 0 20 9 0 8 -6 11 -15 8
-8 -4 -15 -2 -15 4 0 6 6 13 13 15 6 3 7 6 1 6 -6 1 -14 -2 -17 -6z"/>
<path d="M7663 4720 c2 -8 10 -15 17 -15 7 0 15 7 17 15 4 13 3 13 -6 0 -10
-13 -12 -13 -22 0 -9 13 -10 13 -6 0z"/>
<path d="M7668 4603 c6 -2 18 -2 25 0 6 3 1 5 -13 5 -14 0 -19 -2 -12 -5z"/>
<path d="M7661 4414 c0 -11 3 -14 6 -6 3 7 2 16 -1 19 -3 4 -6 -2 -5 -13z"/>
<path d="M1806 4127 c-27 -20 -16 -49 22 -59 24 -6 32 -14 30 -26 -4 -23 -32
-26 -52 -6 -20 20 -34 11 -16 -11 16 -20 64 -19 81 1 18 22 1 46 -39 56 -18 5
-32 13 -32 19 0 16 31 23 51 10 11 -6 19 -7 19 -1 0 8 -31 30 -42 30 -2 0 -12
-6 -22 -13z"/>
<path d="M1906 4127 c-10 -22 -1 -83 15 -103 14 -17 51 -18 67 -2 7 7 11 36
11 68 l-2 55 -6 -53 c-6 -46 -21 -72 -41 -72 -19 0 -29 23 -32 70 -3 39 -6 50
-12 37z"/>
<path d="M2080 4130 c0 -5 7 -10 15 -10 12 0 15 -13 15 -55 0 -30 5 -55 10
-55 6 0 10 25 10 55 0 42 3 55 15 55 8 0 15 5 15 10 0 6 -18 10 -40 10 -22 0
-40 -4 -40 -10z"/>
<path d="M2190 4073 l0 -63 48 2 47 1 -42 4 c-38 4 -43 7 -43 28 0 20 6 24 38
28 l37 4 -37 1 c-31 2 -38 6 -38 22 0 16 7 20 35 20 19 0 35 5 35 10 0 6 -17
10 -40 8 l-40 -2 0 -63z"/>
<path d="M2328 4133 c-21 -5 -31 -32 -18 -48 6 -7 24 -15 40 -19 35 -6 40 -31
9 -41 -13 -4 -27 0 -40 11 -20 18 -27 6 -7 -14 27 -27 94 0 82 33 -3 8 -21 19
-40 25 -40 13 -46 40 -9 40 14 0 25 -4 25 -10 0 -5 5 -10 11 -10 17 0 5 22
-17 30 -10 3 -26 5 -36 3z"/>
<path d="M2030 4070 c0 -33 4 -60 10 -60 6 0 10 27 10 60 0 33 -4 60 -10 60
-6 0 -10 -27 -10 -60z"/>
<path d="M7681 4114 c0 -11 3 -14 6 -6 3 7 2 16 -1 19 -3 4 -6 -2 -5 -13z"/>
<path d="M7680 4080 c0 -5 5 -10 11 -10 5 0 7 5 4 10 -3 6 -8 10 -11 10 -2 0
-4 -4 -4 -10z"/>
<path d="M1789 3683 c-20 -56 -20 -54 1 -41 14 9 22 9 34 -1 9 -8 16 -11 16
-8 0 10 -31 77 -35 77 -3 0 -10 -12 -16 -27z m25 -8 c3 -9 0 -15 -9 -15 -9 0
-12 6 -9 15 4 8 7 15 9 15 2 0 5 -7 9 -15z"/>
<path d="M1980 3665 c0 -46 15 -57 49 -36 19 12 4 51 -20 51 -10 0 -19 5 -19
11 0 6 9 9 20 6 11 -3 20 -1 20 4 0 5 -11 9 -25 9 -23 0 -25 -4 -25 -45z m45
-15 c0 -8 -8 -16 -17 -18 -13 -2 -18 3 -18 18 0 15 5 20 18 18 9 -2 17 -10 17
-18z"/>
<path d="M2407 3668 c-9 -23 -15 -44 -12 -46 2 -3 7 3 11 12 7 18 44 22 44 4
0 -6 3 -9 6 -5 7 7 -17 77 -26 77 -4 0 -14 -19 -23 -42z m33 1 c0 -5 -4 -9
-10 -9 -5 0 -10 7 -10 16 0 8 5 12 10 9 6 -3 10 -10 10 -16z"/>
<path d="M2572 3703 c11 -3 18 -17 21 -41 l4 -37 1 37 c1 25 7 38 20 41 9 3
-1 5 -23 5 -22 0 -32 -2 -23 -5z"/>
<path d="M2750 3666 c0 -19 3 -37 8 -40 4 -2 6 13 4 35 -5 48 -12 51 -12 5z"/>
<path d="M1850 3644 c0 -26 3 -44 7 -41 3 4 6 20 5 37 -1 34 15 49 30 29 8
-12 9 -11 5 1 -2 8 -13 16 -25 18 -20 3 -22 -1 -22 -44z"/>
<path d="M1922 3660 c0 -19 2 -27 5 -17 2 9 2 25 0 35 -3 9 -5 1 -5 -18z"/>
<path d="M2053 3655 c0 -22 2 -30 4 -17 2 12 2 30 0 40 -3 9 -5 -1 -4 -23z"/>
<path d="M2083 3655 c0 -22 2 -30 4 -17 2 12 2 30 0 40 -3 9 -5 -1 -4 -23z"/>
<path d="M2107 3683 c6 -4 13 -22 16 -38 4 -27 5 -27 3 4 0 21 -7 36 -16 38
-10 3 -11 2 -3 -4z"/>
<path d="M2155 3680 c-3 -6 1 -7 9 -4 9 3 16 2 16 -4 0 -5 -9 -12 -20 -15 -24
-6 -26 -23 -4 -31 14 -5 15 -4 4 9 -10 12 -10 15 3 15 8 0 18 -6 20 -12 3 -7
6 2 6 20 1 31 -20 45 -34 22z"/>
<path d="M2211 3658 c2 -30 2 -31 6 -5 5 34 30 36 36 2 4 -23 4 -23 3 2 -1 21
-7 29 -23 31 -20 3 -23 -1 -22 -30z"/>
<path d="M2290 3686 c0 -2 7 -7 16 -10 8 -3 12 -2 9 4 -6 10 -25 14 -25 6z"/>
<path d="M2337 3684 c-13 -14 -7 -52 9 -58 13 -5 14 -3 7 6 -14 18 -12 48 3
48 7 0 15 -5 17 -10 3 -6 4 -5 3 2 -3 15 -28 22 -39 12z"/>
<path d="M2470 3644 c0 -26 3 -44 7 -40 4 4 7 21 8 39 0 22 5 32 15 32 9 0 15
-9 14 -23 0 -16 2 -20 10 -12 15 15 -5 44 -33 48 -19 3 -21 -1 -21 -44z"/>
<path d="M2543 3655 c0 -22 2 -30 4 -17 2 12 2 30 0 40 -3 9 -5 -1 -4 -23z"/>
<path d="M2632 3678 c-16 -16 -15 -33 3 -48 11 -9 19 -10 26 -3 8 8 6 11 -7
10 -14 -2 -18 4 -16 18 5 26 13 34 19 18 3 -7 9 -13 15 -13 6 0 6 6 -2 15 -15
18 -22 19 -38 3z"/>
<path d="M2694 3678 c-4 -6 0 -16 9 -23 22 -16 22 -29 0 -20 -14 5 -15 3 -6
-6 6 -6 16 -8 22 -5 16 10 13 36 -4 36 -8 0 -15 5 -15 11 0 6 7 8 16 5 8 -3
12 -2 9 4 -8 13 -22 13 -31 -2z"/>
<path d="M2780 3675 c0 -9 7 -18 15 -21 8 -4 15 -11 15 -16 0 -6 -8 -7 -17 -3
-14 5 -15 3 -6 -6 6 -6 16 -8 22 -5 16 10 13 36 -4 36 -8 0 -15 5 -15 11 0 6
7 9 15 5 8 -3 15 -1 15 4 0 6 -9 10 -20 10 -11 0 -20 -7 -20 -15z"/>
<path d="M2271 3659 c-1 -9 7 -23 17 -30 15 -12 16 -12 6 1 -6 8 -14 22 -17
30 -5 13 -6 12 -6 -1z"/>
<path d="M7682 3610 c0 -19 2 -27 5 -17 2 9 2 25 0 35 -3 9 -5 1 -5 -18z"/>
<path d="M12394 3365 c-3 -8 -2 -20 2 -27 6 -10 3 -9 -9 1 -15 12 -17 11 -14
-10 3 -17 11 -25 28 -26 22 -2 22 -2 4 6 -16 8 -17 10 -4 10 9 1 19 8 23 16 3
8 0 14 -7 12 -7 -1 -11 6 -11 16 2 21 -5 22 -12 2z"/>
<path d="M7753 3363 c9 -2 25 -2 35 0 9 3 1 5 -18 5 -19 0 -27 -2 -17 -5z"/>
<path d="M8894 3355 c5 -11 9 -27 10 -35 5 -25 36 -25 36 1 0 12 -3 19 -6 16
-4 -4 -16 3 -27 16 -18 20 -19 20 -13 2z"/>
<path d="M1780 3351 c0 -5 7 -8 16 -7 9 0 19 -5 22 -13 3 -10 -1 -12 -17 -8
-11 3 -21 1 -21 -4 0 -5 12 -9 26 -9 16 0 24 -5 21 -12 -2 -7 -14 -13 -26 -12
-11 0 -21 -3 -21 -8 0 -5 12 -8 28 -6 24 3 27 6 24 38 -3 34 -15 50 -39 50 -7
0 -13 -4 -13 -9z"/>
<path d="M2237 3353 c-4 -3 -7 -24 -7 -45 0 -37 2 -39 28 -36 23 2 27 8 27 33
1 44 -26 71 -48 48z m36 -18 c1 -5 -6 -11 -15 -13 -11 -2 -18 3 -18 13 0 17
30 18 33 0z m7 -40 c0 -8 -9 -15 -20 -15 -11 0 -20 7 -20 15 0 8 9 15 20 15
11 0 20 -7 20 -15z"/>
<path d="M2657 3352 c6 -4 13 -25 16 -47 l4 -40 1 42 c2 30 7 43 20 46 9 3 1
5 -18 6 -19 0 -30 -3 -23 -7z"/>
<path d="M2830 3317 c0 -20 3 -38 8 -40 9 -6 8 61 -2 70 -3 3 -6 -10 -6 -30z"/>
<path d="M7780 3339 c0 -6 -10 -8 -22 -5 -13 3 -17 3 -10 0 6 -3 10 -10 7 -14
-3 -5 4 -14 15 -20 18 -10 20 -8 20 20 0 16 -2 30 -5 30 -3 0 -5 -5 -5 -11z"/>
<path d="M10064 3329 c3 -13 5 -27 5 -31 1 -4 8 -5 16 -2 17 7 21 54 4 54 -5
0 -7 -6 -3 -12 5 -9 2 -8 -9 1 -16 12 -17 11 -13 -10z"/>
<path d="M1907 3330 c6 -8 13 -26 16 -40 l4 -25 2 26 c0 15 -7 33 -16 40 -16
12 -17 12 -6 -1z"/>
<path d="M1950 3329 c-12 -8 -10 -9 7 -4 18 5 22 1 26 -22 l4 -28 -1 29 c-1
33 -13 41 -36 25z"/>
<path d="M2037 3330 c6 -8 13 -26 16 -40 l4 -25 2 26 c0 15 -7 33 -16 40 -16
12 -17 12 -6 -1z"/>
<path d="M2082 3328 c-17 -17 -15 -48 4 -55 8 -3 20 -1 26 5 8 8 5 9 -11 5
-16 -4 -21 -1 -21 14 0 10 5 24 12 31 7 7 10 12 7 12 -3 0 -10 -5 -17 -12z"/>
<path d="M2369 3302 c5 -34 6 -35 9 -8 2 16 0 32 -5 37 -5 5 -7 -7 -4 -29z"/>
<path d="M2429 3328 c11 -15 11 -18 0 -18 -12 0 -12 -2 0 -9 10 -7 10 -10 1
-16 -7 -4 -16 -1 -21 6 -7 11 -9 10 -9 -3 0 -13 8 -18 25 -18 20 0 25 5 25 24
0 13 -8 30 -17 37 -16 13 -17 12 -4 -3z"/>
<path d="M2473 3333 c-7 -2 -12 -19 -12 -36 l1 -32 7 29 c8 39 29 44 34 9 l4
-28 -1 29 c-1 30 -11 38 -33 29z"/>
<path d="M2530 3325 c-6 -8 -9 -23 -5 -35 6 -20 29 -27 39 -11 3 5 -2 8 -12 7
-11 -1 -17 6 -17 19 0 13 6 20 17 19 10 -1 15 2 12 7 -8 13 -20 11 -34 -6z"/>
<path d="M2590 3325 c-17 -21 -8 -50 18 -53 12 -2 22 1 22 7 0 6 -6 8 -14 5
-8 -3 -17 -1 -21 5 -4 7 4 11 20 11 23 0 24 2 15 20 -13 24 -23 25 -40 5z m30
-5 c0 -5 -4 -10 -10 -10 -5 0 -10 5 -10 10 0 6 5 10 10 10 6 0 10 -4 10 -10z"/>
<path d="M2711 3321 c-13 -22 9 -57 30 -48 10 4 9 6 -3 6 -25 1 -23 21 2 21
24 0 27 25 4 34 -22 8 -22 8 -33 -13z m34 -1 c3 -5 -1 -10 -9 -10 -9 0 -16 5
-16 10 0 6 4 10 9 10 6 0 13 -4 16 -10z"/>
<path d="M2774 3329 c-4 -7 4 -20 17 -31 l24 -20 -22 5 c-13 3 -23 1 -23 -5 0
-13 43 -6 47 9 2 6 -5 14 -16 18 -12 3 -21 11 -21 17 0 5 7 7 16 4 8 -3 12 -2
9 4 -8 13 -22 13 -31 -1z"/>
<path d="M11212 3329 c6 -29 48 -41 48 -14 0 8 -4 15 -9 15 -5 0 -17 3 -26 6
-10 4 -15 2 -13 -7z"/>
<path d="M1852 3300 c0 -19 2 -27 5 -17 2 9 2 25 0 35 -3 9 -5 1 -5 -18z"/>
<path d="M1882 3300 c0 -19 2 -27 5 -17 2 9 2 25 0 35 -3 9 -5 1 -5 -18z"/>
<path d="M2012 3300 c0 -19 2 -27 5 -17 2 9 2 25 0 35 -3 9 -5 1 -5 -18z"/>
<path d="M2170 3319 c0 -6 -9 -9 -20 -6 -15 4 -20 0 -20 -14 0 -23 27 -36 42
-21 8 8 5 9 -11 5 -12 -3 -21 -1 -21 6 0 6 9 11 20 11 11 0 20 7 20 15 0 8 -2
15 -5 15 -3 0 -5 -5 -5 -11z"/>
<path d="M2330 3300 c0 -16 2 -30 4 -30 2 0 6 14 8 30 3 17 1 30 -4 30 -4 0
-8 -13 -8 -30z"/>
<path d="M1940 3287 c0 -10 8 -17 18 -17 9 0 13 4 7 8 -5 4 -13 11 -17 16 -5
5 -8 2 -8 -7z"/>
<path d="M4154 2999 c-3 -6 -1 -16 5 -22 9 -9 10 -7 5 7 -6 16 -4 18 19 14 15
-3 24 -1 21 3 -7 13 -42 11 -50 -2z"/>
<path d="M4563 2970 c0 -25 2 -35 4 -22 2 12 2 32 0 45 -2 12 -4 2 -4 -23z"/>
<path d="M4223 2983 c0 -8 7 -11 18 -8 13 5 19 -1 22 -22 4 -28 4 -28 6 3 1
26 -3 33 -22 36 -15 3 -24 0 -24 -9z"/>
<path d="M4295 2980 c-4 -6 -4 -14 -1 -17 3 -4 6 -1 6 5 0 7 7 12 15 12 18 0
20 -31 3 -49 -11 -10 -9 -11 5 -5 12 4 17 15 15 33 -3 27 -31 41 -43 21z"/>
<path d="M4355 2965 c7 -33 12 -41 20 -33 3 3 -2 18 -11 34 l-16 29 7 -30z"/>
<path d="M4380 2978 c1 -18 26 -49 33 -41 11 10 8 25 -3 18 -5 -3 -10 3 -10
14 0 12 -4 21 -10 21 -5 0 -10 -6 -10 -12z"/>
<path d="M4476 2981 c-4 -5 3 -7 14 -4 11 3 20 0 20 -6 0 -6 -6 -11 -14 -11
-21 0 -30 -20 -17 -33 9 -9 11 -8 6 6 -5 12 -2 17 10 17 9 0 13 -4 10 -10 -3
-5 -1 -10 4 -10 6 0 11 14 11 30 0 23 -5 30 -19 30 -11 0 -22 -4 -25 -9z"/>
<path d="M4190 2961 c12 -8 12 -13 3 -22 -9 -9 -16 -9 -28 1 -8 7 -15 8 -15 2
0 -14 27 -23 45 -15 19 7 16 35 -5 40 -13 4 -13 3 0 -6z"/>
<path d="M4221 2944 c0 -11 3 -14 6 -6 3 7 2 16 -1 19 -3 4 -6 -2 -5 -13z"/>
<path d="M7392 2704 c-40 -28 -22 -114 24 -114 21 0 54 19 54 31 0 5 -11 2
-25 -7 -24 -16 -27 -16 -45 1 -22 20 -26 55 -8 73 16 16 55 15 61 0 2 -7 8 -9
13 -5 9 9 -22 37 -41 37 -6 0 -21 -7 -33 -16z"/>
<path d="M7510 2660 c-13 -34 -20 -64 -16 -67 4 -4 9 3 13 15 7 30 59 31 68 2
3 -11 10 -20 15 -20 4 0 -3 29 -18 65 -14 36 -29 65 -32 65 -4 0 -18 -27 -30
-60z m40 21 c0 -5 3 -16 6 -25 4 -12 0 -16 -16 -16 -16 0 -20 4 -16 16 3 9 6
20 6 25 0 5 5 9 10 9 6 0 10 -4 10 -9z"/>
<path d="M7600 2710 c0 -5 7 -10 15 -10 12 0 15 -13 15 -55 0 -30 5 -55 10
-55 6 0 10 25 10 55 0 49 2 55 21 55 11 0 17 5 14 10 -3 6 -24 10 -46 10 -21
0 -39 -4 -39 -10z"/>
<path d="M7710 2655 l0 -65 48 1 47 2 -40 6 c-32 5 -41 11 -43 29 -3 19 1 22
35 23 l38 2 -35 6 c-50 9 -55 41 -6 41 20 0 36 5 36 10 0 6 -18 10 -40 10
l-40 0 0 -65z"/>
<path d="M7853 2710 c-27 -11 -39 -53 -25 -85 22 -48 102 -40 102 10 0 18 -5
25 -20 25 -11 0 -20 -4 -20 -10 0 -5 7 -10 15 -10 23 0 18 -27 -7 -33 -38 -10
-60 10 -56 51 3 32 7 37 31 40 16 2 35 -2 43 -9 9 -8 14 -8 14 -1 0 11 -32 33
-47 31 -4 0 -18 -4 -30 -9z"/>
<path d="M7982 2704 c-41 -29 -20 -114 29 -114 31 0 59 30 59 65 0 33 -27 65
-55 65 -6 0 -21 -7 -33 -16z m68 -23 c16 -31 12 -49 -15 -67 -24 -16 -27 -16
-45 1 -34 31 -18 85 25 85 14 0 29 -8 35 -19z"/>
<path d="M8102 2653 c0 -38 3 -53 5 -35 6 42 37 44 61 2 9 -16 20 -30 25 -30
11 0 9 8 -9 35 -15 22 -15 26 0 40 20 20 20 20 0 39 -8 9 -31 16 -50 16 l-34
0 2 -67z m78 32 c0 -16 -43 -31 -59 -20 -25 15 -11 35 24 35 24 0 35 -5 35
-15z"/>
<path d="M8233 2655 c0 -38 2 -53 4 -32 2 20 2 52 0 70 -2 17 -4 1 -4 -38z"/>
<path d="M8277 2713 c-4 -3 -7 -33 -7 -65 l0 -58 48 1 c44 2 45 2 12 8 -26 4
-36 12 -38 28 -3 19 2 22 35 26 l38 4 -37 1 c-31 2 -38 6 -38 22 0 16 7 20 35
20 19 0 35 5 35 10 0 11 -73 14 -83 3z"/>
<path d="M8404 2706 c-15 -12 -17 -18 -8 -33 6 -10 20 -20 30 -22 10 -2 25 -8
32 -14 11 -9 11 -13 -3 -23 -18 -13 -55 -7 -55 9 0 6 -3 7 -6 4 -11 -11 17
-37 40 -37 12 0 27 5 34 12 23 23 13 45 -29 61 -23 9 -38 21 -34 27 9 14 52
13 58 -2 2 -7 7 -10 11 -7 9 8 -21 39 -38 39 -7 0 -21 -6 -32 -14z"/>
<path d="M1790 2415 l0 -65 47 0 c51 0 52 13 0 14 -25 1 -33 6 -35 24 -3 19 1
22 35 23 l38 2 -35 6 c-50 9 -55 41 -6 41 20 0 36 5 36 10 0 6 -18 10 -40 10
l-40 0 0 -65z"/>
<path d="M1907 2473 c-11 -10 -8 -111 2 -118 6 -3 11 16 13 42 l3 48 30 -47
c17 -27 33 -48 38 -48 4 0 6 30 5 68 l-1 67 -6 -55 -6 -55 -34 53 c-36 56 -35
55 -44 45z"/>
<path d="M2022 2469 c3 -8 14 -38 24 -66 18 -51 27 -62 38 -45 15 25 44 112
37 112 -4 0 -17 -23 -28 -52 l-20 -52 -17 52 c-10 28 -22 55 -28 59 -7 4 -9 1
-6 -8z"/>
<path d="M2150 2414 c0 -37 2 -65 4 -63 8 9 12 120 4 125 -4 3 -8 -25 -8 -62z"/>
<path d="M2202 2413 c0 -38 3 -53 5 -35 5 42 35 43 60 2 9 -16 21 -30 25 -30
12 0 10 8 -9 37 -13 19 -14 28 -5 31 18 6 15 49 -4 56 -9 3 -29 6 -45 6 l-29
0 2 -67z m78 32 c0 -16 -43 -31 -59 -20 -25 15 -11 35 24 35 24 0 35 -5 35
-15z"/>
<path d="M2342 2464 c-32 -22 -30 -78 3 -100 34 -22 70 -12 83 23 11 34 0 68
-27 82 -26 14 -32 14 -59 -5z m71 -25 c13 -21 2 -65 -19 -73 -38 -15 -75 35
-54 74 13 25 57 24 73 -1z"/>
<path d="M2462 2413 c1 -67 1 -67 7 -18 l6 50 34 -47 c19 -27 38 -48 43 -48
11 0 10 118 -1 125 -6 3 -11 -16 -13 -42 l-3 -48 -30 47 c-16 27 -33 48 -37
48 -5 0 -7 -30 -6 -67z"/>
<path d="M2587 2473 c-9 -18 -7 -112 2 -118 7 -4 11 10 12 42 l0 48 15 -40
c21 -58 30 -62 44 -18 20 60 25 61 31 8 6 -49 6 -49 7 18 1 37 -2 67 -7 67 -5
0 -17 -23 -26 -50 -9 -28 -20 -48 -25 -45 -4 2 -13 25 -19 50 -10 41 -24 56
-34 38z"/>
<path d="M2730 2415 l0 -65 48 2 c43 1 44 2 10 5 -32 4 -38 8 -38 28 0 19 6
24 33 28 l32 4 -32 1 c-26 2 -33 6 -33 22 0 16 7 20 35 20 19 0 35 5 35 10 0
6 -20 10 -45 10 l-45 0 0 -65z"/>
<path d="M2852 2413 c1 -67 1 -67 7 -18 l6 50 33 -47 c18 -27 35 -48 37 -48 3
0 4 30 3 68 -2 65 -2 65 -5 13 l-4 -54 -35 51 c-19 29 -37 52 -39 52 -3 0 -4
-30 -3 -67z"/>
<path d="M2970 2470 c0 -5 9 -10 21 -10 18 0 20 -5 18 -50 -2 -27 0 -53 4 -56
4 -4 7 18 7 49 0 50 2 57 20 57 11 0 20 5 20 10 0 6 -20 10 -45 10 -25 0 -45
-4 -45 -10z"/>
<path d="M7367 2282 c6 -4 13 -23 16 -42 l4 -35 1 37 c2 25 7 38 20 41 9 3 1
5 -18 6 -19 0 -30 -3 -23 -7z"/>
<path d="M7640 2281 c0 -5 -9 -11 -20 -14 -20 -5 -28 -41 -11 -51 4 -3 6 6 3
19 -3 18 0 25 11 25 8 0 18 -6 20 -12 3 -7 6 -1 6 15 1 15 -1 27 -4 27 -3 0
-5 -4 -5 -9z"/>
<path d="M7738 2278 c-2 -7 -1 -26 3 -43 6 -28 7 -28 9 -5 1 14 3 33 5 43 4
19 -11 24 -17 5z"/>
<path d="M7540 2247 c0 -20 3 -37 8 -37 9 0 8 57 -1 67 -4 3 -7 -10 -7 -30z"/>
<path d="M7893 2245 c0 -22 2 -30 4 -17 2 12 2 30 0 40 -3 9 -5 -1 -4 -23z"/>
<path d="M7480 2256 c0 -8 9 -18 20 -21 11 -4 17 -11 14 -17 -5 -7 -2 -8 6 -3
10 6 7 12 -10 25 -22 17 -23 18 -4 23 16 4 16 5 -3 6 -14 1 -23 -5 -23 -13z"/>
<path d="M7677 2264 c-11 -11 -8 -54 3 -54 5 0 7 7 4 15 -4 11 0 15 16 15 13
0 20 5 18 13 -5 14 -31 21 -41 11z m30 -10 c-3 -3 -12 -4 -19 -1 -8 3 -5 6 6
6 11 1 17 -2 13 -5z"/>
<path d="M7788 2263 c7 -3 16 -2 19 1 4 3 -2 6 -13 5 -11 0 -14 -3 -6 -6z"/>
<path d="M7837 2263 c-10 -9 -8 -53 2 -53 4 0 6 11 4 24 -4 17 0 25 14 29 13
3 14 5 2 6 -9 0 -19 -2 -22 -6z"/>
<path d="M7927 2263 c-12 -12 -7 -22 14 -28 17 -6 18 -9 7 -23 -12 -15 -11
-16 5 -3 18 14 18 15 -4 32 -22 16 -22 17 -3 22 13 3 14 5 3 6 -9 0 -19 -2
-22 -6z"/>
<path d="M7412 2233 c2 -9 9 -18 16 -19 7 -1 8 0 2 3 -19 9 -10 22 18 26 25 4
24 4 -6 6 -26 1 -33 -3 -30 -16z"/>
<path d="M7760 2236 c0 -8 4 -18 10 -21 5 -3 7 0 4 9 -4 10 3 16 23 19 27 4
27 4 -4 6 -23 1 -33 -4 -33 -13z"/>
<path d="M3322 2043 c12 -3 18 -18 21 -51 l3 -47 2 47 c2 35 6 48 20 51 9 3
-1 5 -23 5 -22 0 -32 -2 -23 -5z"/>
<path d="M3403 2005 c0 -27 2 -38 4 -22 2 15 2 37 0 50 -2 12 -4 0 -4 -28z"/>
<path d="M5180 2000 c0 -29 2 -51 5 -48 8 7 9 87 2 95 -4 3 -7 -18 -7 -47z"/>
<path d="M5253 2000 c0 -30 2 -43 4 -27 2 15 2 39 0 55 -2 15 -4 2 -4 -28z"/>
<path d="M4810 2020 c0 -5 5 -10 10 -10 6 0 10 5 10 10 0 6 -4 10 -10 10 -5 0
-10 -4 -10 -10z"/>
<path d="M3427 2012 c6 -4 13 -21 16 -37 4 -27 4 -27 6 8 1 29 -3 37 -16 37
-12 0 -14 -3 -6 -8z"/>
<path d="M3477 2013 c-15 -15 -6 -52 14 -58 11 -4 23 -5 25 -2 11 10 14 56 4
62 -6 3 -7 -1 -4 -9 4 -12 0 -16 -16 -16 -16 0 -20 4 -16 15 6 16 3 19 -7 8z
m35 -45 c-9 -9 -15 -9 -24 0 -9 9 -7 12 12 12 19 0 21 -3 12 -12z"/>
<path d="M3552 2000 c0 -14 2 -19 5 -12 2 6 2 18 0 25 -3 6 -5 1 -5 -13z"/>
<path d="M3597 2013 c-4 -3 -7 -17 -7 -30 0 -26 26 -41 42 -25 8 8 5 9 -11 5
-12 -3 -21 -1 -21 6 0 6 8 11 18 11 24 0 32 8 25 26 -5 14 -35 19 -46 7z m33
-13 c0 -5 -7 -10 -15 -10 -8 0 -15 5 -15 10 0 6 7 10 15 10 8 0 15 -4 15 -10z"/>
<path d="M3742 1990 c-1 -16 2 -31 8 -35 6 -4 10 6 10 24 0 39 -15 48 -18 11z"/>
<path d="M3782 2000 c0 -14 2 -19 5 -12 2 6 2 18 0 25 -3 6 -5 1 -5 -13z"/>
<path d="M3827 2013 c-4 -3 -7 -16 -7 -29 0 -25 28 -40 44 -24 8 8 6 9 -5 5
-10 -4 -20 -2 -24 4 -3 7 2 11 14 11 25 0 37 18 22 33 -8 8 -11 6 -11 -6 0 -9
-7 -17 -16 -17 -10 0 -14 6 -10 15 6 16 3 19 -7 8z"/>
<path d="M3930 1985 c0 -19 2 -35 4 -35 2 0 6 16 8 35 2 19 0 35 -4 35 -4 0
-8 -16 -8 -35z"/>
<path d="M3967 2013 c6 -4 13 -22 16 -38 4 -27 5 -27 3 4 0 21 -7 36 -16 38
-10 3 -11 2 -3 -4z"/>
<path d="M4003 2004 c-8 -22 10 -49 33 -49 14 0 20 8 22 33 2 17 -1 32 -6 32
-5 0 -7 -13 -4 -30 3 -23 0 -30 -12 -30 -22 0 -31 27 -16 45 9 11 9 15 1 15
-6 0 -14 -7 -18 -16z"/>
<path d="M4115 1999 c-8 -26 16 -54 39 -46 18 7 22 52 4 63 -7 5 -8 3 -3 -6 4
-7 2 -16 -6 -21 -10 -6 -11 -9 -1 -9 6 0 12 -4 12 -10 0 -5 -7 -10 -16 -10
-12 0 -15 7 -12 30 5 34 -7 41 -17 9z"/>
<path d="M4190 1985 c0 -19 2 -35 4 -35 2 0 6 16 8 35 2 19 0 35 -4 35 -4 0
-8 -16 -8 -35z"/>
<path d="M4228 1990 c2 -16 6 -30 8 -30 2 0 4 14 4 30 0 17 -4 30 -8 30 -5 0
-7 -13 -4 -30z"/>
<path d="M4264 2004 c5 -10 11 -27 13 -36 8 -28 19 -21 30 17 6 19 7 33 2 29
-5 -3 -9 -12 -9 -20 0 -8 -4 -14 -10 -14 -5 0 -10 6 -10 14 0 8 -5 18 -12 22
-8 5 -9 2 -4 -12z"/>
<path d="M4333 1985 c0 -22 2 -30 4 -17 2 12 2 30 0 40 -3 9 -5 -1 -4 -23z"/>
<path d="M4360 1985 c0 -19 2 -35 4 -35 2 0 6 16 8 35 2 19 0 35 -4 35 -4 0
-8 -16 -8 -35z"/>
<path d="M4403 2004 c-7 -19 7 -46 28 -52 8 -2 5 3 -6 11 -17 14 -18 19 -7 36
7 13 8 21 2 21 -6 0 -13 -7 -17 -16z"/>
<path d="M4448 1990 c2 -16 6 -30 8 -30 2 0 4 14 4 30 0 17 -4 30 -8 30 -5 0
-7 -13 -4 -30z"/>
<path d="M4480 1985 c0 -19 2 -35 4 -35 2 0 6 16 8 35 2 19 0 35 -4 35 -4 0
-8 -16 -8 -35z"/>
<path d="M4520 1993 c0 -18 5 -33 10 -33 13 0 13 30 0 50 -7 11 -10 7 -10 -17z"/>
<path d="M4550 1988 c0 -36 4 -35 14 5 4 16 2 27 -4 27 -5 0 -10 -14 -10 -32z"/>
<path d="M4588 1988 c4 -28 6 -30 13 -13 12 30 10 45 -4 45 -10 0 -12 -10 -9
-32z"/>
<path d="M4625 2010 c3 -5 8 -10 11 -10 2 0 4 5 4 10 0 6 -5 10 -11 10 -5 0
-7 -4 -4 -10z"/>
<path d="M4663 2004 c-8 -22 10 -49 33 -49 14 0 20 8 22 33 2 17 -1 32 -7 32
-6 0 -8 -7 -5 -15 4 -9 0 -15 -7 -15 -11 0 -11 -2 1 -10 18 -11 7 -25 -14 -17
-12 5 -14 12 -6 32 6 16 6 25 -1 25 -5 0 -12 -7 -16 -16z"/>
<path d="M4740 1985 c0 -19 2 -35 4 -35 2 0 6 16 8 35 2 19 0 35 -4 35 -4 0
-8 -16 -8 -35z"/>
<path d="M4782 1990 c0 -19 2 -27 5 -17 2 9 2 25 0 35 -3 9 -5 1 -5 -18z"/>
<path d="M4893 1985 c6 -19 13 -35 17 -35 4 0 11 16 17 35 6 19 7 33 2 29 -5
-3 -9 -12 -9 -20 0 -8 -4 -14 -10 -14 -5 0 -10 6 -10 14 0 8 -4 17 -9 20 -5 4
-4 -10 2 -29z"/>
<path d="M4995 1990 c2 -40 15 -51 15 -12 0 17 -4 33 -8 36 -5 3 -8 -8 -7 -24z"/>
<path d="M5030 1985 c0 -19 2 -35 4 -35 2 0 6 16 8 35 2 19 0 35 -4 35 -4 0
-8 -16 -8 -35z"/>
<path d="M5073 1985 c0 -22 2 -30 4 -17 2 12 2 30 0 40 -3 9 -5 -1 -4 -23z"/>
<path d="M5140 1991 c0 -17 5 -31 10 -31 6 0 10 11 10 24 0 14 -4 28 -10 31
-6 4 -10 -7 -10 -24z"/>
<path d="M5218 1994 c3 -16 -1 -30 -9 -36 -12 -8 -11 -9 1 -5 16 4 27 67 12
67 -5 0 -7 -12 -4 -26z"/>
<path d="M5287 2013 c-4 -3 -7 -18 -6 -32 0 -14 3 -20 6 -13 2 6 16 12 29 12
24 0 33 23 14 35 -5 3 -10 -1 -10 -9 0 -9 -7 -16 -16 -16 -10 0 -14 6 -10 15
6 16 3 19 -7 8z"/>
<path d="M5350 2006 c0 -8 9 -18 20 -21 11 -3 20 -11 20 -16 0 -12 -27 -12
-33 1 -3 6 -4 5 -3 -2 4 -19 40 -16 44 4 2 9 -5 19 -18 23 -11 3 -18 11 -15
16 4 5 1 9 -4 9 -6 0 -11 -6 -11 -14z"/>
<path d="M3702 1973 c2 -9 10 -18 18 -20 13 -4 13 -3 0 6 -13 10 -13 12 0 21
13 8 12 10 -3 10 -12 0 -17 -6 -15 -17z"/>
<path d="M4955 1980 c-8 -13 3 -30 18 -30 7 0 6 4 -3 10 -13 9 -13 11 0 20 9
6 10 10 3 10 -6 0 -15 -4 -18 -10z"/>
<path d="M5102 1973 c2 -9 10 -18 18 -20 13 -4 13 -3 0 6 -13 10 -13 12 0 21
13 8 12 10 -3 10 -12 0 -17 -6 -15 -17z"/>
<path d="M4821 1964 c0 -11 3 -14 6 -6 3 7 2 16 -1 19 -3 4 -6 -2 -5 -13z"/>
<path d="M5310 1960 c-9 -6 -10 -10 -3 -10 6 0 15 5 18 10 8 12 4 12 -15 0z"/>
<path d="M9735 1930 c-9 -15 4 -30 23 -29 15 1 15 2 0 6 -28 7 -21 26 7 21 14
-3 25 -1 25 3 0 12 -47 11 -55 -1z"/>
<path d="M9813 1900 c0 -25 2 -35 4 -22 2 12 2 32 0 45 -2 12 -4 2 -4 -23z"/>
<path d="M10123 1900 c0 -25 2 -35 4 -22 2 12 2 32 0 45 -2 12 -4 2 -4 -23z"/>
<path d="M9849 1888 c4 -28 6 -29 9 -9 2 13 0 27 -5 32 -6 6 -7 -3 -4 -23z"/>
<path d="M9874 1905 c-9 -23 3 -45 26 -45 11 0 20 4 20 9 0 5 -10 7 -21 4 -19
-5 -21 -3 -17 20 6 29 1 36 -8 12z"/>
<path d="M9905 1910 c3 -5 8 -10 11 -10 2 0 4 5 4 10 0 6 -5 10 -11 10 -5 0
-7 -4 -4 -10z"/>
<path d="M9966 1903 c-6 -14 -5 -15 5 -6 7 7 10 15 7 18 -3 3 -9 -2 -12 -12z"/>
<path d="M10000 1907 c0 -9 -4 -17 -10 -17 -5 0 -10 -7 -10 -15 0 -8 4 -15 9
-15 10 0 25 50 16 58 -3 3 -5 -2 -5 -11z"/>
<path d="M10072 1913 c9 -2 19 -16 21 -31 4 -24 4 -24 6 6 1 27 -2 32 -21 31
-16 -1 -18 -3 -6 -6z"/>
<path d="M9780 1884 c0 -12 -7 -15 -25 -12 -13 3 -22 1 -19 -3 3 -5 16 -9 30
-9 17 0 24 5 24 20 0 11 -2 20 -5 20 -3 0 -5 -7 -5 -16z"/>
<path d="M9940 1888 c0 -9 5 -20 10 -23 13 -8 13 5 0 25 -8 13 -10 13 -10 -2z"/>
<path d="M10050 1875 c0 -8 8 -15 18 -14 10 0 12 3 4 6 -6 2 -10 9 -6 14 3 5
0 9 -5 9 -6 0 -11 -7 -11 -15z"/>
<path d="M1796 1502 c-3 -3 -5 -33 -5 -66 1 -45 3 -53 8 -31 5 23 13 31 36 36
l30 7 -32 1 c-26 1 -33 5 -33 21 0 16 7 20 37 20 20 0 33 3 29 7 -9 9 -63 13
-70 5z"/>
<path d="M1903 1503 c-9 -3 -13 -26 -13 -64 l0 -59 53 2 c50 1 50 2 10 5 -38
4 -43 7 -43 28 0 20 6 24 38 28 l37 4 -37 1 c-31 2 -38 6 -38 22 0 16 7 20 36
20 19 0 33 4 30 8 -6 10 -53 13 -73 5z"/>
<path d="M2116 1501 c-3 -5 3 -11 14 -14 15 -4 20 -16 23 -58 l3 -54 2 58 c2
50 4 57 23 57 11 0 18 4 15 8 -7 11 -73 14 -80 3z"/>
<path d="M2355 1502 c-3 -3 -4 -33 -3 -66 1 -35 3 -47 5 -28 6 42 37 44 61 2
9 -16 20 -30 25 -30 11 0 8 14 -8 37 -10 14 -12 24 -5 28 14 9 12 55 -2 57
-38 4 -68 4 -73 0z m70 -32 c0 -10 -12 -16 -32 -18 -28 -3 -33 0 -33 18 0 18
5 21 33 18 20 -2 32 -8 32 -18z"/>
<path d="M2477 1503 c-4 -3 -7 -33 -7 -65 l0 -58 53 2 c50 1 50 2 10 5 -38 4
-43 7 -43 28 0 20 6 24 38 28 l37 4 -37 1 c-31 2 -38 6 -38 22 0 16 7 20 35
20 19 0 35 5 35 10 0 11 -73 14 -83 3z"/>
<path d="M2611 1499 c-33 -13 -23 -41 22 -62 42 -19 47 -33 16 -42 -13 -4 -27
0 -40 11 -17 15 -19 16 -19 1 0 -19 39 -32 69 -22 14 4 21 15 21 30 0 19 -7
26 -32 33 -37 9 -52 42 -19 42 11 0 23 -4 26 -10 9 -15 25 -12 19 4 -7 19 -34
25 -63 15z"/>
<path d="M2767 1503 c-4 -3 -7 -33 -7 -65 l0 -58 34 0 c39 0 62 21 51 47 -5
10 -7 28 -6 40 2 17 -5 26 -24 33 -31 12 -39 12 -48 3z m56 -19 c12 -12 -6
-34 -29 -34 -17 0 -24 6 -24 20 0 14 7 20 23 20 13 0 26 -3 30 -6z m2 -69 c0
-14 -8 -21 -27 -23 -24 -3 -28 0 -28 23 0 23 4 26 28 23 19 -2 27 -9 27 -23z"/>
<path d="M2870 1503 c0 -7 9 -27 20 -45 11 -18 20 -44 21 -58 1 -22 2 -21 9 6
4 18 17 46 29 63 27 38 15 42 -14 5 l-21 -27 -22 34 c-12 19 -22 28 -22 22z"/>
<path d="M3155 1500 c-3 -5 1 -10 9 -10 13 0 16 -12 16 -55 0 -30 5 -55 10
-55 6 0 10 25 10 55 0 49 2 55 21 55 11 0 17 5 14 10 -3 6 -21 10 -40 10 -19
0 -37 -4 -40 -10z"/>
<path d="M3403 1503 c-16 -6 -18 -123 -3 -123 6 0 10 14 10 30 0 20 5 30 15
30 8 0 24 -13 37 -30 29 -40 44 -39 21 1 -13 24 -15 33 -5 36 22 8 13 43 -14
53 -27 11 -42 11 -61 3z m67 -33 c0 -16 -7 -20 -30 -20 -23 0 -30 4 -30 20 0
16 7 20 30 20 23 0 30 -4 30 -20z"/>
<path d="M3574 1501 c-2 -2 -4 -31 -4 -63 l0 -58 48 2 47 1 -42 4 c-38 4 -43
7 -43 28 0 20 6 24 38 28 l37 4 -37 1 c-31 2 -38 6 -38 22 0 16 7 20 36 20 20
0 33 4 29 10 -5 9 -62 10 -71 1z"/>
<path d="M3698 1491 c-18 -15 -20 -21 -10 -34 7 -8 26 -17 42 -21 18 -3 30
-12 30 -21 0 -24 -27 -29 -55 -11 -26 17 -34 9 -13 -12 18 -18 66 -15 76 6 14
26 5 40 -34 52 -19 6 -34 16 -34 21 0 17 32 23 52 10 16 -10 19 -10 16 0 -8
24 -46 29 -70 10z"/>
<path d="M2040 1497 c0 -1 -9 -27 -20 -57 -23 -63 -23 -60 -11 -60 5 0 11 9
14 20 3 13 14 20 30 20 17 0 28 -7 32 -20 3 -11 11 -20 17 -20 5 0 8 3 6 8 -2
4 -12 31 -23 60 -11 28 -25 52 -32 52 -7 0 -13 -1 -13 -3z m30 -54 c0 -7 -7
-13 -15 -13 -15 0 -21 31 -8 43 8 8 23 -12 23 -30z"/>
<path d="M2220 1466 c0 -58 16 -86 48 -86 15 0 33 5 40 12 14 14 16 108 2 108
-5 0 -10 -22 -10 -49 0 -54 -9 -66 -40 -56 -16 5 -20 15 -20 56 0 27 -4 49
-10 49 -5 0 -10 -15 -10 -34z"/>
<path d="M3044 1486 c-10 -26 2 -43 36 -49 23 -5 31 -12 28 -24 -4 -24 -32
-28 -52 -7 -20 20 -34 11 -16 -11 27 -32 101 -8 87 29 -3 8 -22 19 -41 26 -20
6 -36 16 -36 21 0 17 32 23 52 10 16 -10 19 -10 16 1 -7 20 -67 23 -74 4z"/>
<path d="M3266 1478 c-9 -12 -16 -29 -16 -38 0 -56 76 -81 106 -35 17 27 12
73 -9 87 -24 15 -66 8 -81 -14z m73 -2 c31 -37 -9 -103 -46 -80 -21 13 -27 36
-19 70 7 28 46 33 65 10z"/>
<path d="M3520 1440 c0 -33 4 -60 10 -60 6 0 10 27 10 60 0 33 -4 60 -10 60
-6 0 -10 -27 -10 -60z"/>
<path d="M7372 1348 l3 -62 38 -1 c22 0 41 3 44 8 2 4 -12 7 -31 7 -29 0 -36
4 -36 20 0 20 9 24 43 21 9 -1 17 3 17 8 0 6 -13 11 -30 11 -23 0 -30 5 -30
19 0 15 8 21 38 24 33 3 33 4 -11 5 l-48 2 3 -62z"/>
<path d="M7490 1407 c0 -4 7 -19 16 -32 15 -23 14 -26 -6 -55 -12 -16 -17 -30
-11 -30 5 0 17 10 26 23 l16 22 19 -25 c10 -14 21 -22 24 -19 4 3 -3 18 -15
32 l-20 27 21 30 c25 35 17 41 -10 8 l-18 -23 -21 25 c-11 14 -20 21 -21 17z"/>
<path d="M7602 1348 l3 -63 39 2 c51 3 60 13 13 13 -30 0 -37 4 -37 20 0 20 9
24 42 21 9 -1 19 3 23 9 4 6 -7 10 -29 10 -29 0 -36 4 -36 19 0 15 8 21 38 24
33 3 33 4 -11 5 l-48 2 3 -62z"/>
<path d="M7738 1399 c-21 -12 -25 -78 -6 -97 24 -24 88 -9 88 22 0 5 -8 2 -18
-7 -25 -23 -49 -21 -62 4 -27 49 21 99 61 63 20 -18 27 -6 7 14 -15 15 -47 15
-70 1z"/>
<path d="M7854 1355 l1 -60 40 0 40 0 1 60 c1 33 0 44 -3 25 -7 -65 -13 -80
-32 -80 -27 0 -39 19 -44 70 -3 33 -4 29 -3 -15z"/>
<path d="M7982 1403 c18 -5 25 -22 31 -83 3 -22 4 -15 5 22 2 50 5 57 25 61
12 2 0 4 -28 4 -27 1 -42 -1 -33 -4z"/>
<path d="M8086 1388 c-9 -12 -16 -29 -16 -38 0 -30 30 -60 60 -60 36 0 60 23
60 59 0 56 -73 83 -104 39z m72 0 c13 -13 16 -47 6 -72 -7 -19 -45 -21 -62 -4
-27 27 -8 88 28 88 9 0 21 -5 28 -12z"/>
<path d="M8210 1351 c0 -34 4 -61 10 -61 6 0 10 11 10 24 0 39 20 42 49 7 33
-39 50 -41 22 -2 -18 25 -19 30 -5 35 9 4 14 15 12 28 -3 20 -10 23 -50 26
l-48 3 0 -60z m83 35 c8 -19 -1 -26 -35 -26 -21 0 -28 5 -28 20 0 15 7 20 29
20 16 0 31 -6 34 -14z"/>
<path d="M8352 1401 c-23 -14 -9 -44 27 -56 19 -6 37 -17 39 -23 6 -18 -46
-26 -65 -11 -14 12 -16 12 -11 -1 3 -10 18 -15 44 -15 35 0 39 3 39 25 0 20
-7 27 -32 35 -22 6 -33 15 -33 27 0 22 38 25 46 3 4 -8 10 -12 16 -9 14 9 -12
34 -36 34 -11 0 -27 -4 -34 -9z"/>
<path d="M4157 1063 c-13 -12 -7 -23 18 -35 14 -6 25 -16 25 -21 0 -5 -11 -7
-25 -5 -14 3 -25 1 -25 -3 0 -5 14 -9 30 -9 38 0 41 26 5 42 -32 14 -32 32 0
26 13 -3 22 -1 19 3 -6 11 -38 12 -47 2z"/>
<path d="M4221 1035 c0 -34 2 -36 9 -17 13 30 28 28 33 -5 4 -26 4 -26 6 5 1
25 -3 32 -18 32 -11 0 -22 6 -24 13 -3 6 -5 -6 -6 -28z"/>
<path d="M4563 1030 c0 -25 2 -35 4 -22 2 12 2 32 0 45 -2 12 -4 2 -4 -23z"/>
<path d="M4290 1021 c0 -17 4 -31 9 -31 4 0 6 11 3 25 -3 19 0 25 13 25 13 0
16 -6 12 -26 -3 -16 -1 -22 5 -16 16 16 4 47 -20 50 -19 3 -22 -1 -22 -27z"/>
<path d="M4355 1025 c7 -33 12 -41 20 -33 3 3 -2 18 -11 34 l-16 29 7 -30z"/>
<path d="M4380 1035 c0 -8 5 -15 10 -15 6 0 10 7 10 15 0 8 -4 15 -10 15 -5 0
-10 -7 -10 -15z"/>
<path d="M4411 1024 c-6 -15 -9 -29 -7 -32 3 -2 10 8 16 23 14 36 7 43 -9 9z"/>
<path d="M4493 1043 c14 -4 18 -12 14 -29 -2 -13 0 -24 4 -24 5 0 9 14 9 30 0
25 -4 30 -22 29 -19 -1 -20 -2 -5 -6z"/>
<path d="M4470 1005 c0 -8 5 -15 11 -15 5 0 8 4 5 9 -4 5 0 12 6 14 8 3 6 6
-4 6 -10 1 -18 -6 -18 -14z"/>
<path d="M7423 995 c-43 -34 -54 -93 -24 -131 14 -18 21 -22 21 -11 0 8 -7 17
-15 21 -8 3 -14 16 -14 28 1 16 3 18 6 6 8 -31 33 -8 33 31 0 44 8 57 40 70
21 8 22 10 5 10 -11 1 -34 -10 -52 -24z"/>
<path d="M7500 1016 c0 -2 11 -6 25 -8 13 -3 22 -1 19 3 -5 9 -44 13 -44 5z"/>
<path d="M12500 986 c0 -7 -7 -19 -15 -26 -8 -7 -15 -17 -15 -23 0 -6 11 0 24
12 14 13 29 20 35 16 7 -3 11 2 11 14 0 14 -6 21 -20 21 -11 0 -20 -6 -20 -14z"/>
<path d="M7560 981 c0 -5 5 -13 10 -16 6 -3 10 -2 10 4 0 5 -4 13 -10 16 -5 3
-10 2 -10 -4z"/>
<path d="M12422 948 l3 -43 45 -1 45 -1 -43 4 -44 4 4 40 c2 21 0 39 -5 39 -4
0 -7 -19 -5 -42z"/>
<path d="M7688 948 c-2 -25 -8 -33 -22 -31 -12 1 -15 -2 -8 -9 20 -20 42 0 42
37 0 44 -8 46 -12 3z"/>
<path d="M7843 942 c0 -32 3 -39 10 -27 8 15 10 15 23 -2 14 -17 14 -16 4 5
-6 12 -8 27 -5 32 3 5 -1 7 -9 4 -8 -3 -16 2 -19 13 -3 10 -4 -1 -4 -25z"/>
<path d="M11733 940 c0 -25 2 -35 4 -22 2 12 2 32 0 45 -2 12 -4 2 -4 -23z"/>
<path d="M11952 942 c-2 -40 0 -43 21 -40 16 2 22 10 22 27 0 13 -6 25 -13 27
-7 1 -8 0 -2 -3 15 -7 12 -43 -4 -43 -10 0 -16 13 -19 38 l-4 37 -1 -43z"/>
<path d="M12330 969 c0 -5 5 -7 10 -4 6 3 10 8 10 11 0 2 -4 4 -10 4 -5 0 -10
-5 -10 -11z"/>
<path d="M12366 966 c3 -8 -3 -16 -16 -19 -28 -7 -23 -42 5 -42 16 0 20 7 22
38 1 20 -2 37 -7 37 -5 0 -7 -6 -4 -14z m4 -41 c0 -8 -7 -15 -15 -15 -8 0 -15
7 -15 15 0 8 7 15 15 15 8 0 15 -7 15 -15z"/>
<path d="M12040 960 c0 -5 5 -10 10 -10 6 0 10 5 10 10 0 6 -4 10 -10 10 -5 0
-10 -4 -10 -10z"/>
<path d="M12200 945 c0 -14 2 -25 4 -25 2 0 6 11 8 25 3 14 1 25 -3 25 -5 0
-9 -11 -9 -25z"/>
<path d="M7755 950 c6 -10 1 -12 -19 -8 -23 5 -27 2 -24 -16 2 -14 11 -21 26
-22 18 -1 19 -1 2 3 -26 6 -26 23 -1 23 24 0 36 16 20 26 -8 5 -9 3 -4 -6z"/>
<path d="M7782 930 c0 -19 2 -27 5 -17 2 9 2 25 0 35 -3 9 -5 1 -5 -18z"/>
<path d="M7818 930 c2 -16 6 -30 8 -30 2 0 4 14 4 30 0 17 -4 30 -8 30 -5 0
-7 -13 -4 -30z"/>
<path d="M7902 930 c0 -19 2 -27 5 -17 2 9 2 25 0 35 -3 9 -5 1 -5 -18z"/>
<path d="M7932 930 c0 -19 2 -27 5 -17 2 9 2 25 0 35 -3 9 -5 1 -5 -18z"/>
<path d="M7968 930 c2 -16 6 -30 8 -30 2 0 4 14 4 30 0 17 -4 30 -8 30 -5 0
-7 -13 -4 -30z"/>
<path d="M11490 945 c0 -8 7 -15 15 -15 21 0 19 -18 -2 -23 -16 -4 -16 -5 -1
-6 27 -2 32 19 9 40 -17 16 -21 17 -21 4z"/>
<path d="M11572 930 c0 -19 2 -27 5 -17 2 9 2 25 0 35 -3 9 -5 1 -5 -18z"/>
<path d="M11608 930 c2 -16 6 -30 8 -30 2 0 4 14 4 30 0 17 -4 30 -8 30 -5 0
-7 -13 -4 -30z"/>
<path d="M11670 918 c0 -24 4 -38 8 -32 4 6 15 13 25 17 17 6 25 57 8 57 -4 0
-6 -11 -3 -25 3 -19 0 -25 -13 -25 -13 0 -16 6 -13 25 3 14 1 25 -3 25 -5 0
-9 -19 -9 -42z"/>
<path d="M11762 935 c2 -20 9 -30 21 -31 12 -1 13 -1 2 3 -22 7 -18 23 5 23
11 0 20 4 20 10 0 5 -7 7 -16 3 -9 -3 -20 0 -25 8 -7 10 -9 5 -7 -16z"/>
<path d="M11860 918 c-3 -26 -1 -43 3 -39 5 5 7 26 5 47 l-3 39 -5 -47z"/>
<path d="M11882 933 c2 -16 10 -29 20 -31 22 -4 40 29 27 49 -8 12 -10 12 -8
-1 3 -30 -1 -40 -17 -40 -12 0 -15 7 -12 25 3 14 1 25 -4 25 -5 0 -8 -12 -6
-27z"/>
<path d="M12077 946 c-10 -25 3 -46 27 -45 20 0 19 1 -4 12 l-25 11 28 4 c15
2 27 7 27 12 0 5 -7 7 -16 3 -9 -3 -19 0 -24 6 -5 10 -9 9 -13 -3z"/>
<path d="M12140 952 c0 -5 10 -17 23 -26 l22 -17 -24 5 c-17 3 -21 2 -13 -6
12 -12 42 -4 42 12 0 5 -4 10 -9 10 -5 0 -17 7 -25 16 -9 8 -16 11 -16 6z"/>
<path d="M12264 940 c0 -11 6 -20 13 -20 7 0 13 -5 13 -10 0 -7 5 -6 13 1 23
22 15 49 -13 49 -19 0 -26 -5 -26 -20z m36 0 c0 -5 -4 -10 -10 -10 -5 0 -10 5
-10 10 0 6 5 10 10 10 6 0 10 -4 10 -10z"/>
<path d="M7995 940 c3 -6 13 -10 21 -10 20 0 18 -17 -3 -24 -14 -4 -14 -4 2
-3 27 3 25 28 -3 38 -15 6 -21 5 -17 -1z"/>
<path d="M7501 924 c0 -11 3 -14 6 -6 3 7 2 16 -1 19 -3 4 -6 -2 -5 -13z"/>
<path d="M11545 930 c-3 -5 -1 -10 4 -10 6 0 11 5 11 10 0 6 -2 10 -4 10 -3 0
-8 -4 -11 -10z"/>
<path d="M7556 897 c3 -10 9 -15 12 -12 3 3 0 11 -7 18 -10 9 -11 8 -5 -6z"/>
<path d="M7515 870 c-3 -5 0 -10 7 -10 9 0 9 -3 -2 -10 -13 -8 -12 -10 3 -10
9 0 17 7 17 16 0 9 5 12 12 8 7 -4 8 -3 4 4 -9 15 -33 16 -41 2z"/>
<path d="M7540 824 c-14 -8 -33 -11 -44 -8 -10 4 -22 0 -27 -7 -6 -11 -12 -10
-27 4 -18 17 -21 17 -51 0 -17 -10 -31 -26 -31 -35 0 -16 12 -18 114 -18 108
0 115 1 121 21 5 14 1 27 -11 39 -17 15 -22 15 -44 4z"/>
<path d="M565 119 c-4 -6 -5 -12 -2 -15 2 -3 7 2 10 11 7 17 1 20 -8 4z"/>
<path d="M675 119 c-4 -6 -5 -12 -2 -15 2 -3 7 2 10 11 7 17 1 20 -8 4z"/>
<path d="M282 90 c0 -19 2 -27 5 -17 2 9 2 25 0 35 -3 9 -5 1 -5 -18z"/>
<path d="M592 100 c0 -14 2 -19 5 -12 2 6 2 18 0 25 -3 6 -5 1 -5 -13z"/>
<path d="M1430 92 c0 -17 3 -33 8 -35 9 -6 8 50 -1 60 -4 3 -7 -8 -7 -25z"/>
<path d="M1792 90 c0 -19 2 -27 5 -17 2 9 2 25 0 35 -3 9 -5 1 -5 -18z"/>
<path d="M1812 90 c0 -19 2 -27 5 -17 2 9 2 25 0 35 -3 9 -5 1 -5 -18z"/>
<path d="M104 99 c-5 -8 -3 -9 6 -4 7 4 16 2 22 -6 8 -12 9 -12 6 0 -6 20 -24
25 -34 10z"/>
<path d="M215 103 c16 -13 17 -35 3 -45 -10 -7 -10 -9 2 -5 8 2 15 14 15 27 0
13 -7 25 -15 27 -9 3 -11 1 -5 -4z"/>
<path d="M346 102 c-2 -4 4 -8 14 -8 10 0 16 4 14 8 -3 4 -9 8 -14 8 -5 0 -11
-4 -14 -8z"/>
<path d="M395 101 c-3 -6 3 -14 12 -20 16 -9 16 -12 3 -21 -9 -6 -10 -10 -3
-10 21 0 27 23 9 36 -13 9 -14 13 -4 17 9 4 9 6 1 6 -6 1 -14 -3 -18 -8z"/>
<path d="M796 102 c-2 -4 4 -8 14 -8 10 0 16 4 14 8 -3 4 -9 8 -14 8 -5 0 -11
-4 -14 -8z"/>
<path d="M1048 83 c5 -21 7 -23 10 -9 2 10 0 22 -6 28 -6 6 -7 0 -4 -19z"/>
<path d="M1187 92 c-16 -18 -15 -18 16 -13 19 3 25 6 14 9 -9 2 -15 8 -12 13
10 15 -1 10 -18 -9z"/>
<path d="M1355 100 c-3 -6 1 -7 9 -4 18 7 21 14 7 14 -6 0 -13 -4 -16 -10z"/>
<path d="M1750 103 c5 -2 8 -9 4 -14 -3 -5 0 -9 6 -9 15 0 7 23 -8 26 -7 1 -8
0 -2 -3z"/>
<path d="M1082 80 c0 -14 2 -19 5 -12 2 6 2 18 0 25 -3 6 -5 1 -5 -13z"/>
<path d="M1670 91 c0 -5 -8 -11 -17 -13 -15 -3 -14 -5 5 -10 17 -5 22 -2 22
13 0 10 -2 19 -5 19 -3 0 -5 -4 -5 -9z"/>
<path d="M1892 80 c0 -14 2 -19 5 -12 2 6 2 18 0 25 -3 6 -5 1 -5 -13z"/>
<path d="M960 81 c13 -10 13 -12 0 -22 -13 -9 -13 -10 0 -6 8 2 15 10 15 17 0
7 -7 15 -15 17 -13 4 -13 3 0 -6z"/>
<path d="M1381 76 c-1 -13 -6 -16 -18 -11 -15 5 -16 4 -5 -6 15 -16 37 2 29
23 -4 8 -6 6 -6 -6z"/>
<path d="M1460 73 c0 -12 3 -14 8 -7 4 7 16 14 27 17 15 4 14 5 -7 6 -21 1
-28 -4 -28 -16z"/>
<path d="M1938 83 c6 -2 18 -2 25 0 6 3 1 5 -13 5 -14 0 -19 -2 -12 -5z"/>
<path d="M102 65 c15 -16 20 -17 30 -6 11 11 10 13 0 7 -7 -4 -21 -2 -30 5
-15 12 -15 11 0 -6z"/>
<path d="M342 65 c15 -16 20 -17 30 -6 11 11 10 13 0 7 -7 -4 -21 -2 -30 5
-15 12 -15 11 0 -6z"/>
<path d="M560 73 c0 -19 21 -27 33 -13 9 10 9 11 -2 5 -8 -4 -17 -2 -22 6 -6
9 -9 10 -9 2z"/>
<path d="M680 56 c7 -7 13 -7 20 0 6 6 3 10 -10 10 -13 0 -16 -4 -10 -10z"/>
<path d="M800 56 c7 -7 13 -7 20 0 6 6 3 10 -10 10 -13 0 -16 -4 -10 -10z"/>
<path d="M1120 56 c7 -7 13 -7 20 0 6 6 3 10 -10 10 -13 0 -16 -4 -10 -10z"/>
<path d="M1197 59 c7 -7 15 -10 18 -7 3 3 -2 9 -12 12 -14 6 -15 5 -6 -5z"/>
<path d="M1300 56 c7 -7 13 -7 20 0 6 6 3 10 -10 10 -13 0 -16 -4 -10 -10z"/>
<path d="M1750 60 c-9 -6 -10 -10 -3 -10 6 0 15 5 18 10 8 12 4 12 -15 0z"/>
<path d="M1937 59 c7 -7 15 -10 18 -7 3 3 -2 9 -12 12 -14 6 -15 5 -6 -5z"/>
</g>
</svg>
