<?xml version="1.0" standalone="no"?>
<!DOCTYPE svg PUBLIC "-//W3C//DTD SVG 20010904//EN"
 "http://www.w3.org/TR/2001/REC-SVG-20010904/DTD/svg10.dtd">
<svg version="1.0" xmlns="http://www.w3.org/2000/svg"
 width="1280.000000pt" height="296.000000pt" viewBox="0 0 1280.000000 296.000000"
 preserveAspectRatio="xMidYMid meet">

<g transform="translate(0.000000,296.000000) scale(0.100000,-0.100000)"
fill="#000000" stroke="none">
<path d="M0 1480 l0 -1480 6400 0 6400 0 0 1480 0 1480 -6400 0 -6400 0 0
-1480z m518 1385 c25 -74 24 -71 12 -53 -15 24 -43 105 -32 93 5 -6 14 -23 20
-40z m501 -20 c13 -33 19 -56 15 -52 -9 9 -44 97 -44 111 0 16 7 3 29 -59z
m4297 28 c-18 -33 -21 -26 -6 13 6 15 13 24 16 21 3 -3 -1 -18 -10 -34z
m-5182 10 c4 -9 2 -21 -3 -26 -6 -6 -9 -2 -8 9 1 10 -6 20 -15 22 -13 2 -18
-3 -18 -17 0 -12 6 -21 13 -21 8 0 9 -3 1 -8 -6 -4 -14 -14 -17 -22 -3 -8 -6
6 -6 33 -1 43 1 47 23 47 13 0 27 -8 30 -17z m76 8 c0 -5 -9 -7 -20 -4 -28 7
-25 -7 8 -33 25 -21 26 -24 10 -38 -10 -9 -13 -11 -8 -4 15 18 12 26 -9 33
-21 6 -34 31 -25 46 7 12 44 12 44 0z m164 0 c4 -5 -3 -7 -14 -4 -17 5 -20 0
-20 -29 0 -41 8 -52 27 -37 8 7 13 8 13 1 0 -12 -21 -21 -37 -15 -13 5 -18 74
-6 86 9 10 31 9 37 -2z m249 -72 c-4 -4 -6 13 -3 39 l5 47 3 -39 c2 -21 0 -42
-5 -47z m475 34 c-1 -48 -1 -48 -5 -8 -3 22 -10 43 -16 47 -8 5 -6 8 6 8 14 0
17 -8 15 -47z m349 -20 c-2 -16 -4 -5 -4 22 0 28 2 40 4 28 2 -13 2 -35 0 -50z
m82 -38 c0 -15 -38 78 -38 95 0 8 9 -7 19 -35 11 -27 20 -54 19 -60z m76 55
c0 -32 -4 -50 -12 -50 -8 0 -10 14 -8 42 3 26 -1 45 -8 50 -8 5 -5 8 8 8 17 0
20 -7 20 -50z m95 -2 c0 -48 -14 -63 -15 -15 0 12 -4 22 -10 22 -5 0 -10 -10
-10 -22 1 -13 -3 -23 -8 -23 -4 0 -7 15 -5 33 2 23 8 32 21 31 9 -1 17 4 17
12 0 8 2 14 5 14 3 0 5 -23 5 -52z m248 25 c2 -13 -1 -23 -6 -23 -6 0 -8 9 -5
20 6 22 -15 28 -33 10 -7 -7 -11 -6 -11 5 0 27 51 15 55 -12z m1540 -20 c-1
-48 -1 -48 -5 -8 -3 22 -10 43 -16 47 -8 5 -6 8 6 8 14 0 17 -8 15 -47z m2172
2 c0 -25 -4 -45 -9 -45 -4 0 -6 11 -4 24 6 27 -15 45 -28 25 -5 -8 -6 -23 -3
-34 4 -18 4 -18 -6 -3 -14 23 5 62 26 54 8 -3 14 1 14 9 0 8 2 15 5 15 3 0 5
-20 5 -45z m50 35 c0 -5 -7 -7 -15 -4 -8 4 -15 8 -15 10 0 2 7 4 15 4 8 0 15
-4 15 -10z m1173 3 c-7 -2 -14 -23 -15 -46 l-1 -42 -4 40 c-3 22 -10 43 -16
47 -7 4 1 7 18 7 17 0 24 -3 18 -6z m-6306 -50 c-3 -10 -5 -2 -5 17 0 19 2 27
5 18 2 -10 2 -26 0 -35z m670 2 c-1 -19 -4 -35 -9 -35 -4 0 -7 18 -5 39 3 48
15 45 14 -4z m1179 23 c-21 -12 -20 -44 2 -57 9 -6 12 -11 6 -11 -17 0 -32 22
-34 50 -3 37 -2 39 21 33 18 -5 19 -7 5 -15z m221 -40 c-2 -13 -4 -3 -4 22 0
25 2 35 4 23 2 -13 2 -33 0 -45z m1429 40 c-21 -12 -20 -44 2 -57 9 -6 12 -11
6 -11 -17 0 -32 22 -34 50 -3 37 -2 39 21 33 18 -5 19 -7 5 -15z m250 0 c-19
-11 -21 -39 -3 -57 10 -10 9 -11 -5 -6 -12 5 -18 18 -18 36 0 16 -5 29 -12 29
-10 0 -9 3 1 9 7 5 22 6 33 3 18 -4 18 -6 4 -14z m662 4 c-12 -2 -19 -14 -20
-35 l-1 -32 -4 33 c-2 17 -10 32 -16 32 -8 0 -7 3 2 9 7 5 23 6 35 3 18 -5 18
-7 4 -10z m1320 0 c-12 -2 -19 -14 -20 -35 l-1 -32 -4 33 c-2 17 -10 32 -16
32 -8 0 -7 3 2 9 7 5 23 6 35 3 18 -5 18 -7 4 -10z m244 -1 c-6 -3 -12 -20
-15 -36 l-4 -30 -2 33 c0 18 -6 32 -13 32 -9 0 -9 3 1 9 8 5 21 7 28 4 9 -4
11 -8 5 -12z m581 0 c-19 -12 -22 -41 -7 -56 9 -8 11 -15 5 -15 -13 0 -32 35
-24 43 3 4 1 13 -6 21 -9 11 -9 15 1 19 17 5 42 -4 31 -12z m-6450 2 c-19 -7
-16 -21 7 -28 23 -7 27 -30 7 -38 -8 -3 -20 -1 -28 5 -11 8 -11 9 3 4 10 -3
20 -1 24 5 3 6 -3 13 -15 16 -29 8 -27 44 3 42 6 0 5 -3 -1 -6z m105 -19 c4
-18 3 -18 -11 1 -15 19 -16 19 -23 1 -4 -10 -2 -27 4 -37 10 -15 9 -17 -3 -13
-18 7 -20 60 -2 67 19 8 32 2 35 -19z m92 4 c0 -6 -6 -5 -15 2 -8 7 -15 14
-15 16 0 2 7 1 15 -2 8 -4 15 -11 15 -16z m65 12 c4 -6 -1 -7 -11 -3 -13 5
-16 3 -11 -10 3 -9 2 -17 -3 -17 -6 0 -10 6 -10 13 0 25 23 36 35 17z m249 1
c3 -5 -2 -8 -12 -7 -11 1 -16 -5 -14 -16 1 -9 -2 -19 -8 -23 -6 -4 -10 4 -10
19 0 29 31 48 44 27z m96 -31 c0 -10 -7 -24 -17 -31 -15 -13 -15 -12 -2 9 12
19 12 25 0 45 -13 20 -13 21 2 8 10 -7 17 -21 17 -31z m64 34 c9 -3 16 -14 16
-23 -1 -14 -2 -14 -11 2 -15 26 -31 20 -27 -10 2 -22 8 -27 23 -25 15 2 17 1
6 -7 -22 -14 -41 -2 -41 28 0 38 7 45 34 35z m64 -14 c-10 -16 -10 -24 0 -41
11 -18 11 -20 0 -17 -24 8 -23 78 2 78 6 0 5 -7 -2 -20z m362 -8 c0 -8 -1 -13
-3 -11 -1 2 -9 12 -16 22 -12 15 -12 17 3 11 9 -3 16 -13 16 -22z m248 8 c5
-13 3 -13 -11 -1 -18 14 -20 12 -30 -34 -3 -11 -5 -4 -6 16 -1 31 2 36 21 35
12 0 24 -8 26 -16z m82 -20 c0 -16 -6 -30 -12 -33 -24 -8 -38 5 -38 33 0 16 6
30 13 33 23 8 37 -5 37 -33z m70 30 c0 -5 -7 -7 -15 -4 -8 4 -15 8 -15 10 0 2
7 4 15 4 8 0 15 -4 15 -10z m88 -2 c15 -15 16 -28 2 -28 -5 0 -9 5 -7 11 1 6
-4 14 -10 16 -9 3 -13 -6 -13 -27 0 -25 3 -31 16 -26 8 3 12 2 9 -4 -19 -30
-52 18 -35 50 12 23 21 25 38 8z m82 1 c12 -8 10 -9 -7 -4 -19 5 -23 2 -23
-18 0 -30 10 -40 27 -26 8 7 13 8 13 1 0 -12 -21 -21 -37 -15 -14 5 -18 55 -6
66 9 9 15 9 33 -4z m145 -3 c-18 -13 -18 -14 3 -20 23 -8 29 -30 11 -42 -6 -3
-16 -1 -22 5 -9 9 -8 11 6 6 24 -10 22 12 -4 25 -16 9 -18 14 -8 26 6 8 16 14
22 14 6 0 2 -6 -8 -14z m193 -24 c2 -18 -1 -32 -6 -32 -6 0 -8 9 -5 20 3 11
-1 28 -8 37 -12 14 -12 16 1 11 8 -2 16 -19 18 -36z m62 10 c0 -15 5 -33 12
-40 9 -9 5 -12 -17 -11 -17 0 -24 3 -17 6 6 2 12 17 12 33 0 16 -6 31 -12 33
-8 3 -6 6 5 6 12 1 17 -7 17 -27z m96 -8 l2 -29 -5 28 c-6 35 -26 30 -34 -9
l-7 -29 -1 32 c-1 30 12 44 34 39 6 -1 11 -16 11 -32z m82 24 c14 -14 16 -58
3 -58 -4 0 -8 12 -7 28 1 20 -4 27 -16 26 -10 -1 -15 2 -12 7 7 12 18 11 32
-3z m91 -32 c-2 -27 -2 -28 -6 -6 -3 14 -10 31 -15 38 -8 9 -7 11 6 6 10 -4
16 -17 15 -38z m71 33 c12 -8 11 -9 -5 -7 -15 2 -20 -3 -20 -22 0 -19 5 -24
20 -22 15 2 17 1 6 -7 -22 -14 -41 -2 -41 28 0 40 12 49 40 30z m63 -1 c-11
-18 -10 -40 2 -58 9 -13 8 -13 -7 -1 -21 16 -24 57 -5 64 18 8 19 8 10 -5z
m168 3 c-7 -5 -10 -14 -7 -20 4 -6 2 -11 -3 -11 -12 0 -15 23 -4 33 3 4 11 7
17 7 6 0 5 -4 -3 -9z m107 -17 c4 -18 3 -18 -11 1 -14 19 -16 19 -22 3 -11
-27 1 -49 22 -42 14 5 15 4 4 -4 -22 -16 -41 -3 -41 28 0 41 41 53 48 14z
m160 14 c15 -15 16 -28 2 -28 -5 0 -9 6 -7 13 1 6 -5 12 -13 12 -9 0 -14 -10
-14 -25 0 -18 5 -25 18 -23 13 1 15 -2 7 -10 -13 -13 -41 8 -41 32 0 17 18 41
30 41 3 0 11 -5 18 -12z m49 -40 c-2 -13 -4 -5 -4 17 -1 22 1 32 4 23 2 -10 2
-28 0 -40z m40 11 c1 -24 0 -26 -4 -9 -3 14 -10 31 -16 39 -10 11 -9 13 3 9 9
-3 16 -18 17 -39z m63 13 c0 -15 5 -33 12 -40 9 -9 5 -12 -17 -11 -17 0 -24 3
-17 6 6 2 12 17 12 33 0 16 -6 31 -12 33 -8 3 -6 6 5 6 12 1 17 -7 17 -27z
m137 -24 c-2 -13 -4 -5 -4 17 -1 22 1 32 4 23 2 -10 2 -28 0 -40z m51 6 c-3
-27 -4 -26 -9 8 -3 22 -1 34 4 29 5 -5 7 -21 5 -37z m238 22 c2 -12 1 -13 -3
-1 -2 8 -9 15 -14 15 -16 0 -23 -32 -11 -51 10 -15 9 -17 -3 -13 -18 7 -20 60
-2 67 19 8 32 2 33 -17z m79 14 c3 -6 -1 -7 -9 -4 -21 8 -20 -6 2 -22 15 -12
15 -12 -5 -7 -22 5 -30 23 -16 36 9 10 21 9 28 -3z m253 -28 c2 -18 -1 -32 -6
-32 -6 0 -8 9 -5 20 3 11 -1 28 -8 37 -12 14 -12 16 1 11 8 -2 16 -19 18 -36z
m49 16 c-3 -8 -6 -5 -6 6 -1 11 2 17 5 13 3 -3 4 -12 1 -19z m34 5 c13 -16 12
-17 -3 -4 -17 13 -22 21 -14 21 2 0 10 -8 17 -17z m77 5 c14 -14 16 -44 3 -52
-4 -3 -6 5 -4 18 6 27 -15 45 -28 25 -5 -8 -9 -9 -9 -3 0 24 20 30 38 12z m80
-30 l-1 -43 -4 37 c-3 24 -10 38 -21 41 -12 3 -11 5 6 6 20 1 22 -3 20 -41z
m60 22 c-10 -16 -10 -24 -1 -40 11 -16 10 -18 -2 -14 -28 11 -18 64 13 73 1 1
-3 -8 -10 -19z m107 10 c3 -6 -1 -7 -9 -4 -11 4 -19 -2 -25 -17 -6 -14 -10
-18 -10 -8 -2 28 31 50 44 29z m175 -21 c0 -4 -5 -11 -10 -14 -6 -4 -9 -2 -8
4 2 5 -6 17 -17 25 -19 16 -19 16 8 5 15 -7 27 -16 27 -20z m303 24 c-18 -7
-16 -53 1 -53 9 0 16 13 19 33 3 22 4 15 5 -20 2 -49 0 -53 -20 -52 -17 1 -19
2 -5 6 23 6 22 19 -3 26 -30 8 -27 68 4 66 6 0 5 -3 -1 -6z m181 -1 c2 -4 -4
-8 -14 -8 -10 0 -16 4 -14 8 3 4 9 8 14 8 5 0 11 -4 14 -8z m252 -16 c2 -13 1
-14 -3 -1 -7 24 -28 12 -28 -16 0 -18 5 -23 20 -21 16 3 17 1 8 -9 -17 -17
-43 5 -43 36 0 36 43 46 46 11z m556 12 c-5 -7 -12 -24 -15 -38 -4 -22 -4 -21
-6 7 -1 26 6 38 28 42 2 1 -1 -5 -7 -11z m104 0 c4 -7 3 -8 -4 -4 -7 4 -17 4
-23 0 -8 -4 -7 -9 2 -15 10 -6 10 -9 2 -9 -19 0 -27 21 -12 31 19 12 26 11 35
-3z m229 -49 c6 0 13 15 16 33 l6 33 2 -30 c1 -35 -14 -56 -35 -48 -9 3 -14
19 -13 42 l2 36 6 -33 c3 -18 11 -33 16 -33z m85 51 c0 -5 -2 -10 -4 -10 -3 0
-8 5 -11 10 -3 6 -1 10 4 10 6 0 11 -4 11 -10z m178 -2 c15 -15 16 -28 2 -28
-5 0 -9 5 -7 11 1 6 -4 14 -10 16 -9 3 -13 -6 -13 -29 -1 -27 -2 -30 -11 -16
-7 12 -6 24 1 38 12 23 21 25 38 8z m88 1 c4 -8 0 -9 -15 -4 -12 3 -21 2 -21
-4 0 -5 9 -13 20 -16 23 -7 27 -30 7 -38 -8 -3 -20 -1 -28 5 -11 8 -11 9 3 4
10 -3 20 -1 24 5 3 6 -3 13 -15 16 -21 5 -28 23 -14 36 10 11 31 8 39 -4z
m145 2 c-7 -5 -10 -14 -7 -20 4 -6 2 -11 -3 -11 -12 0 -15 23 -4 33 3 4 11 7
17 7 6 0 5 -4 -3 -9z m-6361 -11 c0 -5 -4 -10 -10 -10 -5 0 -10 5 -10 10 0 6
5 10 10 10 6 0 10 -4 10 -10z m925 -42 c16 2 17 1 6 -7 -23 -15 -41 -1 -40 33
l1 31 7 -30 c5 -22 12 -29 26 -27z m92 5 c-3 -10 -5 -2 -5 17 0 19 2 27 5 18
2 -10 2 -26 0 -35z m737 -3 c5 -17 4 -20 -2 -10 -5 8 -13 26 -16 40 -5 17 -4
20 2 10 5 -8 13 -26 16 -40z m383 3 c-3 -10 -5 -2 -5 17 0 19 2 27 5 18 2 -10
2 -26 0 -35z m200 25 c-3 -8 -6 -5 -6 6 -1 11 2 17 5 13 3 -3 4 -12 1 -19z
m625 -7 c2 -17 1 -28 -4 -25 -8 5 -12 54 -4 54 2 0 6 -13 8 -29z m660 -15 c1
-20 -2 -39 -5 -43 -4 -3 -7 15 -7 42 0 55 10 56 12 1z m365 22 c-3 -8 -6 -5
-6 6 -1 11 2 17 5 13 3 -3 4 -12 1 -19z m625 -8 c-2 -16 -6 -30 -8 -30 -2 0
-4 14 -4 30 0 17 4 30 8 30 5 0 7 -13 4 -30z m438 15 c0 -8 -2 -15 -4 -15 -2
0 -6 7 -10 15 -3 8 -1 15 4 15 6 0 10 -7 10 -15z m510 0 c0 -8 -4 -15 -10 -15
-5 0 -7 7 -4 15 4 8 8 15 10 15 2 0 4 -7 4 -15z m-4485 -5 c3 -5 2 -10 -4 -10
-5 0 -12 -8 -14 -17 -3 -11 -5 -7 -6 10 -1 27 12 36 24 17z m1925 -15 c0 -14
-4 -25 -9 -25 -4 0 -6 11 -3 25 2 14 6 25 8 25 2 0 4 -11 4 -25z m2029 -20 l0
-20 -9 20 c-5 11 -9 27 -9 35 -1 13 0 13 9 0 5 -8 9 -24 9 -35z m-289 25 c0
-5 -4 -10 -10 -10 -5 0 -10 5 -10 10 0 6 5 10 10 10 6 0 10 -4 10 -10z m-4753
-22 c-3 -8 -6 -5 -6 6 -1 11 2 17 5 13 3 -3 4 -12 1 -19z m133 8 c0 -18 -30
-30 -43 -17 -6 6 -2 9 9 8 11 -1 18 4 17 11 -2 6 2 12 7 12 6 0 10 -6 10 -14z
m869 -9 c12 -15 12 -17 -3 -11 -9 3 -16 13 -16 22 0 8 1 13 3 11 1 -2 9 -12
16 -22z m1073 16 c-10 -4 -10 -8 -1 -19 10 -12 9 -13 -5 -8 -21 8 -21 34 2 33
11 0 12 -2 4 -6z m448 -7 c0 -18 -23 -27 -41 -15 -11 8 -9 9 6 7 12 -2 19 2
18 10 -2 6 2 12 7 12 6 0 10 -6 10 -14z m1197 -8 c-3 -8 -6 -5 -6 6 -1 11 2
17 5 13 3 -3 4 -12 1 -19z m83 2 c6 -11 8 -20 6 -20 -3 0 -10 9 -16 20 -6 11
-8 20 -6 20 3 0 10 -9 16 -20z m661 -11 c-5 -13 -10 -19 -10 -12 -1 15 10 45
15 40 3 -2 0 -15 -5 -28z m246 24 c-4 -3 -2 -12 5 -20 8 -11 7 -12 -6 -7 -18
7 -22 34 -4 34 6 0 8 -3 5 -7z m934 -26 c-8 -8 -14 -8 -23 2 -11 10 -10 11 5
6 12 -5 17 -2 18 11 0 12 2 14 6 6 3 -8 0 -19 -6 -25z m740 0 c-8 -8 -14 -8
-23 2 -11 10 -10 11 5 6 12 -5 17 -2 18 11 0 12 2 14 6 6 3 -8 0 -19 -6 -25z
m-1476 -6 c-6 -5 -25 10 -25 20 0 5 6 4 14 -3 8 -7 12 -15 11 -17z m162 7 c-3
-8 -6 -5 -6 6 -1 11 2 17 5 13 3 -3 4 -12 1 -19z m907 7 c4 -11 -2 -15 -21
-15 -26 0 -26 1 -7 15 10 8 20 15 20 15 1 0 4 -7 8 -15z m-404 1 c0 -2 -7 -7
-16 -10 -8 -3 -12 -2 -9 4 6 10 25 14 25 6z m-4225 -26 c-3 -5 -14 -10 -23 -9
-14 0 -13 2 3 9 27 11 27 11 20 0z m1078 3 c-7 -2 -19 -2 -25 0 -7 3 -2 5 12
5 14 0 19 -2 13 -5z m1160 0 c-7 -2 -21 -2 -30 0 -10 3 -4 5 12 5 17 0 24 -2
18 -5z m314 -9 c-3 -3 -12 -4 -19 -1 -8 3 -5 6 6 6 11 1 17 -2 13 -5z m-3534
-102 c-6 -4 -14 -34 -16 -67 l-3 -60 -2 68 c-2 58 0 67 16 67 11 0 13 -3 5 -8z
m737 -57 c0 -36 -3 -65 -7 -65 -5 0 -8 29 -8 65 0 36 3 65 8 65 4 0 7 -29 7
-65z m-1815 45 c3 -5 -1 -10 -10 -10 -9 0 -13 5 -10 10 3 6 8 10 10 10 2 0 7
-4 10 -10z m95 -5 c10 -12 10 -21 0 -45 -14 -35 -36 -53 -26 -22 4 13 1 22 -9
26 -15 5 -21 37 -8 49 11 11 30 8 43 -8z m166 6 c-3 -5 -15 -7 -26 -4 -28 7
-25 13 6 13 14 0 23 -4 20 -9z m234 -35 c0 -26 5 -46 13 -49 6 -3 -1 -5 -18
-5 -16 0 -24 2 -17 5 15 6 16 73 1 73 -5 0 -7 5 -4 10 14 23 25 7 25 -34z m75
25 c-3 -12 0 -21 10 -25 20 -7 19 -45 -1 -53 -8 -3 -22 1 -30 9 -13 13 -13 19
2 51 19 40 29 49 19 18z m165 -11 c-6 -12 -14 -20 -17 -17 -2 3 1 14 8 26 17
26 24 19 9 -9z m100 15 c11 -13 9 -21 -8 -45 l-22 -29 23 -4 c15 -3 11 -5 -12
-6 l-33 -1 26 35 c27 35 27 61 -1 51 -8 -3 -11 -1 -8 4 9 14 21 12 35 -5z m87
-33 c1 -47 -16 -64 -42 -42 -10 9 -12 17 -5 30 5 9 7 20 3 23 -11 12 7 38 24
35 14 -2 18 -14 20 -46z m246 41 c-7 -2 -14 -23 -15 -46 -1 -41 -1 -41 -5 -7
-2 19 -11 41 -20 48 -14 10 -12 12 18 11 19 0 28 -3 22 -6z m44 -60 c-2 -16
-4 -5 -4 22 0 28 2 40 4 28 2 -13 2 -35 0 -50z m373 18 c0 -44 -2 -48 -22 -47
-18 1 -24 8 -26 34 -3 27 0 32 17 32 12 0 21 7 21 15 0 8 2 15 5 15 3 0 5 -22
5 -49z m142 32 c-7 -12 -5 -21 7 -32 9 -9 12 -13 7 -8 -19 14 -36 7 -36 -14 0
-17 5 -20 21 -16 16 4 19 3 11 -5 -16 -16 -42 -2 -42 22 0 11 7 32 16 45 18
28 30 34 16 8z m261 10 c-7 -2 -13 -22 -13 -43 0 -21 6 -41 13 -43 6 -3 -1 -5
-18 -5 -16 0 -24 2 -17 5 6 2 12 22 12 43 0 21 -6 41 -12 43 -7 3 1 5 17 5 17
0 24 -2 18 -5z m62 -23 c4 -17 11 -28 16 -24 5 3 9 -6 9 -20 0 -35 -9 -33 -23
7 l-11 32 -7 -30 c-6 -26 -7 -23 -8 18 -1 52 14 63 24 17z m96 21 c-33 -9 -38
-29 -9 -40 16 -7 18 -10 6 -10 -9 -1 -22 -9 -27 -18 -8 -14 -10 -7 -8 30 2 45
3 47 32 46 28 -1 28 -1 6 -8z m94 -41 c0 -38 -3 -45 -20 -45 -15 0 -21 8 -23
33 -4 45 4 64 25 60 14 -3 18 -13 18 -48z m665 0 c0 -44 -3 -50 -20 -50 -12 0
-24 9 -29 23 -11 28 -3 47 18 46 10 0 11 -2 4 -6 -19 -7 -16 -53 2 -53 11 0
15 12 15 45 0 25 2 45 5 45 3 0 5 -22 5 -50z m138 -38 c7 -2 12 6 12 21 0 14
-6 28 -12 30 -8 3 -5 6 5 6 15 1 18 -5 15 -31 -2 -26 -8 -33 -25 -34 -21 -1
-23 3 -21 50 l1 51 6 -44 c3 -25 12 -46 19 -49z m662 44 c0 -27 5 -46 13 -49
7 -2 6 -3 -3 -3 -10 1 -16 14 -18 41 -2 22 -9 43 -15 47 -8 5 -6 8 6 8 14 0
17 -9 17 -44z m600 -5 c0 -44 -2 -48 -22 -47 -32 1 -39 55 -9 63 12 3 21 12
21 19 0 8 2 14 5 14 3 0 5 -22 5 -49z m990 -2 c0 -47 -2 -50 -22 -47 -18 2
-24 11 -26 36 -3 26 0 32 15 31 10 0 13 -3 6 -6 -19 -7 -16 -53 2 -53 11 0 15
12 15 45 0 25 2 45 5 45 3 0 5 -23 5 -51z m239 37 c17 -20 10 -67 -12 -80 -13
-8 -20 -8 -27 4 -5 8 -7 17 -4 19 3 3 9 -1 14 -9 7 -11 12 -12 20 -4 16 16 8
69 -10 69 -8 0 -14 -7 -12 -17 1 -9 -1 -19 -5 -21 -5 -3 -8 8 -8 24 -1 32 23
40 44 15z m641 -30 c0 -27 5 -46 13 -49 7 -2 6 -3 -3 -3 -10 1 -16 14 -18 41
-2 22 -9 43 -15 47 -8 5 -6 8 6 8 14 0 17 -9 17 -44z m274 28 c3 -8 2 -23 -3
-32 -4 -9 -6 -24 -4 -32 3 -10 0 -9 -7 3 -6 9 -15 17 -20 17 -5 0 -11 -8 -13
-17 -3 -10 -5 3 -6 30 -1 43 1 47 23 47 13 0 27 -7 30 -16z m964 9 c-22 -5
-24 -43 -3 -43 7 0 19 8 25 18 10 15 11 15 4 -3 -3 -11 -6 -29 -6 -40 1 -18 0
-18 -9 -2 -6 9 -14 17 -19 17 -5 0 -11 -8 -13 -17 -3 -10 -5 3 -6 30 -1 43 1
47 22 46 16 -1 18 -2 5 -6z m412 -37 c0 -27 5 -46 13 -49 7 -2 6 -3 -3 -3 -10
1 -16 14 -18 41 -2 22 -9 43 -15 47 -8 5 -6 8 6 8 14 0 17 -9 17 -44z m1098
-4 c2 -32 -1 -44 -14 -49 -21 -8 -45 22 -36 45 5 13 8 10 10 -10 5 -46 32 -35
32 12 0 29 -4 40 -15 40 -8 0 -15 -5 -15 -12 0 -6 -3 -9 -6 -5 -10 10 7 28 24
25 12 -2 18 -16 20 -46z m-8601 26 c-2 -7 3 -18 12 -25 14 -10 13 -11 -6 -6
-19 4 -23 1 -23 -16 0 -12 6 -21 15 -21 8 0 15 5 15 10 0 6 5 10 12 10 8 0 6
-6 -4 -16 -34 -35 -63 9 -38 57 12 21 24 26 17 7z m3733 -34 c0 -41 -2 -45
-22 -42 -18 2 -23 10 -23 32 0 18 6 31 15 33 12 4 12 3 2 -5 -16 -11 -12 -44
6 -50 8 -2 12 9 12 37 0 23 2 41 5 41 3 0 5 -21 5 -46z m2024 4 c1 -22 6 -33
16 -33 19 0 26 35 8 47 -10 8 -10 9 2 5 21 -5 24 -41 6 -56 -27 -23 -46 -6
-46 40 0 49 13 46 14 -3z m759 1 c-4 -21 -1 -34 8 -41 12 -8 12 -9 -1 -6 -15
5 -33 66 -24 80 11 18 23 -5 17 -33z m-6836 -11 c-3 -7 -5 -2 -5 12 0 14 2 19
5 13 2 -7 2 -19 0 -25z m261 -12 c-3 -21 -48 -37 -48 -17 0 6 6 8 14 5 21 -8
32 17 13 31 -9 7 -14 15 -10 18 11 12 34 -16 31 -37z m988 3 c2 -31 1 -31 -3
-4 -3 16 -10 34 -16 38 -8 6 -7 7 3 4 9 -2 16 -17 16 -38z m84 32 c0 -5 -9 -7
-19 -4 -16 4 -20 -1 -24 -29 l-4 -33 -1 38 c-2 33 0 37 23 37 14 0 25 -4 25
-9z m80 -10 c0 -12 -9 -20 -25 -23 -19 -4 -25 -1 -25 12 0 22 9 30 32 30 11 0
18 -7 18 -19z m88 -13 c2 -20 -2 -28 -18 -33 -24 -8 -46 7 -36 24 4 6 16 11
27 11 26 0 24 18 -3 23 -20 5 -20 5 2 4 19 -2 26 -8 28 -29z m880 25 c-10 -2
-18 -14 -19 -26 0 -12 -3 -16 -6 -9 -8 20 5 42 24 41 17 -1 17 -2 1 -6z m109
-9 c8 -20 -8 -48 -30 -52 -18 -4 -34 39 -22 57 10 17 45 13 52 -5z m82 -16
c-2 -31 -2 -31 -6 -5 -6 41 -40 37 -46 -5 -4 -32 -4 -32 -5 5 -2 35 0 37 28
37 27 0 30 -3 29 -32z m161 23 c0 -5 -9 -7 -21 -4 -17 5 -20 2 -17 -18 2 -16
9 -23 22 -22 12 1 15 -2 8 -9 -17 -17 -42 -1 -42 25 0 13 3 27 7 30 10 10 43
8 43 -2z m88 -17 c2 -11 -4 -27 -13 -34 -22 -19 -50 9 -40 39 9 29 49 25 53
-5z m160 3 c2 -12 -3 -17 -17 -17 -23 0 -29 -16 -8 -23 7 -2 6 -3 -3 -3 -16 1
-25 29 -16 52 8 20 40 14 44 -9z m170 -3 c4 -29 -23 -51 -43 -34 -16 13 -20
42 -8 54 14 14 48 1 51 -20z m44 -9 c-2 -19 -6 -35 -8 -35 -2 0 -4 16 -4 35 0
19 4 35 8 35 4 0 6 -16 4 -35z m114 -5 l2 -35 -5 33 c-2 18 -10 32 -18 32 -8
0 -15 -14 -18 -32 -4 -32 -4 -32 -5 5 -2 34 0 38 21 35 18 -2 22 -10 23 -38z
m82 17 c2 -12 -3 -17 -17 -17 -23 0 -29 -16 -8 -23 7 -2 6 -3 -3 -3 -16 1 -25
29 -16 52 8 20 40 14 44 -9z m152 14 l-25 -7 23 -12 c12 -7 22 -17 22 -23 0
-15 -30 -23 -42 -11 -8 8 -5 9 11 5 27 -7 28 13 1 22 -31 10 -25 35 8 34 l27
-1 -25 -7z m98 -14 c2 -12 -3 -17 -17 -17 -12 0 -21 -5 -21 -11 0 -7 9 -9 21
-6 16 4 19 3 11 -5 -16 -16 -42 -1 -42 25 0 13 3 27 7 31 12 12 38 2 41 -17z
m167 3 c0 -8 -11 -17 -25 -21 l-25 -6 25 -12 c17 -7 19 -10 6 -8 -24 3 -41 29
-33 51 8 21 52 18 52 -4z m81 -20 l2 -35 -5 33 c-5 39 -30 43 -36 5 -4 -26 -4
-25 -6 5 -1 29 2 33 22 30 18 -2 22 -10 23 -38z m64 11 c0 -20 6 -31 18 -34 9
-3 1 -5 -18 -6 -24 0 -31 2 -21 8 8 5 12 19 9 35 -3 14 -1 26 3 26 5 0 9 -13
9 -29z m153 22 c-24 -9 -13 -25 13 -19 17 5 23 3 19 -4 -3 -5 -15 -10 -26 -10
-12 0 -17 -4 -14 -11 4 -6 14 -8 24 -4 12 5 13 4 4 -6 -10 -10 -15 -9 -28 1
-24 20 -18 61 9 59 6 0 5 -3 -1 -6z m281 -1 c3 -5 -5 -8 -16 -8 -15 1 -24 -7
-29 -24 -6 -23 -7 -23 -8 8 -1 28 2 32 23 32 14 0 27 -4 30 -8z m66 -21 c0
-16 6 -32 13 -34 6 -3 -4 -5 -23 -5 -19 0 -27 2 -17 5 15 4 18 12 15 34 -3 16
-1 29 4 29 4 0 8 -13 8 -29z m61 2 l11 -28 13 30 c16 37 19 29 4 -13 -13 -37
-23 -34 -37 8 -14 38 -5 40 9 3z m117 4 c2 -12 -3 -17 -17 -17 -23 0 -29 -16
-8 -23 7 -2 6 -3 -3 -3 -16 1 -25 29 -16 52 8 20 40 14 44 -9z m86 15 c3 -5
-5 -8 -17 -8 -16 1 -23 -7 -28 -29 -6 -29 -7 -29 -8 8 -1 33 2 37 23 37 14 0
27 -4 30 -8z m80 -1 c3 -4 -6 -6 -20 -3 -22 4 -25 2 -22 -19 2 -16 9 -24 21
-23 9 1 17 -3 17 -8 0 -15 -32 -5 -43 13 -6 9 -7 24 -4 33 7 17 42 22 51 7z
m82 -24 c1 -27 1 -27 -3 -1 -3 20 -9 25 -24 21 -10 -3 -19 -1 -19 5 0 5 10 8
23 6 16 -2 22 -10 23 -31z m84 22 c0 -5 -4 -7 -10 -4 -5 3 -11 -4 -11 -17 l-2
-23 -4 23 c-6 31 -23 28 -24 -5 -1 -18 -3 -22 -6 -10 -3 10 -2 25 1 33 6 16
56 19 56 3z m86 -22 c1 -25 1 -25 -3 -2 -6 34 -23 32 -24 -2 l-2 -28 -5 30 -5
30 -7 -30 -8 -30 -1 33 c-1 31 1 33 27 30 22 -2 27 -8 28 -31z m79 -2 c0 -25
-4 -30 -24 -30 -35 0 -38 23 -4 36 l28 12 -25 8 -25 8 25 -2 c21 -2 25 -7 25
-32z m81 -5 l2 -35 -5 33 c-5 39 -33 45 -33 6 0 -14 -4 -23 -9 -20 -4 3 -6 17
-3 31 3 20 10 25 26 23 16 -2 21 -10 22 -38z m144 30 l-25 -8 23 -7 c28 -9 30
-45 3 -45 -11 0 -22 4 -25 9 -4 5 3 7 14 4 26 -7 26 14 0 22 -33 11 -23 36 14
34 18 -1 18 -2 -4 -9z m250 -19 c0 -16 6 -32 13 -34 6 -3 -1 -6 -18 -6 -21 -1
-26 2 -16 8 8 5 12 19 9 35 -3 14 -1 26 3 26 5 0 9 -13 9 -29z m80 19 l-25 -8
23 -7 c25 -8 27 -39 2 -41 -9 0 -10 1 -2 3 18 6 15 16 -8 31 -25 15 -17 32 13
31 21 -1 20 -2 -3 -9z m65 -17 c0 -18 5 -28 15 -28 19 0 26 35 8 47 -10 8 -10
9 2 5 22 -6 18 -48 -5 -61 -11 -6 -23 -15 -27 -21 -4 -5 -8 11 -8 38 0 26 4
47 8 47 4 0 8 -12 7 -27z m123 -4 c4 -30 -22 -46 -44 -28 -15 12 -19 41 -7 53
16 16 48 1 51 -25z m47 20 c-4 -6 2 -13 14 -16 12 -3 21 -12 21 -19 0 -19 -28
-30 -42 -16 -8 8 -5 9 11 5 27 -7 28 13 1 22 -21 7 -28 35 -9 35 5 0 7 -5 4
-11z m115 -25 c0 -31 -3 -35 -22 -32 -30 4 -37 38 -9 38 25 0 28 17 4 23 -14
4 -12 5 5 6 19 1 22 -4 22 -35z m248 14 c2 -13 -3 -18 -17 -18 -12 0 -21 -5
-21 -11 0 -7 9 -9 21 -6 16 4 19 3 11 -5 -19 -19 -42 -1 -42 32 0 27 3 31 22
28 13 -2 24 -11 26 -20z m62 12 l-25 -8 23 -7 c12 -4 22 -15 22 -26 0 -13 -7
-19 -22 -18 -17 1 -19 2 -5 6 23 6 22 20 -3 28 -33 11 -23 36 14 34 18 -1 18
-2 -4 -9z m188 -8 c2 -7 -5 -16 -17 -19 -25 -6 -28 -23 -3 -24 11 0 12 -2 4
-6 -30 -12 -54 40 -27 59 14 11 38 5 43 -10z m55 11 c-18 -7 -16 -43 1 -43 8
0 17 12 19 28 2 16 5 9 6 -20 1 -40 -2 -48 -16 -47 -11 0 -13 3 -5 6 19 8 14
23 -8 23 -16 0 -20 7 -20 30 0 22 5 30 18 29 10 0 12 -3 5 -6z m84 -15 c-3 -8
-6 -5 -6 6 -1 11 2 17 5 13 3 -3 4 -12 1 -19z m273 13 c0 -5 -9 -7 -19 -4 -16
4 -20 -1 -24 -29 l-4 -33 -1 38 c-2 33 0 37 23 37 14 0 25 -4 25 -9z m69 -15
c12 18 12 18 7 1 -3 -11 -9 -31 -13 -45 -6 -24 -7 -23 -19 19 -17 55 -17 60 0
30 13 -23 14 -23 25 -5z m465 7 c-5 -23 11 -48 25 -39 6 4 12 19 12 34 2 24 2
25 6 4 4 -23 -11 -52 -28 -52 -13 0 -31 40 -25 56 8 20 15 17 10 -3z m83 -35
c-2 -13 -4 -5 -4 17 -1 22 1 32 4 23 2 -10 2 -28 0 -40z m39 11 c2 -31 1 -31
-3 -4 -3 16 -10 34 -16 38 -8 6 -7 7 3 4 9 -2 16 -17 16 -38z m146 34 c-17 -3
-22 -10 -20 -26 2 -14 10 -21 20 -21 10 1 15 -2 12 -7 -10 -18 -34 -9 -40 15
-8 32 2 46 29 45 21 -2 21 -2 -1 -6z m186 -15 c2 -13 -3 -18 -17 -18 -24 0
-28 -16 -6 -23 11 -4 10 -4 -2 -3 -13 1 -19 11 -21 34 -3 30 -1 33 20 30 12
-2 24 -11 26 -20z m82 -13 c0 -31 -3 -35 -25 -35 -18 0 -25 5 -25 20 0 13 7
20 20 20 25 0 26 17 3 23 -14 4 -12 5 5 6 19 1 22 -4 22 -34z m63 28 c-16 -3
-23 -13 -26 -36 -4 -31 -4 -31 -5 6 -2 34 0 37 26 36 22 -1 23 -2 5 -6z m80
-50 c7 2 15 17 18 33 7 29 7 29 8 3 0 -15 -6 -33 -15 -40 -14 -11 -18 -10 -30
6 -8 10 -14 28 -13 39 0 14 4 10 10 -12 6 -19 15 -32 22 -29z m102 23 c0 -17
-6 -31 -15 -34 -12 -4 -13 -2 -2 9 17 18 15 49 -2 49 -10 0 -16 -14 -19 -42
l-4 -43 -1 48 c-2 45 0 48 21 45 17 -2 22 -10 22 -32z m230 25 c-19 -8 -19 -8
3 -20 12 -6 22 -16 22 -22 0 -15 -30 -23 -42 -11 -8 8 -5 9 11 5 11 -3 21 -1
21 5 0 5 -9 12 -20 15 -28 7 -26 37 3 36 21 0 21 -1 2 -8z m85 -20 c0 -20 6
-31 18 -34 9 -3 1 -5 -18 -6 -24 0 -31 2 -21 8 8 5 12 19 9 35 -3 14 -1 26 3
26 5 0 9 -13 9 -29z m100 25 c0 -3 -4 -8 -10 -11 -5 -3 -10 -1 -10 4 0 6 5 11
10 11 6 0 10 -2 10 -4z m79 -9 c13 -17 5 -27 -23 -27 -21 -1 -21 -1 -2 -15 21
-16 18 -19 -8 -9 -16 6 -22 45 -9 57 10 11 30 8 42 -6z m74 6 c-7 -2 -19 -2
-25 0 -7 3 -2 5 12 5 14 0 19 -2 13 -5z m-8073 -34 c0 -11 -4 -18 -10 -14 -5
3 -7 12 -3 20 7 21 13 19 13 -6z m897 15 c-3 -3 -12 -4 -19 -1 -8 3 -5 6 6 6
11 1 17 -2 13 -5z m5526 -1 c-7 -2 -19 -2 -25 0 -7 3 -2 5 12 5 14 0 19 -2 13
-5z m84 1 c-3 -3 -12 -4 -19 -1 -8 3 -5 6 6 6 11 1 17 -2 13 -5z m-2414 -24
c9 -11 13 -20 7 -20 -5 0 -14 9 -20 20 -6 11 -9 20 -8 20 2 0 11 -9 21 -20z
m1925 3 c-2 -10 -11 -18 -21 -19 -14 -2 -14 -1 -1 3 8 3 13 11 10 19 -3 8 -1
14 5 14 6 0 9 -8 7 -17z m1876 3 c-3 -8 2 -16 13 -19 12 -3 9 -5 -9 -6 -30 -1
-35 8 -16 27 16 16 19 15 12 -2z m-8639 -16 c4 -6 -6 -10 -22 -10 -22 0 -25 2
-13 10 19 12 27 12 35 0z m155 0 c0 -5 -5 -10 -11 -10 -5 0 -7 5 -4 10 3 6 8
10 11 10 2 0 4 -4 4 -10z m245 0 c3 -5 1 -10 -4 -10 -6 0 -11 5 -11 10 0 6 2
10 4 10 3 0 8 -4 11 -10z m1990 0 c-3 -5 -14 -10 -23 -9 -14 0 -13 2 3 9 27
11 27 11 20 0z m1065 0 c0 -5 -4 -10 -10 -10 -5 0 -10 5 -10 10 0 6 5 10 10
10 6 0 10 -4 10 -10z m740 0 c0 -5 -2 -10 -4 -10 -3 0 -8 5 -11 10 -3 6 -1 10
4 10 6 0 11 -4 11 -10z m1240 0 c0 -5 -4 -10 -10 -10 -5 0 -10 5 -10 10 0 6 5
10 10 10 6 0 10 -4 10 -10z m1250 0 c11 -7 6 -10 -20 -10 -26 0 -31 3 -20 10
8 5 17 10 20 10 3 0 12 -5 20 -10z m-5625 -195 c0 -36 -3 -65 -7 -65 -5 0 -8
29 -8 65 0 36 3 65 8 65 4 0 7 -29 7 -65z m745 0 c0 -36 -3 -65 -7 -65 -5 0
-8 29 -8 65 0 36 3 65 8 65 4 0 7 -29 7 -65z m-1820 45 c0 -5 -8 -10 -17 -10
-15 0 -16 2 -3 10 19 12 20 12 20 0z m100 -5 c10 -12 10 -21 0 -45 -14 -35
-36 -53 -26 -22 4 13 1 22 -9 26 -8 3 -14 16 -14 28 l2 23 4 -22 c5 -24 27
-31 39 -11 4 6 -1 17 -11 25 -11 7 -14 13 -8 13 6 0 16 -7 23 -15z m166 6 c-3
-5 -15 -7 -26 -4 -28 7 -25 13 6 13 14 0 23 -4 20 -9z m234 -35 c0 -26 5 -46
13 -49 6 -3 -1 -5 -18 -5 -16 0 -24 2 -17 5 15 6 16 73 1 73 -5 0 -7 5 -4 10
14 23 25 7 25 -34z m334 38 c21 -8 20 -26 -4 -57 l-20 -26 22 -4 c17 -3 14 -5
-10 -6 l-33 -1 26 35 c27 34 26 61 -2 51 -8 -3 -11 -1 -8 4 7 12 8 12 29 4z
m94 -24 c2 -14 -4 -34 -13 -45 -12 -16 -14 -17 -9 -2 4 11 1 17 -9 17 -20 0
-30 29 -16 47 18 21 44 11 47 -17z m245 23 c-8 -2 -14 -25 -15 -51 l-1 -47 -4
40 c-2 22 -11 46 -20 53 -15 10 -12 12 18 11 19 0 28 -3 22 -6z m417 -43 c0
-47 -2 -50 -25 -50 -22 0 -25 4 -25 35 0 27 4 35 18 34 10 0 12 -3 5 -6 -19
-7 -16 -53 2 -53 11 0 15 12 15 45 0 25 2 45 5 45 3 0 5 -22 5 -50z m403 43
c-7 -2 -13 -22 -13 -43 0 -21 6 -41 13 -43 6 -3 -1 -6 -18 -6 -21 0 -26 2 -16
8 9 6 12 22 9 50 -3 36 -1 41 17 40 11 0 14 -3 8 -6z m70 -33 c10 -22 17 -46
14 -53 -3 -9 -6 -8 -10 3 -19 55 -20 56 -27 20 -7 -32 -7 -31 -9 18 0 28 2 52
7 52 4 0 15 -18 25 -40z m87 31 c-33 -9 -40 -41 -8 -42 22 0 22 -1 3 -9 -30
-13 -35 -12 -35 9 0 36 12 51 39 50 l26 -1 -25 -7z m95 -41 c0 -38 -3 -45 -20
-45 -15 0 -21 8 -23 33 -4 45 4 64 25 60 14 -3 18 -13 18 -48z m665 0 c0 -46
-2 -50 -24 -50 -17 0 -25 7 -28 23 -6 32 1 47 23 47 10 0 19 7 19 15 0 8 2 15
5 15 3 0 5 -22 5 -50z m141 20 c10 0 19 -4 19 -9 0 -5 -9 -7 -20 -4 -16 4 -20
0 -20 -21 0 -26 23 -37 33 -16 3 6 4 5 3 -2 -1 -7 -12 -14 -24 -16 -20 -3 -22
1 -21 50 1 29 3 45 6 36 2 -10 13 -18 24 -18z m659 -14 c0 -34 4 -46 18 -49
13 -4 11 -5 -5 -6 -20 -1 -23 4 -23 37 0 21 -5 43 -12 50 -9 9 -8 12 5 12 13
0 17 -9 17 -44z m597 -33 c-2 -16 -4 -3 -4 27 0 30 2 43 4 28 2 -16 2 -40 0
-55z m993 26 c0 -47 -2 -50 -22 -47 -18 2 -24 11 -26 36 -3 26 0 32 15 31 10
0 13 -3 6 -6 -19 -7 -16 -53 2 -53 11 0 15 12 15 45 0 25 2 45 5 45 3 0 5 -23
5 -51z m238 39 c7 -7 12 -24 12 -38 0 -14 -5 -31 -12 -38 -17 -17 -47 -15 -44
3 3 22 16 31 16 11 0 -10 6 -16 13 -13 6 2 12 19 12 37 0 18 -6 35 -12 38 -7
2 -13 -3 -13 -12 0 -8 -4 -17 -8 -20 -4 -2 -8 6 -8 20 0 26 23 33 44 12z m642
-32 c0 -27 5 -46 13 -49 7 -2 6 -3 -3 -3 -10 1 -16 14 -18 41 -2 22 -9 43 -15
47 -8 5 -6 8 6 8 14 0 17 -9 17 -44z m274 28 c3 -8 2 -23 -3 -32 -6 -11 -6
-25 0 -37 7 -15 6 -14 -7 3 -20 27 -31 28 -37 5 -3 -10 -5 3 -6 30 -1 43 1 47
23 47 13 0 27 -7 30 -16z m969 9 c-15 -3 -23 -12 -23 -24 0 -13 7 -19 23 -20
l22 -2 -22 -4 c-12 -2 -24 -12 -26 -21 -3 -9 -5 4 -6 31 -1 45 0 47 27 46 23
-2 24 -2 5 -6z m817 -33 c0 -27 6 -42 18 -49 15 -9 15 -10 1 -11 -19 0 -29 20
-29 60 0 16 -6 31 -12 33 -8 3 -6 6 5 6 13 1 17 -7 17 -39z m-7914 10 c0 -11
-4 -20 -8 -20 -4 0 -8 -9 -8 -20 0 -11 7 -20 15 -20 9 0 15 9 15 23 0 18 2 19
10 7 12 -19 -12 -45 -34 -37 -18 7 -21 39 -6 68 13 24 16 24 16 -1z m248 6
c-3 -7 2 -16 10 -19 21 -8 21 -46 0 -54 -8 -3 -22 1 -31 9 -13 14 -13 19 1 47
17 31 30 43 20 17z m643 -53 c-2 -16 -4 -5 -4 22 0 28 2 40 4 28 2 -13 2 -35
0 -50z m502 28 c-14 -39 -5 -50 24 -32 20 13 21 13 8 -2 -32 -39 -62 -7 -41
44 17 39 23 32 9 -10z m2341 -7 c0 -41 -2 -45 -22 -42 -24 3 -38 42 -21 59 6
6 8 -2 5 -21 -3 -23 0 -30 12 -30 12 0 16 10 16 40 0 22 2 40 5 40 3 0 5 -21
5 -46z m2040 26 c21 0 34 -29 24 -54 -3 -9 -17 -16 -30 -16 -22 0 -24 4 -23
48 0 26 3 41 6 35 2 -7 13 -13 23 -13z m749 -8 c-15 -6 -10 -50 6 -55 11 -4
10 -4 -2 -3 -12 1 -19 11 -21 29 -2 15 -8 27 -13 27 -5 0 -4 6 3 13 9 10 16
11 24 3 7 -6 8 -12 3 -14z m962 -19 c-9 -15 -10 -12 -10 17 0 29 1 32 10 18 7
-12 7 -24 0 -35z m209 1 c0 -41 -2 -45 -22 -42 -18 2 -24 11 -26 36 -3 26 0
32 15 31 10 0 13 -3 6 -6 -19 -7 -16 -53 2 -53 11 0 15 11 15 40 0 22 2 40 5
40 3 0 5 -21 5 -46z m-8013 4 c2 -17 0 -19 -7 -8 -5 8 -6 18 -4 22 8 12 10 10
11 -14z m261 -26 c-3 -18 -48 -31 -48 -13 0 6 6 8 14 5 21 -8 32 17 13 31 -9
7 -14 15 -11 18 11 10 36 -22 32 -41z m988 7 c2 -31 1 -31 -3 -4 -3 16 -10 34
-16 38 -8 6 -7 7 3 4 9 -2 16 -17 16 -38z m46 6 c-2 -19 -6 -35 -8 -35 -2 0
-4 16 -4 35 0 19 4 35 8 35 4 0 6 -16 4 -35z m38 25 c0 -5 -2 -10 -4 -10 -3 0
-8 5 -11 10 -3 6 -1 10 4 10 6 0 11 -4 11 -10z m78 -11 c2 -11 -6 -18 -23 -21
-19 -4 -25 -1 -25 12 0 9 3 20 7 24 12 11 38 2 41 -15z m88 -5 c7 -28 -9 -46
-36 -41 -24 4 -17 31 10 38 l25 6 -25 11 c-24 10 -24 11 -3 11 16 1 24 -6 29
-25z m904 17 c0 -5 -9 -7 -20 -4 -16 4 -20 0 -21 -18 0 -13 -3 -18 -6 -11 -8
21 5 42 27 42 11 0 20 -4 20 -9z m85 -2 c4 -5 4 -21 1 -35 -11 -42 -58 -26
-55 19 0 7 4 1 10 -11 11 -28 33 -24 37 6 2 15 -3 22 -20 25 -22 4 -22 4 -1 6
12 0 25 -4 28 -10z m65 1 c0 -5 -6 -7 -14 -4 -11 4 -16 -4 -19 -28 l-4 -33 -1
38 c-2 31 1 37 18 37 11 0 20 -4 20 -10z m17 -37 c-3 -10 -5 -2 -5 17 0 19 2
27 5 18 2 -10 2 -26 0 -35z m163 38 c0 -5 -9 -7 -20 -4 -16 4 -20 0 -20 -22 0
-23 3 -26 21 -22 16 4 19 3 11 -5 -16 -16 -42 -1 -42 25 0 13 3 27 7 30 10 10
43 8 43 -2z m85 -11 c7 -23 -10 -50 -30 -50 -13 0 -26 22 -24 43 0 7 4 1 10
-11 10 -26 32 -25 37 1 2 10 -6 21 -20 26 -23 10 -23 10 -1 10 13 1 24 -7 28
-19z m163 -3 c2 -12 -3 -17 -17 -17 -23 0 -29 -16 -8 -23 7 -2 6 -3 -3 -3 -16
1 -25 29 -16 52 8 20 40 14 44 -9z m167 4 c8 -26 -4 -51 -25 -51 -17 0 -31 20
-29 43 0 7 4 1 10 -11 10 -26 32 -25 37 1 2 10 -6 21 -20 26 -23 10 -23 10 -1
10 13 1 24 -7 28 -18z m85 10 c0 -5 -9 -7 -19 -4 -16 4 -20 -1 -24 -29 l-4
-33 -1 38 c-2 33 0 37 23 37 14 0 25 -4 25 -9z m42 -26 c-2 -19 -6 -35 -8 -35
-2 0 -4 16 -4 35 0 19 4 35 8 35 4 0 6 -16 4 -35z m38 0 c0 -19 -2 -35 -4 -35
-2 0 -6 16 -8 35 -2 19 0 35 4 35 4 0 8 -16 8 -35z m78 12 c2 -12 -3 -17 -17
-17 -23 0 -29 -16 -8 -23 7 -2 6 -3 -3 -3 -16 1 -25 29 -16 52 8 20 40 14 44
-9z m148 16 c-19 -5 -18 -6 4 -23 24 -18 20 -41 -8 -39 -15 1 -15 2 1 6 23 6
22 19 -3 26 -28 7 -26 37 3 36 19 -1 19 -2 3 -6z m102 -16 c2 -12 -3 -17 -17
-17 -23 0 -29 -16 -8 -23 7 -2 6 -3 -3 -3 -16 1 -25 29 -16 52 8 20 40 14 44
-9z m145 13 c-31 -13 -29 -23 3 -17 29 5 19 -9 -11 -16 -18 -4 -18 -5 5 -15
14 -6 18 -11 10 -11 -29 -1 -43 16 -36 43 5 19 13 26 29 25 l22 0 -22 -9z m67
-20 c0 -16 -4 -30 -8 -30 -4 0 -7 12 -6 28 3 32 3 32 9 32 3 0 5 -13 5 -30z
m36 -11 c2 -31 1 -31 -3 -4 -3 16 -10 34 -16 38 -8 6 -7 7 3 4 9 -2 16 -17 16
-38z m64 12 c0 -20 6 -31 18 -34 9 -3 1 -5 -18 -6 -24 0 -31 2 -21 8 8 5 12
19 9 35 -3 14 -1 26 3 26 5 0 9 -13 9 -29z m180 14 c15 -18 14 -20 -22 -29
-23 -5 -28 -3 -28 12 0 34 28 43 50 17z m143 8 c-16 -6 -17 -49 -3 -56 6 -3 5
-4 -2 -3 -7 1 -14 17 -16 34 -3 26 0 32 15 31 10 0 13 -3 6 -6z m107 -2 c0 -5
-8 -8 -17 -7 -10 0 -20 -9 -24 -24 -6 -23 -7 -23 -8 8 -1 28 2 32 24 32 14 0
25 -4 25 -9z m70 -20 c0 -16 6 -32 13 -34 6 -3 -1 -5 -18 -5 -16 0 -24 2 -17
5 6 2 12 15 12 28 0 13 -6 26 -12 28 -8 3 -6 6 5 6 12 1 17 -7 17 -28z m61 2
l11 -28 13 30 c16 37 19 29 4 -14 -14 -40 -23 -39 -36 4 -13 41 -7 47 8 8z
m117 5 c2 -13 -3 -18 -17 -18 -24 0 -28 -16 -6 -23 11 -4 10 -4 -2 -3 -13 1
-19 11 -21 34 -3 30 -1 33 20 30 12 -2 24 -11 26 -20z m82 13 c0 -5 -8 -8 -17
-7 -12 1 -20 -9 -24 -29 -6 -29 -7 -29 -8 8 -1 33 2 37 24 37 14 0 25 -4 25
-9z m50 -6 c-16 -19 -5 -49 15 -41 8 3 15 1 15 -4 0 -15 -26 -12 -40 5 -13 16
-5 55 12 55 6 0 6 -6 -2 -15z m115 -20 c0 -37 -28 -46 -45 -15 -9 16 -8 25 1
36 20 24 44 13 44 -21z m85 18 c0 -15 -2 -16 -10 -3 -8 12 -10 10 -11 -10 -2
-24 -2 -24 -6 -2 -6 31 -21 28 -26 -5 -4 -26 -4 -26 -6 5 -1 29 2 32 29 32 22
0 30 -5 30 -17z m59 -15 l-2 -33 -4 29 c-4 22 -7 26 -14 15 -7 -11 -9 -11 -9
4 0 9 7 17 15 17 11 0 15 -10 14 -32z m29 -9 c-3 -20 -5 -19 -9 9 -3 20 -2 29
4 23 5 -5 7 -19 5 -32z m72 32 c0 -5 -9 -7 -20 -4 -11 3 -20 7 -20 9 0 2 9 4
20 4 11 0 20 -4 20 -9z m47 -13 c-3 -8 -6 -5 -6 6 -1 11 2 17 5 13 3 -3 4 -12
1 -19z m39 -19 c2 -31 1 -31 -3 -4 -3 16 -10 34 -16 38 -8 6 -7 7 3 4 9 -2 16
-17 16 -38z m129 30 c-4 -6 2 -13 14 -16 29 -8 28 -43 -1 -42 -17 1 -19 2 -5
6 23 6 22 20 -3 28 -20 6 -25 16 -13 28 10 11 15 8 8 -4z m265 -18 c0 -16 6
-32 13 -34 6 -3 -1 -6 -18 -6 -21 -1 -26 2 -16 8 8 5 12 19 9 35 -3 14 -1 26
3 26 5 0 9 -13 9 -29z m65 18 c-4 -6 3 -13 14 -16 25 -6 25 -37 1 -39 -9 0
-10 1 -2 3 18 7 15 21 -8 28 -20 6 -25 16 -13 28 10 11 15 8 8 -4z m79 -13
c-6 -27 12 -44 29 -27 9 9 8 16 -1 31 -7 11 -8 20 -3 20 13 0 23 -34 15 -54
-3 -9 -14 -16 -24 -16 -10 0 -21 -6 -23 -12 -3 -7 -6 8 -6 35 -1 26 4 47 9 47
6 0 8 -10 4 -24z m121 -11 c0 -36 -28 -46 -44 -16 -15 27 -3 53 23 49 16 -2
21 -10 21 -33z m60 25 c-19 -9 -19 -9 3 -16 27 -8 26 -38 -1 -40 -12 -1 -13
-1 -2 3 21 6 19 20 -5 28 -28 9 -26 35 3 34 21 0 21 -1 2 -9z m103 -28 c3 -30
1 -33 -20 -30 -30 4 -38 38 -9 38 25 0 28 17 4 24 -14 4 -14 4 2 3 15 -2 21
-11 23 -35z m250 15 c2 -12 -3 -17 -17 -17 -12 0 -21 -5 -21 -11 0 -7 9 -9 21
-6 16 4 19 3 11 -5 -16 -16 -42 -1 -42 25 0 13 3 27 7 31 12 12 38 2 41 -17z
m62 13 l-25 -8 23 -7 c12 -4 22 -15 22 -26 0 -13 -7 -19 -22 -18 -17 1 -19 2
-5 6 22 6 22 15 -3 31 -25 15 -17 32 13 31 21 -1 20 -2 -3 -9z m188 -12 c2
-13 -3 -18 -17 -18 -25 0 -28 -17 -3 -23 14 -4 14 -5 1 -6 -24 -2 -42 25 -34
49 8 26 48 24 53 -2z m44 -3 c-3 -19 0 -25 13 -25 13 0 16 6 13 25 -3 14 -1
25 3 25 5 0 9 -20 9 -45 0 -25 -4 -45 -10 -45 -5 0 -7 7 -4 15 4 10 0 15 -15
15 -17 0 -21 6 -21 30 0 17 4 30 9 30 4 0 6 -11 3 -25z m105 19 c-3 -3 -12 -4
-19 -1 -8 3 -5 6 6 6 11 1 17 -2 13 -5z m83 -1 c-8 -3 -18 -11 -22 -17 -5 -7
-8 -4 -8 7 0 11 7 17 23 16 15 0 17 -2 7 -6z m142 -28 c-2 -19 -6 -35 -8 -35
-2 0 -4 16 -4 35 0 19 4 35 8 35 4 0 6 -16 4 -35z m38 25 c0 -5 -2 -10 -4 -10
-3 0 -8 5 -11 10 -3 6 -1 10 4 10 6 0 11 -4 11 -10z m69 -10 c14 36 12 2 -3
-40 l-13 -34 -6 29 c-3 17 -8 39 -12 50 -4 14 -2 12 9 -5 l15 -25 10 25z m491
-9 c0 -16 6 -32 13 -34 6 -3 -1 -6 -18 -6 -21 -1 -26 2 -16 8 8 5 12 19 9 35
-3 14 -1 26 3 26 5 0 9 -13 9 -29z m57 -23 c-2 -13 -4 -5 -4 17 -1 22 1 32 4
23 2 -10 2 -28 0 -40z m39 11 c2 -31 1 -31 -3 -4 -3 16 -10 34 -16 38 -8 6 -7
7 3 4 9 -2 16 -17 16 -38z m64 16 c0 -13 8 -29 18 -34 14 -9 11 -10 -18 -11
-24 0 -31 3 -21 9 8 5 12 19 9 35 -3 14 -1 26 3 26 5 0 9 -11 9 -25z m80 15
l-25 -8 23 -7 c12 -4 22 -15 22 -26 0 -13 -7 -19 -22 -18 -17 1 -19 2 -5 6 22
6 22 15 -3 31 -25 15 -17 32 13 31 21 -1 20 -2 -3 -9z m107 -31 c1 -24 0 -26
-4 -9 -3 14 -10 31 -16 39 -10 11 -9 13 3 9 9 -3 16 -18 17 -39z m81 19 c2
-13 -3 -18 -17 -18 -24 0 -28 -16 -6 -23 11 -4 10 -4 -2 -3 -13 1 -19 11 -21
34 -3 30 -1 33 20 30 12 -2 24 -11 26 -20z m246 14 c3 -5 -5 -8 -17 -8 -16 1
-22 -5 -22 -19 0 -15 6 -19 23 -18 13 2 21 -1 17 -7 -17 -28 -61 6 -50 40 6
20 39 28 49 12z m164 -15 c2 -12 -3 -17 -17 -17 -23 0 -29 -16 -8 -23 7 -2 6
-3 -3 -3 -16 1 -25 29 -16 52 8 20 40 14 44 -9z m82 -13 c0 -31 -3 -35 -22
-32 -29 4 -35 28 -9 35 26 7 27 20 4 26 -14 4 -12 5 5 6 19 1 22 -4 22 -35z
m87 -4 c1 -34 1 -34 -5 -5 -9 36 -33 39 -43 5 -6 -23 -7 -22 -8 8 -1 31 1 33
27 30 23 -3 27 -8 29 -38z m58 -20 c8 0 16 12 18 28 4 25 4 25 3 -3 -1 -23 -6
-30 -21 -30 -15 0 -21 8 -22 33 -3 32 -3 32 3 2 3 -16 11 -30 19 -30z m103 28
c-2 -17 -9 -33 -16 -34 -7 -1 -8 0 -2 3 16 7 12 53 -4 53 -10 0 -16 -14 -19
-42 l-4 -43 -1 48 c-2 44 -1 47 24 47 22 0 25 -4 22 -32z m-7954 7 c-4 -9 0
-15 9 -15 8 0 18 6 20 13 3 6 6 2 6 -9 1 -17 -4 -20 -24 -16 -24 4 -33 21 -18
35 10 11 13 8 7 -8z m933 -1 c-3 -3 -12 -4 -19 -1 -8 3 -5 6 6 6 11 1 17 -2
13 -5z m5027 -25 c-2 -4 4 -10 13 -12 10 -3 2 -5 -17 -5 -19 0 -29 2 -22 5 6
2 12 14 12 26 0 17 2 19 9 7 6 -8 8 -17 5 -21z m499 24 c-7 -2 -19 -2 -25 0
-7 3 -2 5 12 5 14 0 19 -2 13 -5z m80 0 c-7 -2 -19 -2 -25 0 -7 3 -2 5 12 5
14 0 19 -2 13 -5z m-2125 -20 c-4 -20 -35 -30 -50 -15 -15 15 0 32 28 32 19 0
25 -5 22 -17z m1642 -3 c0 -14 -6 -20 -22 -19 -19 1 -19 2 -5 6 11 3 16 11 13
19 -3 8 -1 14 4 14 6 0 10 -9 10 -20z m-1600 0 c0 -5 -2 -10 -4 -10 -3 0 -8 5
-11 10 -3 6 -1 10 4 10 6 0 11 -4 11 -10z m-5160 -10 c11 -7 6 -10 -20 -10
-26 0 -31 3 -20 10 8 5 17 10 20 10 3 0 12 -5 20 -10z m150 0 c0 -5 -5 -10
-11 -10 -5 0 -7 5 -4 10 3 6 8 10 11 10 2 0 4 -4 4 -10z m245 0 c3 -5 1 -10
-4 -10 -6 0 -11 5 -11 10 0 6 2 10 4 10 3 0 8 -4 11 -10z m1990 0 c-3 -5 -14
-10 -23 -9 -14 0 -13 2 3 9 27 11 27 11 20 0z m1065 0 c0 -5 -4 -10 -10 -10
-5 0 -10 5 -10 10 0 6 5 10 10 10 6 0 10 -4 10 -10z m740 0 c0 -5 -4 -10 -10
-10 -5 0 -10 5 -10 10 0 6 5 10 10 10 6 0 10 -4 10 -10z m1240 0 c0 -5 -4 -10
-10 -10 -5 0 -10 5 -10 10 0 6 5 10 10 10 6 0 10 -4 10 -10z m-4043 -6 c-3 -3
-12 -4 -19 -1 -8 3 -5 6 6 6 11 1 17 -2 13 -5z m-1410 -444 c12 0 14 9 11 40
-2 22 0 40 5 40 4 0 7 -19 5 -42 -2 -36 -7 -44 -25 -46 -21 -3 -23 0 -21 45
l1 48 4 -42 c3 -31 9 -43 20 -43z m908 0 c7 0 15 8 18 18 3 13 4 12 3 -3 -1
-13 -8 -20 -21 -20 -17 0 -20 7 -21 43 l-1 42 4 -40 c3 -25 9 -40 18 -40z m25
70 c0 -5 -2 -10 -4 -10 -3 0 -8 5 -11 10 -3 6 -1 10 4 10 6 0 11 -4 11 -10z
m250 -35 c0 -25 -5 -45 -10 -45 -6 0 -8 10 -4 24 6 27 -12 44 -29 27 -9 -9 -8
-16 1 -31 7 -11 8 -20 3 -20 -13 0 -22 30 -16 51 4 11 15 19 26 19 10 0 19 5
19 10 0 6 2 10 5 10 3 0 5 -20 5 -45z m47 -7 c-2 -13 -4 -5 -4 17 -1 22 1 32
4 23 2 -10 2 -28 0 -40z m257 41 c-3 -6 0 -15 7 -20 10 -6 11 -9 2 -9 -7 0
-14 -12 -14 -27 l-1 -28 -7 30 c-8 35 -3 65 11 65 5 0 6 -5 2 -11z m255 -17
c-14 -5 -11 -50 4 -55 7 -3 5 -6 -5 -6 -13 -1 -18 7 -18 29 0 17 -5 30 -10 30
-7 0 -6 5 2 13 9 10 16 11 24 3 7 -6 8 -12 3 -14z m1171 -17 c0 -41 -2 -45
-24 -45 -27 0 -35 13 -28 47 2 13 11 23 21 22 10 0 11 -2 4 -6 -19 -7 -16 -53
2 -53 11 0 15 11 15 40 0 22 2 40 5 40 3 0 5 -20 5 -45z m471 25 c13 0 19 -7
18 -22 -1 -17 -2 -19 -6 -5 -8 29 -31 19 -36 -15 -3 -23 -4 -17 -5 17 0 28 2
44 5 38 2 -7 13 -13 24 -13z m311 -32 c2 -21 0 -38 -4 -38 -4 0 -8 21 -7 48 1
52 6 48 11 -10z m268 15 c0 -32 -5 -28 -14 10 -4 19 -3 26 4 22 5 -3 10 -18
10 -32z m1000 14 c12 -4 11 -6 -2 -6 -20 -1 -26 -46 -8 -54 6 -3 5 -4 -2 -3
-7 1 -16 16 -19 32 -6 32 0 61 10 46 3 -5 13 -12 21 -15z m739 -5 c-14 -5 -11
-50 4 -55 7 -3 5 -6 -5 -6 -13 -1 -18 7 -18 23 0 14 -4 28 -10 31 -6 4 -5 11
2 19 9 9 16 10 24 2 7 -6 8 -12 3 -14z m732 8 c10 0 19 -4 19 -9 0 -5 -9 -7
-19 -4 -15 4 -20 -1 -24 -24 -3 -18 -4 -13 -5 17 0 25 2 39 5 33 2 -7 13 -13
24 -13z m151 -20 c-3 -31 -1 -40 11 -40 9 0 18 8 21 18 4 13 4 13 3 -3 -1 -12
-11 -21 -25 -23 -20 -3 -22 1 -22 42 0 25 3 46 8 46 4 0 6 -18 4 -40z m288 -5
c0 -41 -2 -45 -24 -45 -27 0 -40 23 -30 52 4 13 12 18 25 15 12 -3 19 0 19 9
0 8 2 14 5 14 3 0 5 -20 5 -45z m328 20 c1 -11 -5 -29 -13 -40 -17 -20 -17
-20 -10 0 17 49 17 53 -7 58 -22 5 -22 5 2 4 17 -1 26 -9 28 -22z m124 -15
c-3 -31 -1 -40 11 -40 8 0 18 5 20 10 3 6 4 5 3 -2 -2 -7 -11 -13 -22 -13 -20
0 -31 41 -20 71 9 24 12 16 8 -26z m38 25 c0 -8 -2 -15 -4 -15 -2 0 -6 7 -10
15 -3 8 -1 15 4 15 6 0 10 -7 10 -15z m-6772 -13 c-20 -4 -25 -47 -8 -55 6 -3
5 -4 -2 -3 -7 1 -14 15 -16 29 -2 15 -9 27 -15 27 -8 0 -7 3 2 9 7 5 23 6 35
3 18 -5 18 -7 4 -10z m2720 0 c-21 -4 -24 -32 -6 -50 9 -9 9 -12 0 -12 -11 0
-32 59 -26 72 2 3 14 3 27 0 18 -5 19 -7 5 -10z m752 -23 c0 -36 -2 -40 -22
-37 -17 2 -24 11 -26 31 -3 25 9 37 46 46 1 1 2 -17 2 -40z m377 1 c4 0 16 8
27 18 19 16 20 16 7 0 -7 -10 -10 -25 -7 -34 5 -13 4 -14 -7 -6 -10 9 -17 8
-25 0 -9 -9 -12 -3 -11 28 1 23 4 30 6 17 2 -13 7 -23 10 -23z m1925 22 c-16
-5 -15 -49 1 -55 7 -3 5 -6 -5 -6 -13 -1 -18 7 -18 23 0 14 -5 28 -11 32 -16
9 10 24 30 16 10 -4 11 -7 3 -10z m-6264 -15 c2 -12 -3 -17 -17 -17 -28 0 -27
-17 2 -23 19 -5 19 -5 -3 -4 -26 2 -37 25 -26 53 8 20 40 14 44 -9z m88 -1 c8
-32 -2 -46 -32 -46 -15 0 -24 6 -24 16 0 14 3 14 15 4 19 -16 41 1 32 24 -7
18 -27 22 -27 6 0 -5 -4 -10 -10 -10 -5 0 -10 7 -10 15 0 9 9 15 25 15 18 0
26 -7 31 -24z m78 15 c4 -5 -3 -7 -13 -4 -16 4 -20 -1 -24 -29 l-4 -33 -1 38
c-2 31 1 37 17 37 11 0 22 -4 25 -9z m84 -14 c2 -12 -3 -17 -17 -17 -23 0 -29
-16 -8 -23 7 -2 6 -3 -3 -3 -16 1 -25 29 -16 52 8 20 40 14 44 -9z m82 14 c0
-5 -8 -8 -17 -7 -12 1 -19 -7 -21 -23 -3 -20 0 -23 17 -18 12 3 21 1 21 -5 0
-5 -10 -8 -22 -6 -39 5 -37 68 2 68 11 0 20 -4 20 -9z m84 -7 c9 -24 7 -54 -4
-54 -5 0 -7 7 -4 15 4 9 0 15 -9 15 -19 0 -31 -16 -17 -23 6 -3 5 -4 -2 -3
-24 5 -19 25 8 32 26 7 26 8 9 20 -16 12 -16 14 -3 14 9 0 19 -7 22 -16z m164
-7 c2 -12 -3 -17 -17 -17 -23 0 -29 -16 -8 -23 7 -2 6 -3 -3 -3 -16 1 -25 29
-16 52 8 20 40 14 44 -9z m52 8 c-16 -19 -5 -49 15 -41 8 3 15 1 15 -5 0 -18
-45 -5 -48 14 -5 24 5 47 19 47 8 0 8 -4 -1 -15z m27 -17 c-3 -7 -5 -2 -5 12
0 14 2 19 5 13 2 -7 2 -19 0 -25z m253 23 c0 -5 -9 -7 -19 -4 -16 4 -20 -1
-24 -29 l-4 -33 -1 38 c-2 33 0 37 23 37 14 0 25 -4 25 -9z m74 0 c4 -5 -3 -7
-14 -4 -23 6 -26 13 -6 13 8 0 17 -4 20 -9z m254 -14 c2 -12 -3 -17 -17 -17
-23 0 -29 -16 -8 -23 7 -2 6 -3 -3 -3 -16 1 -25 29 -16 52 8 20 40 14 44 -9z
m250 0 c2 -12 -3 -17 -17 -17 -25 0 -28 -17 -3 -23 13 -4 11 -5 -5 -6 -19 -1
-23 4 -23 27 0 16 3 32 7 36 12 12 38 2 41 -17z m79 -17 c1 -19 -1 -27 -3 -17
-3 9 -12 17 -20 17 -17 0 -19 -16 -1 -23 7 -3 5 -6 -5 -6 -25 -1 -23 30 2 36
25 7 26 20 3 27 -14 4 -14 4 2 3 15 -2 20 -10 22 -37z m210 -12 c-2 -13 -4 -5
-4 17 -1 22 1 32 4 23 2 -10 2 -28 0 -40z m38 41 c11 -16 1 -19 -13 -3 -7 8
-8 14 -3 14 5 0 13 -5 16 -11z m83 -12 c2 -12 -3 -17 -17 -17 -23 0 -29 -16
-8 -23 7 -2 6 -3 -3 -3 -16 1 -25 29 -16 52 8 20 40 14 44 -9z m70 16 c-22 -6
-23 -19 -3 -27 8 -3 14 -13 14 -23 -1 -17 -2 -17 -6 0 -2 9 -11 17 -19 17 -8
0 -14 9 -14 20 0 14 6 20 23 19 16 -1 18 -2 5 -6z m140 -53 c0 -9 -3 -7 -8 5
-5 11 -8 29 -8 40 0 16 2 15 8 -5 4 -14 8 -32 8 -40z m19 38 c-3 -8 -6 -5 -6
6 -1 11 2 17 5 13 3 -3 4 -12 1 -19z m101 -1 c2 -12 -3 -17 -17 -17 -23 0 -29
-16 -8 -23 7 -2 6 -3 -3 -3 -16 1 -25 29 -16 52 8 20 40 14 44 -9z m82 14 c0
-5 -8 -8 -17 -7 -12 1 -20 -9 -24 -29 l-7 -30 -1 31 c0 17 2 34 6 37 9 10 43
8 43 -2z m63 -1 c-31 -12 -29 -24 2 -18 14 3 25 2 25 -2 0 -4 -13 -10 -30 -12
-16 -3 -30 -1 -30 3 0 22 15 39 34 38 21 0 21 0 -1 -9z m162 -50 c8 0 16 12
18 28 4 25 4 25 3 -3 -1 -23 -6 -30 -21 -30 -15 0 -21 8 -22 33 -3 32 -3 32 3
2 3 -16 11 -30 19 -30z m88 53 c-28 -5 -30 -19 -3 -26 28 -7 26 -37 -2 -36
-17 1 -19 2 -5 6 21 5 23 23 3 23 -8 0 -18 5 -21 10 -10 16 4 30 28 29 22 -2
22 -2 0 -6z m97 3 c0 -2 3 -11 6 -20 5 -12 0 -16 -19 -16 -14 0 -28 -6 -30
-12 -4 -8 -6 -7 -6 4 -2 29 11 48 30 48 10 0 19 -2 19 -4z m242 -31 c3 -23 0
-35 -8 -35 -7 0 -10 8 -7 20 3 11 0 27 -7 35 -10 12 -10 15 3 15 10 0 16 -12
19 -35z m92 19 c3 -9 6 -23 5 -32 -1 -10 -4 -6 -8 8 -10 34 -34 31 -42 -5 l-7
-30 -1 31 c0 17 2 34 6 37 12 13 41 7 47 -9z m316 -13 c0 -16 6 -32 13 -34 6
-3 2 -6 -9 -6 -18 -1 -20 3 -16 25 3 16 -1 30 -9 35 -11 7 -10 9 4 9 12 0 17
-8 17 -29z m78 22 c-24 -6 -23 -19 2 -26 28 -7 26 -37 -2 -36 -17 1 -19 2 -5
6 23 6 22 23 -3 23 -11 0 -20 6 -20 13 0 18 10 27 29 26 13 -1 13 -2 -1 -6z
m181 -15 c0 -16 -2 -18 -6 -8 -3 8 -11 18 -17 22 -7 5 -4 8 7 8 11 0 17 -7 16
-22z m87 -23 c-5 -18 -13 -25 -29 -24 l-22 0 23 9 c15 7 22 18 23 37 0 15 3
22 6 15 3 -7 2 -24 -1 -37z m64 16 c0 -16 6 -32 13 -34 6 -3 2 -6 -9 -6 -18
-1 -20 3 -16 25 3 16 -1 30 -9 35 -11 7 -10 9 4 9 12 0 17 -8 17 -29z m429 7
c0 -22 -1 -22 -9 -3 -7 17 -9 16 -10 -10 l-2 -30 -8 30 c-7 29 -9 28 -23 -15
-3 -8 -6 -3 -6 11 -1 32 6 39 36 39 17 0 23 -5 22 -22z m78 -18 c1 -19 -1 -27
-3 -17 -3 9 -12 17 -20 17 -17 0 -19 -16 -1 -23 7 -3 5 -6 -5 -6 -25 -1 -23
30 2 36 25 7 26 20 3 27 -14 4 -14 4 2 3 15 -2 20 -10 22 -37z m155 5 c3 -30
1 -35 -17 -34 -11 0 -14 3 -7 6 6 2 12 15 12 28 0 13 -6 26 -12 28 -8 4 -7 6
3 6 12 1 18 -9 21 -34z m55 -17 c-2 -13 -4 -5 -4 17 -1 22 1 32 4 23 2 -10 2
-28 0 -40z m39 11 c2 -31 1 -31 -3 -4 -3 16 -10 34 -16 38 -8 6 -7 7 3 4 9 -2
16 -17 16 -38z m82 -6 c-2 -34 -7 -48 -18 -49 -9 0 -10 1 -2 3 15 5 17 83 2
83 -18 0 -23 -29 -9 -48 13 -15 12 -16 -3 -3 -31 24 -22 61 14 61 16 0 19 -7
16 -47z m154 12 c3 -30 1 -35 -17 -34 -11 0 -14 3 -7 6 6 2 12 15 12 28 0 13
-6 26 -12 28 -8 4 -7 6 3 6 12 1 18 -9 21 -34z m250 0 c3 -30 1 -35 -17 -34
-11 0 -14 3 -7 6 6 2 12 15 12 28 0 13 -6 26 -12 28 -8 4 -7 6 3 6 12 1 18 -9
21 -34z m95 -5 c1 -33 1 -33 -5 -6 -8 32 -32 48 -32 21 0 -9 -4 -14 -10 -10
-17 10 2 36 24 33 16 -2 21 -11 23 -38z m77 31 c4 -5 -3 -7 -14 -4 -16 4 -20
0 -20 -22 0 -22 4 -26 20 -22 11 3 18 1 14 -4 -3 -5 -14 -9 -25 -9 -14 0 -19
7 -19 28 0 16 3 32 7 35 9 10 31 9 37 -2z m83 -16 c1 -16 1 -16 -3 -2 -8 27
-34 21 -34 -9 0 -22 4 -25 21 -21 16 4 19 3 11 -5 -16 -16 -42 -1 -42 25 0 13
3 27 7 31 13 13 38 1 40 -19z m89 -8 c1 -25 1 -26 -3 -2 -6 36 -36 29 -44 -10
-6 -29 -6 -28 -8 8 -1 36 1 38 27 35 22 -2 27 -8 28 -31z m79 -1 c0 -16 -6
-30 -13 -32 -7 -1 -8 0 -2 3 13 6 13 40 -1 48 -15 10 -22 -1 -21 -35 0 -16 -2
-32 -6 -34 -4 -2 -7 16 -7 40 0 42 2 45 25 42 20 -2 25 -9 25 -32z m83 -4 c3
-31 1 -33 -23 -30 -32 4 -35 20 -6 33 26 12 27 22 4 29 -14 4 -14 4 2 3 15 -2
21 -11 23 -35z m154 3 c3 -30 1 -35 -17 -34 -11 0 -14 3 -7 6 6 2 12 15 12 28
0 13 -6 26 -12 28 -8 4 -7 6 3 6 12 1 18 -9 21 -34z m58 19 c0 -8 -5 -12 -10
-9 -6 4 -8 11 -5 16 9 14 15 11 15 -7z m35 -20 c0 -22 -5 -30 -21 -32 -13 -2
-24 4 -28 15 -6 14 -5 16 5 6 31 -30 56 5 27 36 -11 11 -10 13 2 9 9 -3 15
-17 15 -34z m163 13 c2 -12 -3 -17 -17 -17 -23 0 -29 -16 -8 -23 7 -2 6 -3 -3
-3 -16 1 -25 29 -16 52 8 20 40 14 44 -9z m131 -37 c1 -13 0 -13 -9 0 -5 8 -9
26 -9 40 l1 25 8 -25 c4 -14 8 -32 9 -40z m18 38 c-3 -8 -6 -5 -6 6 -1 11 2
17 5 13 3 -3 4 -12 1 -19z m83 -7 c0 -16 6 -32 13 -34 6 -3 2 -6 -9 -6 -18 -1
-20 3 -16 25 3 16 -1 30 -9 35 -11 7 -10 9 4 9 12 0 17 -8 17 -29z m424 20 c3
-5 -2 -8 -11 -7 -12 1 -20 -9 -24 -29 -6 -29 -7 -29 -8 8 -1 30 2 37 18 37 11
0 22 -4 25 -9z m84 -7 c13 -24 3 -54 -19 -54 -19 0 -38 22 -23 27 5 2 16 8 24
13 13 9 13 11 0 20 -9 6 -10 10 -3 10 7 0 16 -7 21 -16z m250 -7 c2 -12 -3
-17 -17 -17 -23 0 -29 -16 -8 -23 7 -2 6 -3 -3 -3 -16 1 -25 29 -16 52 8 20
40 14 44 -9z m138 -4 c-7 -7 -26 7 -26 19 0 6 6 6 15 -2 9 -7 13 -15 11 -17z
m-5356 -28 c8 0 17 11 21 25 4 14 7 18 8 8 2 -28 -10 -48 -29 -48 -19 0 -31
20 -29 48 1 10 4 6 8 -8 4 -14 13 -25 21 -25z m1957 13 c-3 -7 -5 -2 -5 12 0
14 2 19 5 13 2 -7 2 -19 0 -25z m2439 -26 c-11 -10 -15 4 -8 28 l7 25 3 -23
c2 -13 1 -26 -2 -30z m-5116 18 c0 -15 -7 -20 -25 -20 -24 0 -34 18 -18 33 15
15 43 7 43 -13z m1156 -17 c-11 -11 -17 4 -9 23 7 18 8 18 11 1 2 -10 1 -21
-2 -24z m4211 15 c-3 -8 -6 -5 -6 6 -1 11 2 17 5 13 3 -3 4 -12 1 -19z m480
-17 c-5 -2 -13 3 -18 10 -15 24 -10 30 9 12 10 -10 14 -20 9 -22z m-978 2 c2
-2 -3 -3 -11 -3 -9 0 -19 7 -22 16 -6 15 -4 15 11 3 10 -7 20 -15 22 -16z
m-2229 7 c0 -5 -5 -10 -11 -10 -5 0 -7 5 -4 10 3 6 8 10 11 10 2 0 4 -4 4 -10z
m250 -6 c0 -2 -7 -4 -15 -4 -8 0 -15 4 -15 10 0 5 7 7 15 4 8 -4 15 -8 15 -10z
m3445 6 c3 -5 1 -10 -4 -10 -6 0 -11 5 -11 10 0 6 2 10 4 10 3 0 8 -4 11 -10z
m-6168 -6 c-3 -3 -12 -4 -19 -1 -8 3 -5 6 6 6 11 1 17 -2 13 -5z m1226 -1 c-7
-2 -19 -2 -25 0 -7 3 -2 5 12 5 14 0 19 -2 13 -5z m334 1 c-3 -3 -12 -4 -19
-1 -8 3 -5 6 6 6 11 1 17 -2 13 -5z m1307 -9 c-4 -8 -8 -15 -10 -15 -2 0 -4 7
-4 15 0 8 4 15 10 15 5 0 7 -7 4 -15z m-3137 -377 c-3 -8 -6 -5 -6 6 -1 11 2
17 5 13 3 -3 4 -12 1 -19z m1403 -22 c0 -24 5 -47 10 -49 6 -3 5 -4 -2 -3 -7
1 -14 20 -16 42 -2 21 -9 42 -15 46 -8 5 -6 8 6 8 14 0 17 -9 17 -44z m78 -3
c-1 -48 -1 -48 -5 -8 -3 22 -10 43 -16 47 -8 5 -6 8 6 8 14 0 17 -8 15 -47z
m564 -5 c-3 -61 -12 -60 -12 2 0 29 3 50 7 47 3 -4 6 -26 5 -49z m868 1 c0
-27 -3 -48 -8 -46 -6 4 -7 22 -3 85 1 6 3 12 6 12 3 0 5 -23 5 -51z m330 2 c0
-42 -3 -49 -17 -46 -10 2 -21 4 -25 4 -11 1 -10 59 1 65 5 3 8 -6 7 -22 0 -15
4 -27 9 -27 9 0 11 8 14 58 2 39 11 14 11 -32z m220 5 c0 -27 5 -46 13 -49 7
-2 6 -3 -3 -3 -10 1 -16 14 -18 41 -2 22 -9 43 -15 47 -8 5 -6 8 6 8 14 0 17
-9 17 -44z m187 -33 c-2 -16 -4 -3 -4 27 0 30 2 43 4 28 2 -16 2 -40 0 -55z
m1903 26 c0 -27 -3 -48 -8 -46 -6 4 -7 22 -3 85 1 6 3 12 6 12 3 0 5 -23 5
-51z m157 -16 c-2 -16 -4 -5 -4 22 0 28 2 40 4 28 2 -13 2 -35 0 -50z m910 61
c-3 -3 -12 -4 -19 -1 -8 3 -5 6 6 6 11 1 17 -2 13 -5z m990 0 c-3 -3 -12 -4
-19 -1 -8 3 -5 6 6 6 11 1 17 -2 13 -5z m2123 -38 c0 -27 5 -46 13 -49 7 -2 6
-3 -3 -3 -10 1 -16 14 -18 41 -2 22 -9 43 -15 47 -8 5 -6 8 6 8 14 0 17 -9 17
-44z m-10710 21 c11 17 11 17 5 -2 -4 -11 -10 -33 -14 -48 -6 -27 -7 -25 -17
19 -9 39 -9 44 2 30 12 -16 13 -16 24 1z m2067 -19 c-3 -7 -5 -2 -5 12 0 14 2
19 5 13 2 -7 2 -19 0 -25z m655 14 c-15 -5 -16 -58 -2 -65 6 -3 5 -4 -2 -3 -7
1 -15 13 -16 27 -2 13 -8 29 -13 36 -12 13 8 23 30 15 10 -4 11 -7 3 -10z
m660 0 c-15 -5 -16 -58 -2 -65 6 -3 5 -4 -2 -3 -7 1 -15 13 -16 27 -2 13 -8
29 -13 36 -12 13 8 23 30 15 10 -4 11 -7 3 -10z m48 -32 l-9 -35 2 43 c0 23 4
39 8 35 4 -5 4 -24 -1 -43z m1768 32 c-11 -2 -19 -14 -19 -30 l-2 -27 -4 28
c-2 15 -10 27 -16 27 -8 0 -7 3 2 9 7 5 23 6 35 3 18 -5 18 -7 4 -10z m1644 0
c-16 -5 -15 -44 1 -61 10 -11 9 -13 -3 -9 -8 3 -16 19 -18 36 -2 18 -9 32 -15
32 -8 0 -7 4 2 9 8 5 21 6 30 3 10 -4 11 -7 3 -10z m910 0 c-7 -2 -13 -18 -13
-35 -2 -28 -2 -29 -6 -7 -3 14 -9 30 -14 37 -12 13 8 23 30 15 10 -4 11 -7 3
-10z m2390 -1 c-6 -3 -12 -20 -15 -36 l-4 -30 -2 33 c0 18 -6 32 -13 32 -9 0
-9 3 1 9 8 5 21 7 28 4 9 -4 11 -8 5 -12z m-10084 -11 c-10 -16 -10 -24 1 -42
13 -21 13 -22 -2 -9 -20 16 -22 42 -5 59 18 18 20 15 6 -8z m282 3 c0 -2 -8
-3 -17 -1 -13 2 -18 -4 -18 -22 0 -19 5 -24 20 -22 15 2 17 1 6 -7 -8 -5 -20
-7 -28 -4 -17 6 -17 60 0 66 12 4 37 -2 37 -10z m169 -32 l-2 -26 -4 25 c-3
14 -10 32 -16 40 -11 13 -10 13 6 1 9 -7 16 -25 16 -40z m136 -14 c5 -1 13 12
16 28 l7 30 1 -31 c0 -18 -5 -34 -11 -36 -26 -10 -38 4 -37 40 l2 37 6 -33 c3
-18 10 -34 16 -35z m100 53 c3 -6 -1 -7 -9 -4 -22 8 -20 -13 2 -25 9 -6 13
-10 7 -11 -20 0 -38 18 -32 34 7 18 23 21 32 6z m83 -2 c15 -15 16 -28 2 -28
-5 0 -9 6 -7 13 1 6 -6 11 -15 11 -10 -1 -15 2 -12 7 7 12 18 11 32 -3z m380
-53 c0 -16 -2 -15 -8 5 -4 14 -8 34 -8 45 0 16 2 15 8 -5 4 -14 8 -34 8 -45z
m121 16 l-2 -36 -6 35 c-5 28 -10 34 -26 32 -16 -2 -17 -1 -6 7 25 16 41 1 40
-38z m170 0 l-2 -26 -4 25 c-3 14 -10 32 -16 40 -11 13 -10 13 6 1 9 -7 16
-25 16 -40z m61 15 c0 -19 6 -37 13 -39 6 -3 -1 -5 -18 -5 -16 0 -24 2 -17 5
6 2 12 17 12 33 0 16 -6 31 -12 33 -8 3 -6 6 5 6 13 1 17 -7 17 -33z m57 -28
c-2 -13 -4 -3 -4 22 0 25 2 35 4 23 2 -13 2 -33 0 -45z m42 18 c-2 -27 -2 -28
-6 -6 -3 14 -10 31 -15 38 -8 9 -7 11 6 6 10 -4 16 -17 15 -38z m53 32 c-17
-17 -15 -48 2 -48 8 0 17 6 19 13 3 7 6 4 6 -6 1 -14 -5 -18 -21 -15 -27 3
-38 46 -16 59 19 12 24 11 10 -3z m145 -50 c-2 -13 -4 -3 -4 22 0 25 2 35 4
23 2 -13 2 -33 0 -45z m133 22 c0 -16 -6 -30 -12 -33 -24 -8 -38 5 -38 33 0
16 6 30 13 33 23 8 37 -5 37 -33z m48 20 c-10 -16 -10 -24 -1 -40 11 -16 10
-18 -2 -14 -28 11 -18 64 13 73 1 1 -3 -8 -10 -19z m106 12 c2 -4 -4 -8 -14
-8 -10 0 -16 4 -14 8 3 4 9 8 14 8 5 0 11 -4 14 -8z m176 -35 c0 -34 -12 -30
-14 5 -1 17 -7 22 -21 20 -16 -2 -17 -1 -6 7 23 15 41 1 41 -32z m488 31 c17
-17 15 -43 -3 -58 -11 -9 -19 -10 -26 -3 -8 8 -6 11 7 10 14 -2 19 5 19 23 0
18 -5 25 -17 24 -10 -1 -15 2 -12 7 7 12 18 11 32 -3z m167 -6 c-3 -3 -11 0
-18 7 -9 10 -8 11 6 5 10 -3 15 -9 12 -12z m83 -13 c-3 -8 -7 -3 -11 10 -4 17
-3 21 5 13 5 -5 8 -16 6 -23z m80 19 c28 -28 -3 -83 -33 -58 -8 7 -15 20 -15
29 0 17 18 41 30 41 3 0 11 -5 18 -12z m341 -37 l-2 -26 -4 25 c-3 14 -10 32
-16 40 -11 13 -10 13 6 1 9 -7 16 -25 16 -40z m81 21 c0 -8 -1 -13 -3 -11 -1
2 -9 12 -16 22 -12 15 -12 17 3 11 9 -3 16 -13 16 -22z m144 12 c3 -9 6 -24 6
-34 0 -10 6 -21 13 -23 6 -3 -4 -6 -23 -6 -28 0 -32 2 -17 10 20 12 22 40 5
57 -8 8 -8 12 -1 12 6 0 14 -7 17 -16z m105 -33 l-2 -26 -4 25 c-3 14 -10 32
-16 40 -11 13 -10 13 6 1 9 -7 16 -25 16 -40z m46 9 c0 -45 -1 -47 -13 -22 -8
14 0 62 10 62 2 0 3 -18 3 -40z m95 12 c0 -15 5 -33 12 -40 9 -9 5 -12 -17
-11 -17 0 -24 3 -17 6 6 2 12 17 12 33 0 16 -6 31 -12 33 -8 3 -6 6 5 6 12 1
17 -7 17 -27z m170 -6 c0 -19 6 -37 13 -39 6 -3 -1 -6 -17 -6 -23 -1 -27 2
-18 11 16 16 15 55 0 61 -8 3 -6 6 5 6 13 1 17 -7 17 -33z m137 -18 c-2 -13
-4 -5 -4 17 -1 22 1 32 4 23 2 -10 2 -28 0 -40z m43 18 c0 -23 -6 -36 -17 -41
-15 -5 -16 -4 -5 6 6 7 12 26 12 41 0 15 2 28 5 28 3 0 5 -15 5 -34z m295 -5
c0 -22 -3 -37 -7 -35 -14 9 -8 74 6 74 1 0 1 -18 1 -39z m83 19 c-10 -16 -10
-24 1 -42 13 -21 13 -22 -2 -9 -28 22 -22 60 11 70 1 1 -3 -8 -10 -19z m200 0
c5 -13 3 -13 -11 -1 -18 14 -20 12 -30 -34 -3 -11 -5 -4 -6 16 -1 31 2 36 21
35 12 0 24 -8 26 -16z m66 14 c9 -3 16 -14 16 -23 -1 -14 -2 -14 -11 2 -6 9
-14 15 -20 12 -12 -8 -12 -52 1 -58 6 -3 5 -4 -2 -3 -14 3 -23 40 -14 62 6 16
8 16 30 8z m91 -4 c3 -6 -1 -7 -9 -4 -21 8 -32 -23 -18 -47 10 -15 9 -17 -3
-13 -18 7 -20 45 -3 62 15 15 25 15 33 2z m79 2 c2 -4 -4 -8 -14 -8 -10 0 -16
4 -14 8 3 4 9 8 14 8 5 0 11 -4 14 -8z m156 -20 c0 -15 5 -33 12 -40 9 -9 5
-12 -17 -11 -17 0 -24 3 -17 6 6 2 12 17 12 33 0 16 -6 31 -12 33 -8 3 -6 6 5
6 12 1 17 -7 17 -27z m68 8 c-10 -16 -10 -24 -1 -40 11 -16 10 -18 -2 -14 -28
11 -18 64 13 73 1 1 -3 -8 -10 -19z m120 -25 c-2 -12 -7 -7 -15 16 -12 30 -11
32 3 17 9 -8 14 -23 12 -33z m139 23 c-3 -8 -6 -5 -6 6 -1 11 2 17 5 13 3 -3
4 -12 1 -19z m184 5 c13 -16 12 -17 -3 -4 -10 7 -18 15 -18 17 0 8 8 3 21 -13z
m88 -37 l-2 -31 -4 30 c-3 17 -10 37 -16 45 -10 13 -10 13 6 1 10 -8 16 -25
16 -45z m61 20 c0 -19 6 -37 13 -39 6 -3 -1 -5 -18 -5 -16 0 -24 2 -17 5 6 2
12 17 12 33 0 16 -6 31 -12 33 -8 3 -6 6 5 6 13 1 17 -7 17 -33z m148 14 c-17
-27 3 -50 27 -30 13 11 15 9 11 -11 -3 -13 -5 -27 -5 -31 -1 -5 -9 -8 -18 -8
-16 1 -15 2 2 12 19 12 19 12 -5 18 -28 7 -38 34 -20 55 18 21 22 18 8 -5z
m112 9 c12 -8 9 -9 -9 -4 -19 6 -23 4 -18 -9 4 -9 2 -16 -3 -16 -11 0 -13 23
-3 33 9 9 15 9 33 -4z m145 1 c-3 -5 -12 -10 -18 -10 -7 0 -6 4 3 10 19 12 23
12 15 0z m155 -10 c-8 -14 -8 -26 0 -40 6 -11 8 -20 6 -20 -3 0 -10 9 -16 20
-10 19 1 60 16 60 2 0 0 -9 -6 -20z m168 0 c-10 -16 -10 -24 -1 -40 11 -16 10
-18 -2 -14 -28 11 -18 64 13 73 1 1 -3 -8 -10 -19z m106 11 c3 -5 -2 -8 -11
-7 -12 1 -17 -7 -17 -24 0 -18 5 -25 18 -23 13 1 15 -2 7 -10 -13 -13 -41 8
-41 32 0 29 32 52 44 32z m165 0 c16 -10 8 -41 -11 -41 -10 0 -10 2 1 9 7 5
10 14 7 20 -11 17 -26 3 -26 -25 0 -21 4 -24 23 -19 19 5 20 4 4 -5 -23 -15
-37 -4 -37 29 0 39 12 49 39 32z m53 -35 c-6 -48 -12 -46 -12 5 0 22 4 38 8
35 4 -3 6 -21 4 -40z m36 19 c-3 -3 -9 2 -12 12 -6 14 -5 15 5 6 7 -7 10 -15
7 -18z m152 -9 c0 -19 6 -37 13 -39 6 -3 -1 -5 -18 -5 -16 0 -24 2 -17 5 6 2
12 17 12 33 0 16 -6 31 -12 33 -8 3 -6 6 5 6 13 1 17 -7 17 -33z m57 -18 c-2
-13 -4 -5 -4 17 -1 22 1 32 4 23 2 -10 2 -28 0 -40z m42 8 c-2 -27 -2 -28 -6
-6 -3 14 -10 31 -15 38 -8 9 -7 11 6 6 10 -4 16 -17 15 -38z m81 16 c0 -13 -3
-12 -14 4 -14 18 -15 18 -22 0 -4 -10 -2 -27 4 -37 10 -15 9 -17 -3 -13 -18 7
-20 61 -2 67 19 6 37 -4 37 -21z m150 -6 c0 -19 6 -37 13 -39 6 -3 -1 -6 -17
-6 -23 -1 -27 2 -18 11 16 16 15 55 0 61 -8 3 -6 6 5 6 13 1 17 -7 17 -33z
m88 16 c-10 -2 -18 -9 -18 -15 0 -7 -4 -6 -9 3 -14 20 -5 29 22 22 18 -5 19
-7 5 -10z m261 -31 l-2 -26 -4 25 c-3 14 -10 32 -16 40 -11 13 -10 13 6 1 9
-7 16 -25 16 -40z m65 43 c9 -3 16 -16 15 -28 0 -21 0 -21 -9 2 -13 32 -30 27
-30 -9 0 -26 3 -30 18 -24 13 5 14 3 5 -6 -17 -17 -33 -2 -33 30 0 38 7 45 34
35z m79 -37 c7 4 8 0 4 -11 -4 -10 -7 -23 -8 -29 -1 -16 -27 54 -27 73 0 8 4
3 10 -13 5 -15 14 -24 21 -20z m172 33 c3 -5 0 -7 -8 -4 -17 6 -29 -19 -20
-42 3 -8 12 -13 20 -10 8 3 11 1 8 -4 -19 -30 -52 18 -35 50 12 22 25 26 35
10z m79 4 c21 -8 21 -60 0 -68 -23 -9 -34 2 -34 33 0 38 7 45 34 35z m170 -3
c3 -5 -2 -8 -12 -7 -20 1 -24 -30 -8 -54 10 -13 9 -13 -6 -1 -21 16 -23 42 -6
59 14 14 25 15 32 3z m164 -9 c-11 -2 -19 -14 -19 -30 l-2 -27 -4 28 c-2 15
-10 27 -16 27 -8 0 -7 3 2 9 7 5 23 6 35 3 18 -5 18 -7 4 -10z m54 -22 c-6
-41 -12 -38 -12 6 0 19 4 33 8 30 5 -3 7 -19 4 -36z m36 15 c-3 -3 -9 2 -12
12 -6 14 -5 15 5 6 7 -7 10 -15 7 -18z m50 5 c-10 -16 -10 -24 1 -42 13 -21
13 -22 -2 -9 -20 16 -22 42 -5 59 18 18 20 15 6 -8z m69 -42 c-2 -13 -4 -3 -4
22 0 25 2 35 4 23 2 -13 2 -33 0 -45z m196 19 c7 4 8 0 4 -11 -4 -10 -7 -23
-8 -29 -1 -16 -27 54 -27 73 0 8 4 3 10 -13 5 -15 14 -24 21 -20z m65 23 c-10
-16 -10 -24 1 -42 13 -21 13 -22 -2 -9 -20 16 -22 42 -5 59 18 18 20 15 6 -8z
m159 -42 c-2 -13 -4 -3 -4 22 0 25 2 35 4 23 2 -13 2 -33 0 -45z m41 37 c-3
-3 -9 2 -12 12 -6 14 -5 15 5 6 7 -7 10 -15 7 -18z m160 4 c3 -12 2 -12 -6 0
-12 17 -32 6 -32 -19 0 -24 20 -36 31 -19 6 9 9 10 9 2 0 -19 -20 -26 -35 -13
-18 15 -19 42 -3 58 15 15 30 11 36 -9z m129 -31 c-2 -13 -4 -5 -4 17 -1 22 1
32 4 23 2 -10 2 -28 0 -40z m42 3 c-2 -34 -2 -34 -6 -6 -3 17 -10 36 -15 43
-8 9 -7 11 6 6 11 -4 16 -17 15 -43z m156 39 c3 -6 -1 -7 -9 -4 -9 3 -16 1
-16 -5 0 -7 7 -14 15 -17 8 -4 15 -12 15 -19 0 -20 -20 -29 -33 -16 -9 9 -8
11 6 6 22 -9 23 11 0 23 -10 6 -14 16 -10 26 7 18 23 21 32 6z m80 0 c4 -6 3
-10 -2 -9 -26 5 -35 -3 -31 -26 3 -13 1 -22 -3 -19 -15 9 -10 43 9 53 21 13
20 13 27 1z m52 -42 c-2 -13 -4 -5 -4 17 -1 22 1 32 4 23 2 -10 2 -28 0 -40z
m103 42 c0 -5 -7 -7 -15 -4 -8 4 -15 8 -15 10 0 2 7 4 15 4 8 0 15 -4 15 -10z
m98 -11 c3 -12 2 -12 -6 0 -14 20 -35 3 -29 -25 2 -12 0 -29 -4 -36 -6 -8 -9
3 -9 29 0 39 11 55 34 49 6 -1 11 -9 14 -17z m143 12 c-7 -5 -10 -14 -7 -20 4
-6 2 -11 -3 -11 -12 0 -15 23 -4 33 3 4 11 7 17 7 6 0 5 -4 -3 -9z m187 -12
c3 -12 2 -12 -6 0 -12 17 -32 6 -32 -19 0 -24 20 -36 31 -19 6 9 9 10 9 2 0
-19 -20 -26 -35 -13 -18 15 -19 42 -3 58 15 15 30 11 36 -9z m83 4 c13 -16 12
-17 -3 -4 -10 7 -18 15 -18 17 0 8 8 3 21 -13z m126 -60 c-2 -16 -4 -3 -4 27
0 30 2 43 4 28 2 -16 2 -40 0 -55z m41 43 c2 -16 -2 -34 -8 -40 -9 -8 -10 -4
-5 17 5 17 2 33 -6 44 -12 14 -12 16 1 11 8 -2 16 -17 18 -32z m240 25 c19
-11 12 -85 -8 -87 -9 0 -10 1 -2 3 19 7 14 23 -8 23 -15 0 -20 7 -20 28 0 40
12 50 38 33z m72 -21 c0 -17 7 -33 18 -39 14 -8 10 -10 -18 -10 -19 0 -29 3
-22 6 6 2 12 17 12 33 0 16 -6 31 -12 33 -8 3 -6 6 5 6 12 1 17 -7 17 -29z
m95 19 c11 -17 -1 -21 -15 -4 -8 9 -8 15 -2 15 6 0 14 -5 17 -11z m80 1 c3 -6
-1 -7 -9 -4 -24 9 -19 -14 5 -27 20 -10 20 -12 5 -27 -13 -13 -18 -14 -28 -3
-11 10 -10 11 3 6 10 -4 20 -2 23 4 4 5 -3 12 -14 16 -11 3 -20 12 -20 19 0
24 23 35 35 16z m-10982 -57 c7 2 15 17 18 33 7 29 7 29 8 3 0 -15 -6 -33 -15
-40 -14 -11 -18 -10 -30 6 -8 10 -14 28 -13 39 0 14 4 10 10 -12 6 -19 15 -32
22 -29z m266 25 c0 -18 -3 -27 -6 -20 -2 6 -12 12 -20 12 -13 0 -13 -3 -3 -15
11 -13 10 -14 -4 -9 -22 8 -20 25 4 31 11 3 20 12 20 19 0 8 2 14 5 14 3 0 5
-15 4 -32z m51 22 c0 -5 -4 -10 -10 -10 -5 0 -10 5 -10 10 0 6 5 10 10 10 6 0
10 -4 10 -10z m757 -12 c-3 -8 -6 -5 -6 6 -1 11 2 17 5 13 3 -3 4 -12 1 -19z
m147 -5 c-10 -40 -14 -41 -14 -5 0 18 5 32 10 32 6 0 8 -11 4 -27z m80 0 c-10
-40 -14 -41 -14 -5 0 18 5 32 10 32 6 0 8 -11 4 -27z m436 17 c0 -5 -2 -10 -4
-10 -3 0 -8 5 -11 10 -3 6 -1 10 4 10 6 0 11 -4 11 -10z m17 -37 c-3 -10 -5
-2 -5 17 0 19 2 27 5 18 2 -10 2 -26 0 -35z m1064 17 c12 0 12 -27 -1 -35 -5
-3 -18 -1 -27 5 -16 9 -15 10 5 5 28 -8 29 10 2 25 -11 6 -20 15 -20 21 0 6 7
3 16 -5 8 -9 20 -16 25 -16z m217 -30 c0 -9 -3 -7 -8 5 -5 11 -8 29 -8 40 0
16 2 15 8 -5 4 -14 8 -32 8 -40z m334 11 c-4 -10 1 -12 19 -6 18 5 21 4 9 -4
-8 -6 -19 -11 -23 -11 -11 0 -25 43 -19 59 4 11 7 10 12 -5 4 -10 5 -25 2 -33z
m240 19 c-2 -16 -6 -30 -8 -30 -2 0 -4 14 -4 30 0 17 4 30 8 30 5 0 7 -13 4
-30z m272 -12 c8 -5 8 -10 0 -18 -9 -9 -14 -3 -23 21 -14 40 -14 50 1 24 6
-11 16 -23 22 -27z m13 20 c-3 -8 -6 -5 -6 6 -1 11 2 17 5 13 3 -3 4 -12 1
-19z m330 -25 c-3 -10 -5 -2 -5 17 0 19 2 27 5 18 2 -10 2 -26 0 -35z m330 25
c-3 -8 -6 -5 -6 6 -1 11 2 17 5 13 3 -3 4 -12 1 -19z m47 -14 c-3 -51 -14 -56
-14 -6 0 23 3 42 8 42 4 0 7 -16 6 -36z m613 -11 c-3 -10 -5 -2 -5 17 0 19 2
27 5 18 2 -10 2 -26 0 -35z m45 17 c-2 -16 -6 -30 -8 -30 -2 0 -4 14 -4 30 0
17 4 30 8 30 5 0 7 -13 4 -30z m155 8 c-3 -8 -6 -5 -6 6 -1 11 2 17 5 13 3 -3
4 -12 1 -19z m133 -7 c0 -17 -6 -31 -16 -35 -10 -4 -13 -2 -7 7 8 13 10 18 12
42 2 27 11 16 11 -14z m50 19 c0 -5 -2 -10 -4 -10 -3 0 -8 5 -11 10 -3 6 -1
10 4 10 6 0 11 -4 11 -10z m80 0 c0 -5 -4 -10 -10 -10 -5 0 -10 5 -10 10 0 6
5 10 10 10 6 0 10 -4 10 -10z m157 -37 c-3 -10 -5 -2 -5 17 0 19 2 27 5 18 2
-10 2 -26 0 -35z m40 0 c-3 -10 -5 -2 -5 17 0 19 2 27 5 18 2 -10 2 -26 0 -35z
m93 37 c0 -5 -2 -10 -4 -10 -3 0 -8 5 -11 10 -3 6 -1 10 4 10 6 0 11 -4 11
-10z m240 -22 c0 -23 -3 -29 -9 -19 -8 12 -4 51 5 51 2 0 4 -15 4 -32z m42 2
c-2 -16 -6 -30 -8 -30 -2 0 -4 14 -4 30 0 17 4 30 8 30 5 0 7 -13 4 -30z m655
-17 c-3 -10 -5 -2 -5 17 0 19 2 27 5 18 2 -10 2 -26 0 -35z m53 17 c0 -16 -2
-30 -4 -30 -2 0 -6 14 -8 30 -3 17 -1 30 4 30 4 0 8 -13 8 -30z m699 23 c0 -5
-4 -17 -9 -28 -8 -18 -9 -17 -9 8 -1 15 4 27 9 27 6 0 10 -3 9 -7z m508 -30
c-3 -10 -5 -4 -5 12 0 17 2 24 5 18 2 -7 2 -21 0 -30z m31 6 c-3 -8 -7 -3 -11
10 -4 17 -3 21 5 13 5 -5 8 -16 6 -23z m404 -15 c-6 -12 -9 -7 -9 16 0 23 3
28 9 16 5 -9 5 -23 0 -32z m87 14 c-2 -30 -2 -30 -6 -6 -2 15 -12 29 -21 31
-12 3 -10 5 6 6 19 1 22 -4 21 -31z m278 10 c-3 -8 -6 -5 -6 6 -1 11 2 17 5
13 3 -3 4 -12 1 -19z m40 -35 c-16 -16 -37 -10 -37 10 0 8 3 7 9 -2 13 -20 31
-4 32 27 2 25 2 26 6 3 3 -13 -2 -30 -10 -38z m302 2 l0 -20 -9 20 c-5 11 -9
29 -9 40 l0 20 9 -20 c5 -11 9 -29 9 -40z m18 33 c-3 -8 -6 -5 -6 6 -1 11 2
17 5 13 3 -3 4 -12 1 -19z m970 -25 c-3 -10 -5 -2 -5 17 0 19 2 27 5 18 2 -10
2 -26 0 -35z m320 15 c-3 -7 -5 -2 -5 12 0 14 2 19 5 13 2 -7 2 -19 0 -25z
m40 -25 c-13 -13 -13 -10 -3 22 9 30 12 32 14 15 2 -13 -3 -29 -11 -37z m210
10 c-3 -10 -5 -2 -5 17 0 19 2 27 5 18 2 -10 2 -26 0 -35z m-10217 6 c0 -16 4
-20 18 -14 14 5 15 4 4 -7 -11 -11 -16 -10 -28 6 -16 23 -18 36 -4 36 6 0 10
-9 10 -21z m357 15 c-3 -3 -12 -4 -19 -1 -8 3 -5 6 6 6 11 1 17 -2 13 -5z
m968 -4 c3 -5 -1 -10 -9 -10 -9 0 -16 5 -16 10 0 6 4 10 9 10 6 0 13 -4 16
-10z m1094 -34 c-9 -8 -10 -7 -5 7 3 10 7 24 7 30 1 7 3 4 6 -7 3 -10 -1 -23
-8 -30z m1911 24 c0 -11 -4 -20 -10 -20 -5 0 -10 9 -10 20 0 11 5 20 10 20 6
0 10 -9 10 -20z m490 -6 c0 -14 -4 -23 -9 -20 -5 3 -7 15 -4 26 7 28 13 25 13
-6z m3875 -4 c-4 -12 -9 -19 -12 -17 -3 3 -2 15 2 27 4 12 9 19 12 17 3 -3 2
-15 -2 -27z m488 -7 c7 -10 2 -13 -19 -12 -16 0 -23 3 -16 6 6 2 12 14 13 26
0 15 2 17 6 7 3 -8 10 -21 16 -27z m-9526 5 c-3 -8 -6 -5 -6 6 -1 11 2 17 5
13 3 -3 4 -12 1 -19z m793 7 c0 -8 -4 -15 -10 -15 -5 0 -7 7 -4 15 4 8 8 15
10 15 2 0 4 -7 4 -15z m44 0 c-4 -8 -8 -15 -10 -15 -2 0 -4 7 -4 15 0 8 4 15
10 15 5 0 7 -7 4 -15z m773 -7 c-3 -8 -6 -5 -6 6 -1 11 2 17 5 13 3 -3 4 -12
1 -19z m227 -11 c7 -6 6 -7 -4 -4 -8 2 -16 12 -17 23 -2 13 -1 15 4 4 3 -8 11
-19 17 -23z m2056 23 c-13 -9 -13 -11 0 -21 13 -9 13 -10 0 -6 -22 6 -25 37
-3 37 15 0 16 -2 3 -10z m742 3 c-10 -4 -10 -8 -1 -19 8 -9 8 -14 1 -14 -15 0
-25 18 -17 30 3 6 12 10 18 9 8 0 8 -2 -1 -6z m572 -8 c-4 -8 -8 -15 -10 -15
-2 0 -4 7 -4 15 0 8 4 15 10 15 5 0 7 -7 4 -15z m536 1 c0 -18 -30 -30 -43
-17 -6 6 -2 9 9 8 11 -1 18 4 17 11 -2 6 2 12 7 12 6 0 10 -6 10 -14z m124 3
c-3 -6 0 -16 7 -21 12 -8 11 -9 -1 -5 -18 4 -27 37 -10 37 6 0 8 -5 4 -11z
m753 -11 c-3 -8 -6 -5 -6 6 -1 11 2 17 5 13 3 -3 4 -12 1 -19z m3163 8 c0 -18
-30 -30 -43 -17 -6 6 -2 9 9 8 11 -1 18 4 17 11 -2 6 2 12 7 12 6 0 10 -6 10
-14z m-4656 -11 c-4 -8 -8 -15 -10 -15 -2 0 -4 7 -4 15 0 8 4 15 10 15 5 0 7
-7 4 -15z m-4844 -9 c-7 -7 -13 -7 -20 0 -6 6 -3 10 10 10 13 0 16 -4 10 -10z
m1400 0 c-7 -7 -13 -7 -20 0 -6 6 -3 10 10 10 13 0 16 -4 10 -10z m9070 4 c0
-5 -2 -10 -4 -10 -3 0 -8 5 -11 10 -3 6 -1 10 4 10 6 0 11 -4 11 -10z m-9470
-20 c0 -5 -8 -10 -17 -10 -15 0 -16 2 -3 10 19 12 20 12 20 0z m-1747 -347
c-15 -3 -23 -12 -23 -24 0 -13 7 -19 23 -20 l22 -2 -22 -4 c-13 -2 -24 -13
-26 -26 -2 -12 -5 2 -6 31 -1 51 0 52 27 51 23 -2 24 -2 5 -6z m1556 -30 c-2
-35 -2 -35 -6 -8 -3 16 -10 33 -16 37 -8 5 -6 8 6 8 13 0 17 -8 16 -37z m681
27 c-8 -5 -15 -15 -16 -22 0 -7 -2 -24 -4 -38 -2 -24 -3 -24 -9 5 -9 36 3 65
27 65 14 0 15 -2 2 -10z m8722 -2 c-18 -18 -16 -78 3 -78 18 0 20 26 3 33 -8
3 -5 6 5 6 14 1 18 -5 15 -21 -2 -15 -10 -23 -23 -23 -36 0 -32 94 5 95 2 0
-1 -5 -8 -12z m278 -38 c0 -42 -3 -50 -19 -50 -10 0 -23 6 -29 13 -16 19 -3
57 19 57 11 0 19 7 19 15 0 8 2 15 5 15 3 0 5 -22 5 -50z m55 40 c8 -13 -5
-13 -25 0 -13 8 -13 10 2 10 9 0 20 -4 23 -10z m274 -42 c-2 -48 -2 -49 -8
-18 -6 33 -3 70 5 70 2 0 3 -24 3 -52z m-10517 -5 c-4 -55 -12 -54 -12 2 0 27
3 45 7 41 4 -4 6 -23 5 -43z m1509 19 c-17 -6 -13 -50 4 -55 11 -4 10 -4 -2
-3 -18 1 -34 48 -25 74 3 10 7 10 19 0 10 -8 11 -14 4 -16z m8084 0 c-21 -5
-19 -39 3 -51 16 -10 16 -10 0 -11 -11 0 -21 12 -26 33 -12 45 -6 59 19 44 16
-10 17 -13 4 -15z m57 -19 c-4 -55 -12 -54 -12 2 0 27 3 45 7 41 4 -4 6 -23 5
-43z m1427 19 c-14 -5 -11 -50 4 -55 7 -4 6 -6 -4 -6 -12 -1 -18 9 -21 33 -5
46 0 59 17 43 7 -7 9 -13 4 -15z m-11139 -16 c0 -19 6 -37 13 -39 7 -3 5 -6
-5 -6 -10 -1 -19 2 -19 7 -7 49 -7 72 1 72 6 0 10 -15 10 -34z m6427 -3 c-3
-10 -5 -4 -5 12 0 17 2 24 5 18 2 -7 2 -21 0 -30z m660 15 c-3 -8 -6 -5 -6 6
-1 11 2 17 5 13 3 -3 4 -12 1 -19z m4221 13 c11 -7 11 -9 -2 -14 -21 -8 -20
-33 2 -46 15 -9 15 -10 1 -11 -19 0 -29 20 -29 56 0 25 7 29 28 15z m-12193
-18 c5 -15 4 -16 -6 -5 -20 19 -39 14 -40 -10 0 -13 -3 -17 -6 -10 -8 21 5 42
26 42 10 0 22 -8 26 -17z m79 8 c4 -5 -3 -7 -13 -4 -16 4 -20 -1 -24 -29 l-4
-33 -1 38 c-2 31 1 37 17 37 11 0 22 -4 25 -9z m143 -38 c-3 -10 -5 -2 -5 17
0 19 2 27 5 18 2 -10 2 -26 0 -35z m33 3 c0 -26 -6 -18 -14 19 -5 22 -4 26 4
15 5 -8 10 -24 10 -34z m70 35 c0 -5 -9 -7 -20 -4 -15 4 -20 0 -20 -15 0 -26
19 -39 31 -21 7 11 9 10 9 -4 0 -13 -6 -18 -22 -15 -39 5 -37 68 2 68 11 0 20
-4 20 -9z m84 0 c4 -5 -3 -7 -13 -4 -16 4 -20 -1 -24 -29 l-4 -33 -1 38 c-2
31 1 37 17 37 11 0 22 -4 25 -9z m84 -13 c2 -13 -3 -18 -17 -18 -24 0 -28 -16
-6 -23 11 -4 10 -4 -2 -3 -13 1 -19 11 -21 34 -3 30 -1 33 20 30 12 -2 24 -11
26 -20z m167 5 c5 -15 4 -16 -6 -5 -21 20 -39 14 -40 -15 -1 -18 -3 -22 -6
-10 -3 10 -2 25 1 33 8 20 42 18 51 -3z m82 -23 c1 -23 -1 -27 -4 -10 -7 35
-19 45 -38 30 -8 -7 -15 -8 -15 -3 0 16 13 24 35 21 15 -2 20 -11 22 -38z
m243 25 c0 -8 -2 -15 -4 -15 -2 0 -6 7 -10 15 -3 8 -1 15 4 15 6 0 10 -7 10
-15z m70 -14 c0 -16 6 -32 13 -34 6 -3 -1 -5 -18 -5 -16 0 -24 2 -17 5 6 2 12
15 12 28 0 13 -6 26 -12 28 -8 3 -6 6 5 6 12 1 17 -7 17 -28z m75 20 c-19 -8
-19 -8 3 -20 12 -6 22 -16 22 -22 0 -15 -30 -23 -42 -11 -8 8 -5 9 11 5 11 -3
21 -1 21 5 0 5 -9 12 -20 15 -28 7 -26 37 3 36 21 0 21 -1 2 -8z m229 -15 c-6
-27 12 -44 29 -27 9 9 8 16 -1 31 -7 11 -8 20 -3 20 13 0 23 -34 15 -54 -3 -9
-17 -16 -30 -16 -20 0 -24 5 -24 28 0 26 7 42 17 42 2 0 1 -11 -3 -24z m204 1
c2 -12 -3 -17 -17 -17 -23 0 -29 -16 -8 -23 7 -2 6 -3 -3 -3 -16 1 -25 29 -16
52 8 20 40 14 44 -9z m82 -13 c0 -31 -3 -35 -22 -32 -30 4 -37 38 -9 38 25 0
28 17 4 23 -14 4 -12 5 5 6 19 1 22 -4 22 -35z m68 29 c-24 -6 -23 -19 3 -26
28 -7 19 -31 -12 -34 l-24 -3 25 11 25 11 -22 9 c-13 4 -23 15 -23 24 0 9 8
15 23 14 16 -1 18 -2 5 -6z m100 -15 c2 -13 -3 -18 -17 -18 -25 0 -28 -20 -3
-21 12 0 13 -2 3 -6 -19 -8 -40 23 -34 48 7 25 46 22 51 -3z m145 12 c-14 -6
-23 -18 -23 -31 0 -12 -3 -20 -6 -16 -4 3 -4 18 0 32 5 18 13 25 29 24 l22 0
-22 -9z m80 0 c-31 -12 -29 -24 2 -18 14 3 25 1 25 -3 0 -5 -9 -9 -20 -9 -25
0 -26 -17 -2 -23 14 -4 14 -5 1 -6 -24 -1 -42 25 -34 49 4 12 15 20 28 19 l22
0 -22 -9z m185 -13 c2 -12 -3 -17 -17 -17 -23 0 -29 -16 -8 -23 7 -2 6 -3 -3
-3 -16 1 -25 29 -16 52 8 20 40 14 44 -9z m82 14 c0 -5 -8 -8 -17 -7 -12 1
-20 -9 -24 -29 -6 -29 -7 -29 -8 8 -1 33 2 37 24 37 14 0 25 -4 25 -9z m245
-26 c0 -23 -4 -30 -20 -30 -21 0 -31 25 -21 51 11 28 41 12 41 -21z m1282 -12
c-3 -10 -5 -2 -5 17 0 19 2 27 5 18 2 -10 2 -26 0 -35z m700 0 c-3 -10 -5 -2
-5 17 0 19 2 27 5 18 2 -10 2 -26 0 -35z m1520 0 c-3 -10 -5 -2 -5 17 0 19 2
27 5 18 2 -10 2 -26 0 -35z m4243 18 c0 -16 6 -32 13 -34 6 -3 -1 -5 -18 -5
-16 0 -24 2 -17 5 6 2 12 15 12 28 0 13 -6 26 -12 28 -8 3 -6 6 5 6 12 1 17
-7 17 -28z m54 2 c-10 -40 -14 -41 -14 -5 0 18 5 32 10 32 6 0 8 -11 4 -27z
m42 2 c4 -14 4 -29 0 -32 -3 -4 -6 3 -6 13 0 11 -5 25 -12 32 -9 9 -9 12 0 12
6 0 14 -11 18 -25z m244 15 c0 -5 -2 -10 -4 -10 -3 0 -8 5 -11 10 -3 6 -1 10
4 10 6 0 11 -4 11 -10z m80 0 c0 -5 -6 -7 -14 -4 -8 3 -17 1 -21 -5 -4 -7 5
-11 22 -12 l28 -1 -30 -7 c-37 -9 -38 -8 -30 18 6 21 45 30 45 11z m250 1 c0
-5 -8 -8 -17 -7 -10 0 -20 -9 -24 -24 l-7 -25 -1 26 c-1 14 2 29 6 32 9 10 43
8 43 -2z m84 -7 c3 -9 6 -25 6 -35 0 -16 -6 -20 -27 -17 -35 4 -37 30 -3 39
l25 6 -25 11 c-23 10 -23 11 -4 11 12 1 25 -6 28 -15z m164 -47 c12 -3 10 -5
-5 -6 -20 -1 -23 3 -21 37 1 36 1 36 5 5 3 -19 11 -34 21 -36z m76 54 c4 -5
-3 -7 -14 -4 -11 3 -20 0 -20 -6 0 -6 10 -12 23 -12 l22 -2 -22 -4 c-25 -5
-31 -19 -10 -26 7 -2 6 -3 -3 -3 -16 1 -25 29 -16 52 6 16 32 19 40 5z m138
-17 c-3 -16 1 -30 9 -35 11 -7 10 -9 -3 -9 -14 0 -18 8 -18 35 0 19 4 35 9 35
4 0 6 -12 3 -26z m116 -6 c-2 -25 -8 -33 -23 -33 -20 0 -31 25 -21 51 3 8 15
14 26 14 18 0 21 -5 18 -32z m82 23 c0 -5 -9 -7 -20 -4 -16 4 -20 0 -21 -23
-1 -18 -3 -22 -6 -11 -7 27 4 47 27 47 11 0 20 -4 20 -9z m86 -36 c-10 -41
-57 -24 -55 20 1 17 2 16 8 -5 10 -35 35 -32 40 5 2 17 6 24 8 17 3 -7 2 -24
-1 -37z m64 35 c0 -5 -6 -7 -14 -4 -11 4 -16 -4 -19 -28 l-4 -33 -1 38 c-2 31
1 37 18 37 11 0 20 -4 20 -10z m17 -42 c-2 -13 -4 -5 -4 17 -1 22 1 32 4 23 2
-10 2 -28 0 -40z m81 29 c2 -12 -3 -17 -17 -17 -23 0 -29 -16 -8 -23 7 -2 6
-3 -3 -3 -16 1 -25 29 -16 52 8 20 40 14 44 -9z m81 -9 c-2 -31 -2 -31 -6 -5
-6 38 -31 34 -36 -5 -4 -32 -4 -32 -5 5 -2 33 0 37 23 37 22 0 25 -4 24 -32z
m168 -8 c1 -19 -1 -27 -3 -17 -3 9 -12 17 -20 17 -17 0 -19 -16 -1 -23 7 -4 6
-6 -4 -6 -17 -1 -32 22 -22 33 4 3 15 6 25 6 23 0 24 17 1 24 -14 4 -14 4 2 3
15 -2 20 -10 22 -37z m153 5 c0 -13 6 -26 13 -28 6 -3 -3 -6 -22 -6 -32 -1
-33 0 -16 13 12 8 16 20 12 35 -3 11 -1 19 4 15 5 -3 9 -16 9 -29z m95 15 c7
-22 -10 -50 -29 -50 -6 0 -3 5 7 11 24 14 21 38 -5 49 l-23 9 22 0 c13 1 24
-7 28 -19z m42 -27 c-3 -10 -5 -2 -5 17 0 19 2 27 5 18 2 -10 2 -26 0 -35z
m40 6 c1 -24 0 -26 -4 -9 -3 14 -10 31 -16 39 -10 11 -9 13 3 9 9 -3 16 -18
17 -39z m-8660 -1 c-3 -7 -5 -2 -5 12 0 14 2 19 5 13 2 -7 2 -19 0 -25z m2393
2 c0 -17 -2 -19 -14 -8 -10 9 -11 15 -2 20 16 11 16 10 16 -12z m2640 0 c0
-17 -2 -19 -14 -8 -10 9 -11 15 -2 20 16 11 16 10 16 -12z m987 -12 c-3 -7 -5
-2 -5 12 0 14 2 19 5 13 2 -7 2 -19 0 -25z m2510 10 c-3 -8 -6 -5 -6 6 -1 11
2 17 5 13 3 -3 4 -12 1 -19z m-6650 6 c-3 -3 -12 -4 -19 -1 -8 3 -5 6 6 6 11
1 17 -2 13 -5z m1883 2 c0 -3 -4 -8 -10 -11 -5 -3 -10 -1 -10 4 0 6 5 11 10
11 6 0 10 -2 10 -4z m687 -2 c-3 -3 -12 -4 -19 -1 -8 3 -5 6 6 6 11 1 17 -2
13 -5z m-7587 -19 c-7 -8 -17 -15 -23 -15 -6 0 -2 7 9 15 25 19 30 19 14 0z
m-665 -5 c-3 -5 -14 -10 -23 -9 -14 0 -13 2 3 9 27 11 27 11 20 0z m1495 -6
c0 -2 -7 -4 -15 -4 -8 0 -15 4 -15 10 0 5 7 7 15 4 8 -4 15 -8 15 -10z m10140
6 c0 -5 -8 -10 -17 -10 -15 0 -16 2 -3 10 19 12 20 12 20 0z m-10418 -22 c-7
-7 -12 -8 -12 -2 0 14 12 26 19 19 2 -3 -1 -11 -7 -17z m4305 16 c-3 -3 -12
-4 -19 -1 -8 3 -5 6 6 6 11 1 17 -2 13 -5z m1070 0 c-3 -3 -12 -4 -19 -1 -8 3
-5 6 6 6 11 1 17 -2 13 -5z m330 0 c-3 -3 -12 -4 -19 -1 -8 3 -5 6 6 6 11 1
17 -2 13 -5z m2316 -1 c-7 -2 -19 -2 -25 0 -7 3 -2 5 12 5 14 0 19 -2 13 -5z
m660 0 c-7 -2 -19 -2 -25 0 -7 3 -2 5 12 5 14 0 19 -2 13 -5z m824 1 c-3 -3
-12 -4 -19 -1 -8 3 -5 6 6 6 11 1 17 -2 13 -5z m-4294 -11 c-7 -2 -19 -2 -25
0 -7 3 -2 5 12 5 14 0 19 -2 13 -5z m2640 0 c-7 -2 -19 -2 -25 0 -7 3 -2 5 12
5 14 0 19 -2 13 -5z m410 0 c-7 -2 -19 -2 -25 0 -7 3 -2 5 12 5 14 0 19 -2 13
-5z m-5686 -19 c-3 -3 -12 -4 -19 -1 -8 3 -5 6 6 6 11 1 17 -2 13 -5z m740 0
c-3 -3 -12 -4 -19 -1 -8 3 -5 6 6 6 11 1 17 -2 13 -5z m820 0 c-3 -3 -12 -4
-19 -1 -8 3 -5 6 6 6 11 1 17 -2 13 -5z m4706 -1 c-7 -2 -19 -2 -25 0 -7 3 -2
5 12 5 14 0 19 -2 13 -5z m-9926 -400 c-2 -16 -4 -5 -4 22 0 28 2 40 4 28 2
-13 2 -35 0 -50z m80 15 c-2 -13 -4 -5 -4 17 -1 22 1 32 4 23 2 -10 2 -28 0
-40z m290 -10 c-2 -13 -4 -3 -4 22 0 25 2 35 4 23 2 -13 2 -33 0 -45z m1073
44 c0 -10 -7 -27 -15 -38 -8 -12 -11 -24 -8 -28 3 -3 -1 -6 -10 -6 -22 0 -21
6 4 31 12 12 19 29 16 40 -3 10 -1 19 4 19 5 0 9 -8 9 -18z m221 -10 c-6 -12
-11 -23 -11 -26 0 -12 28 -6 33 7 3 6 5 -1 5 -18 0 -16 -2 -24 -5 -17 -2 6
-13 12 -24 12 -10 0 -19 4 -19 10 0 14 23 61 27 56 3 -2 0 -13 -6 -24z m89 20
c0 -5 -7 -9 -15 -9 -8 0 -12 4 -9 9 3 4 9 8 15 8 5 0 9 -4 9 -8z m-1343 -24
c-3 -8 -6 -5 -6 6 -1 11 2 17 5 13 3 -3 4 -12 1 -19z m580 -40 c-2 -13 -4 -3
-4 22 0 25 2 35 4 23 2 -13 2 -33 0 -45z m195 17 c3 -23 0 -35 -8 -35 -7 0
-10 8 -7 20 3 11 0 27 -7 35 -10 12 -10 15 3 15 10 0 16 -12 19 -35z m92 19
c3 -9 5 -25 5 -37 -1 -16 -3 -14 -8 8 -3 17 -13 30 -21 30 -8 0 -18 -13 -21
-30 -6 -29 -7 -29 -8 8 -1 33 2 37 23 37 13 0 27 -7 30 -16z m226 5 c0 -5 -4
-8 -9 -4 -5 3 -12 -9 -14 -27 -4 -33 -4 -33 -5 5 -2 27 2 37 13 37 8 0 15 -5
15 -11z m30 -26 c0 -32 -5 -28 -14 10 -4 19 -3 26 4 22 5 -3 10 -18 10 -32z
m308 30 c-22 -6 -23 -19 -3 -27 8 -3 14 -13 14 -23 -1 -17 -2 -17 -6 0 -2 9
-11 17 -19 17 -14 0 -19 21 -7 33 3 4 13 6 22 6 13 -1 13 -2 -1 -6z m-2091
-50 c-3 -10 -5 -2 -5 17 0 19 2 27 5 18 2 -10 2 -26 0 -35z m950 5 c-3 -8 -6
-5 -6 6 -1 11 2 17 5 13 3 -3 4 -12 1 -19z m800 -10 c-3 -7 -5 -2 -5 12 0 14
2 19 5 13 2 -7 2 -19 0 -25z m273 -4 c0 -2 -9 -4 -21 -4 -11 0 -18 4 -14 10 5
8 35 3 35 -6z m-1984 -143 c-3 -5 -15 -7 -26 -4 -28 7 -25 13 6 13 14 0 23 -4
20 -9z m707 -40 c2 -22 -1 -41 -5 -41 -4 0 -8 21 -8 47 0 56 10 52 13 -6z m95
2 c-1 -48 -1 -48 -5 -8 -3 22 -10 43 -16 47 -8 5 -6 8 6 8 14 0 17 -8 15 -47z
m479 -20 c-2 -16 -4 -5 -4 22 0 28 2 40 4 28 2 -13 2 -35 0 -50z m353 59 c0
-5 -7 -9 -15 -9 -8 0 -12 4 -9 9 3 4 9 8 15 8 5 0 9 -4 9 -8z m1007 -17 c2
-17 1 -18 -3 -2 -4 13 -12 17 -25 14 -11 -3 -16 -1 -13 4 10 17 39 5 41 -16z
m663 -20 c0 -25 -3 -45 -8 -45 -4 0 -6 20 -4 45 2 25 6 45 8 45 2 0 4 -20 4
-45z m-2238 17 c-15 -5 -16 -58 -2 -65 6 -3 5 -4 -2 -3 -7 1 -14 17 -16 34 -2
18 -9 32 -15 32 -8 0 -7 4 2 9 8 5 21 6 30 3 10 -4 11 -7 3 -10z m1156 0 c-21
-4 -24 -42 -5 -61 10 -10 9 -11 -4 -6 -10 4 -19 21 -21 41 -5 41 -3 44 25 36
18 -5 19 -7 5 -10z m824 0 c-15 -5 -16 -58 -2 -65 6 -3 5 -4 -2 -3 -7 1 -15
13 -16 27 -2 13 -8 29 -13 36 -12 13 8 23 30 15 10 -4 11 -7 3 -10z m410 0
c-15 -5 -16 -58 -2 -65 6 -3 5 -4 -2 -3 -7 1 -14 17 -16 34 -2 18 -9 32 -15
32 -8 0 -7 4 2 9 8 5 21 6 30 3 10 -4 11 -7 3 -10z m-3294 -4 c14 -14 16 -58
3 -58 -4 0 -8 12 -7 28 1 20 -4 27 -16 26 -10 -1 -15 2 -12 7 7 12 18 11 32
-3z m90 -8 c5 -13 3 -13 -11 -1 -14 11 -18 11 -23 -3 -10 -25 3 -46 23 -40 14
5 15 4 4 -4 -8 -6 -20 -8 -28 -5 -14 5 -18 54 -6 67 11 11 36 3 41 -14z m72
10 c-19 -13 -30 -13 -30 0 0 6 10 10 23 10 18 0 19 -2 7 -10z m82 -30 c3 -33
0 -40 -14 -40 -16 0 -16 3 -6 20 10 16 10 24 0 40 -10 16 -10 20 2 20 9 0 15
-14 18 -40z m86 28 c14 -14 16 -44 4 -52 -4 -2 -8 8 -7 22 0 18 -5 27 -15 27
-10 0 -14 -9 -13 -30 1 -28 1 -29 -9 -8 -8 17 -8 27 2 38 15 18 22 19 38 3z
m91 -32 c-2 -27 -2 -28 -6 -6 -3 14 -10 31 -15 38 -8 9 -7 11 6 6 10 -4 16
-17 15 -38z m81 1 c0 -34 -12 -30 -14 5 -1 17 -7 22 -21 20 -16 -2 -17 -1 -6
7 23 15 41 1 41 -32z m234 37 c9 -3 16 -13 16 -22 0 -13 -3 -12 -14 4 -15 20
-19 17 -29 -31 -3 -13 -5 -9 -6 11 -1 40 6 48 33 38z m254 -6 c14 -14 16 -58
3 -58 -4 0 -8 12 -7 28 1 20 -4 27 -16 26 -10 -1 -15 2 -12 7 7 12 18 11 32
-3z m87 2 c3 -6 -1 -7 -9 -4 -18 7 -21 14 -7 14 6 0 13 -4 16 -10z m160 0 c3
-5 0 -7 -8 -4 -8 3 -18 1 -22 -5 -3 -6 -1 -11 6 -11 7 0 10 -3 6 -6 -3 -3 -11
-3 -17 1 -8 5 -8 11 1 21 13 16 25 18 34 4z m75 0 c0 -5 -5 -10 -11 -10 -5 0
-7 5 -4 10 3 6 8 10 11 10 2 0 4 -4 4 -10z m338 -2 c16 -16 15 -25 -4 -32 -14
-5 -15 -4 -5 8 14 16 -2 32 -21 20 -7 -4 -8 -3 -4 4 9 15 19 15 34 0z m140 -8
c-10 -16 -10 -24 -1 -40 11 -16 10 -18 -2 -14 -15 6 -21 55 -8 67 15 15 22 6
11 -13z m108 8 c5 -8 2 -9 -10 -5 -22 9 -33 -19 -18 -44 10 -15 9 -17 -3 -13
-18 7 -20 45 -3 62 15 15 25 15 34 0z m223 -7 c-16 -25 -5 -52 18 -45 14 5 15
4 4 -4 -22 -16 -41 -3 -41 27 0 28 7 41 22 41 4 0 3 -8 -3 -19z m77 -16 c-1
-36 -16 -51 -16 -16 0 18 9 51 14 51 2 0 2 -16 2 -35z m31 -17 c-2 -13 -4 -5
-4 17 -1 22 1 32 4 23 2 -10 2 -28 0 -40z m503 12 c0 -15 -7 -30 -15 -34 -12
-4 -13 -2 -2 14 9 16 9 24 0 40 -11 16 -10 18 2 14 8 -4 15 -19 15 -34z m238
28 c14 -14 16 -44 4 -52 -4 -2 -8 8 -7 22 0 18 -5 27 -15 27 -10 0 -15 -9 -15
-27 1 -14 -3 -24 -7 -22 -18 12 0 64 22 64 3 0 11 -5 18 -12z m143 3 c-8 -5
-12 -19 -9 -35 3 -14 1 -26 -3 -26 -10 0 -12 54 -2 63 3 4 11 7 17 7 6 0 5 -4
-3 -9z m263 3 c9 -3 16 -14 16 -23 -1 -14 -2 -14 -11 2 -15 26 -27 20 -31 -15
-2 -20 -5 -27 -9 -18 -6 14 5 60 15 60 2 0 11 -3 20 -6z m-3534 -44 c0 -22
-22 -32 -41 -18 -11 8 -10 9 4 4 11 -4 20 0 24 11 4 9 1 19 -5 21 -7 2 -12 8
-12 14 0 6 6 6 15 -2 8 -7 15 -20 15 -30z m537 -7 c-3 -10 -5 -2 -5 17 0 19 2
27 5 18 2 -10 2 -26 0 -35z m695 15 c14 -5 3 -38 -13 -38 -8 0 -8 5 1 16 11
13 10 16 -8 21 -12 3 -22 12 -22 20 0 12 2 12 15 0 8 -9 20 -17 27 -19z m83 2
c0 -25 -2 -27 -14 -15 -12 11 -12 17 -1 29 16 20 15 21 15 -14z m567 17 c3 4
3 2 1 -6 -2 -7 2 -20 8 -27 8 -10 8 -14 0 -14 -6 0 -11 5 -11 11 0 8 -4 8 -12
1 -10 -8 -13 -4 -13 18 0 20 3 26 12 19 6 -6 13 -6 15 -2z m95 -9 c-3 -8 -6
-5 -6 6 -1 11 2 17 5 13 3 -3 4 -12 1 -19z m120 -10 c-3 -7 -5 -2 -5 12 0 14
2 19 5 13 2 -7 2 -19 0 -25z m50 0 c-3 -7 -5 -2 -5 12 0 14 2 19 5 13 2 -7 2
-19 0 -25z m163 17 c0 -8 -4 -15 -10 -15 -5 0 -7 7 -4 15 4 8 8 15 10 15 2 0
4 -7 4 -15z m447 -17 c-3 -7 -5 -2 -5 12 0 14 2 19 5 13 2 -7 2 -19 0 -25z
m50 0 c-3 -7 -5 -2 -5 12 0 14 2 19 5 13 2 -7 2 -19 0 -25z m40 -35 c-2 -16
-4 -5 -4 22 0 28 2 40 4 28 2 -13 2 -35 0 -50z m530 20 c-3 -10 -5 -2 -5 17 0
19 2 27 5 18 2 -10 2 -26 0 -35z m-3067 17 c0 -5 -5 -10 -11 -10 -5 0 -7 5 -4
10 3 6 8 10 11 10 2 0 4 -4 4 -10z m1470 0 c0 -5 -4 -10 -10 -10 -5 0 -10 5
-10 10 0 6 5 10 10 10 6 0 10 -4 10 -10z m842 -2 c-17 -17 -15 -26 6 -31 10
-3 6 -5 -10 -6 -16 0 -28 2 -28 6 0 8 31 43 39 43 3 0 0 -5 -7 -12z m-2495 -5
c-4 -3 -2 -12 5 -20 8 -11 7 -12 -6 -7 -18 7 -22 34 -4 34 6 0 8 -3 5 -7z
m490 -15 c-3 -8 -6 -5 -6 6 -1 11 2 17 5 13 3 -3 4 -12 1 -19z m505 15 c-10
-4 -10 -8 -1 -19 10 -12 9 -13 -5 -8 -24 9 -18 35 8 33 6 0 5 -3 -2 -6z m269
-26 c-8 -8 -14 -8 -23 2 -11 10 -10 11 5 6 12 -5 17 -2 18 11 0 12 2 14 6 6 3
-8 0 -19 -6 -25z m1956 18 c0 -8 -4 -15 -9 -15 -4 0 -8 7 -8 15 0 8 4 15 8 15
5 0 9 -7 9 -15z m-3022 -23 c-3 -3 -11 0 -18 7 -9 10 -8 11 6 5 10 -3 15 -9
12 -12z m585 14 c0 -2 -7 -7 -16 -10 -8 -3 -12 -2 -9 4 6 10 25 14 25 6z m735
-6 c3 -5 -3 -10 -15 -10 -12 0 -18 5 -15 10 3 6 10 10 15 10 5 0 12 -4 15 -10z
m155 -4 c-7 -7 -13 -7 -20 0 -6 6 -3 10 10 10 13 0 16 -4 10 -10z m654 -1 c-4
-8 -8 -15 -10 -15 -2 0 -4 7 -4 15 0 8 4 15 10 15 5 0 7 -7 4 -15z m1096 11
c0 -2 -7 -7 -16 -10 -8 -3 -12 -2 -9 4 6 10 25 14 25 6z m1576 -194 l0 -112
-3 110 -4 110 -34 0 -35 0 -2 -112 -2 -113 -3 104 c-2 58 -1 111 2 118 3 10
17 13 42 11 l38 -3 1 -113z m-4237 -7 c13 -33 19 -56 15 -52 -9 9 -44 97 -44
111 0 16 7 3 29 -59z m-885 39 c7 -19 -10 -44 -30 -44 -7 0 -15 -10 -17 -22
-2 -13 -5 1 -6 30 -1 49 1 52 23 52 13 0 27 -7 30 -16z m72 4 c4 -7 3 -8 -4
-4 -7 4 -17 4 -23 0 -7 -4 -1 -15 17 -30 27 -21 28 -24 13 -39 -14 -14 -21
-15 -35 -6 -17 11 -17 11 3 6 22 -6 46 16 25 23 -23 7 -41 32 -36 47 7 18 30
20 40 3z m170 1 c4 -8 0 -9 -15 -4 -19 6 -21 3 -21 -34 0 -42 7 -50 28 -29 8
8 12 8 12 1 0 -13 -28 -25 -41 -17 -10 6 -12 77 -2 87 10 11 31 8 39 -4z m240
-77 c-23 -23 -46 1 -45 47 l1 36 8 -38 c4 -20 10 -40 13 -43 13 -14 27 10 29
49 l1 42 4 -39 c3 -26 -1 -44 -11 -54z m483 81 c-5 -31 3 -82 14 -86 7 -2 6
-3 -3 -3 -10 1 -16 14 -18 36 -2 19 -8 41 -14 47 -8 10 -6 13 6 13 9 0 15 -3
15 -7z m348 -71 c-2 -15 -4 -2 -4 28 0 30 2 43 4 27 2 -15 2 -39 0 -55z m82
-27 c0 -15 -38 78 -38 95 0 8 9 -7 19 -35 11 -27 20 -54 19 -60z m76 55 c0
-42 -3 -50 -19 -50 -14 0 -16 3 -8 13 13 15 11 69 -3 79 -5 4 -1 8 10 8 17 0
20 -7 20 -50z m95 1 c0 -44 -2 -48 -22 -47 -18 1 -24 8 -26 34 -2 17 1 32 5
32 5 0 9 -10 8 -22 0 -13 5 -23 10 -23 9 0 11 8 14 58 2 39 11 14 11 -32z
m248 22 c2 -15 -4 -23 -20 -28 -13 -4 -26 -13 -30 -19 -5 -6 -8 -1 -8 12 0 19
4 22 20 17 14 -4 22 -1 26 10 9 22 -4 31 -25 18 -14 -9 -18 -8 -18 3 0 25 51
13 55 -13z m646 -53 c5 -20 3 -19 -8 5 -7 17 -16 41 -20 55 -5 20 -3 19 8 -5
7 -16 16 -41 20 -55z m53 13 c-2 -16 -4 -5 -4 22 0 28 2 40 4 28 2 -13 2 -35
0 -50z m843 23 c0 -27 5 -46 13 -49 7 -2 6 -3 -3 -3 -10 1 -16 14 -18 41 -2
22 -9 43 -15 47 -8 5 -6 8 6 8 14 0 17 -9 17 -44z m-2954 -53 c-4 -4 -36 73
-35 85 0 4 9 -13 20 -37 11 -24 18 -46 15 -48z m709 42 c0 -19 -3 -35 -7 -35
-3 0 -6 18 -6 40 0 49 11 45 13 -5z m1181 23 c-20 -11 -20 -32 0 -52 8 -9 11
-16 6 -16 -15 0 -30 23 -32 50 -3 37 -2 39 21 33 18 -5 19 -7 5 -15z m1650 0
c-21 -12 -20 -44 2 -57 16 -10 16 -10 0 -11 -11 0 -20 10 -24 28 -3 15 -7 32
-9 39 -5 16 3 22 27 15 18 -4 18 -6 4 -14z m246 4 c-16 -5 -15 -44 1 -61 10
-11 9 -13 -3 -9 -8 3 -16 19 -18 36 -2 18 -9 32 -15 32 -8 0 -7 4 2 9 8 5 21
6 30 3 10 -4 11 -7 3 -10z m660 0 c-15 -5 -16 -58 -2 -65 6 -3 5 -4 -2 -3 -12
3 -30 71 -20 80 2 3 11 2 20 -2 10 -4 12 -7 4 -10z m-4272 -9 c0 -3 -7 -3 -15
0 -8 4 -17 2 -21 -4 -3 -6 3 -13 15 -16 12 -3 21 -12 21 -19 0 -19 -28 -30
-42 -16 -8 8 -5 9 11 5 27 -7 28 13 1 22 -22 7 -27 31 -7 38 13 4 37 -2 37
-10z m79 -17 c0 -20 -1 -20 -10 3 -7 17 -13 21 -20 14 -16 -16 -6 -48 15 -46
11 1 15 -2 9 -8 -5 -5 -17 -7 -26 -3 -20 7 -23 60 -4 67 21 7 37 -4 36 -27z
m81 19 c11 -13 10 -14 -4 -9 -9 3 -16 10 -16 15 0 13 6 11 20 -6z m75 5 c3 -6
-1 -7 -9 -4 -23 9 -19 -13 4 -26 11 -6 20 -15 20 -19 0 -15 -33 -22 -44 -11
-8 8 -6 9 5 5 10 -4 20 -2 23 4 4 5 -3 12 -14 16 -11 3 -20 12 -20 19 0 24 23
35 35 16z m226 -3 c-6 -8 -8 -16 -5 -20 3 -3 1 -14 -5 -24 -9 -16 -10 -15 -11
8 0 14 5 30 12 37 16 16 23 15 9 -1z m608 -21 c0 -19 -1 -19 -8 -3 -11 28 -25
24 -32 -9 l-7 -29 -1 32 c-1 31 12 44 37 35 6 -2 12 -14 11 -26z m213 -10 c-6
-48 -12 -46 -12 5 0 22 4 38 8 35 4 -3 6 -21 4 -40z m118 4 c0 -16 -6 -30 -12
-33 -24 -8 -38 5 -38 33 0 16 6 30 13 33 23 8 37 -5 37 -33z m70 30 c0 -5 -7
-7 -15 -4 -8 4 -15 8 -15 10 0 2 7 4 15 4 8 0 15 -4 15 -10z m88 -2 c17 -17
15 -26 -8 -33 -11 -3 -20 -11 -20 -17 0 -5 7 -7 16 -4 8 3 12 2 9 -4 -19 -30
-52 18 -35 50 12 23 21 25 38 8z m92 -5 c0 -2 -8 -3 -17 -1 -13 2 -19 -5 -21
-25 -3 -26 -1 -28 20 -22 21 5 21 5 4 -6 -35 -22 -57 40 -23 63 10 6 37 0 37
-9z m154 8 c3 -5 -2 -8 -12 -7 -9 0 -16 -5 -14 -12 1 -8 -2 -11 -8 -7 -8 5 -7
11 1 21 13 16 25 18 33 5z m236 -25 c0 -24 5 -36 18 -39 9 -3 1 -5 -18 -6 -24
0 -30 2 -21 8 9 6 12 20 9 40 -2 17 -1 31 4 31 4 0 8 -15 8 -34z m350 17 c0
-2 -8 -3 -17 -1 -13 2 -18 -4 -18 -22 0 -19 5 -24 20 -22 18 2 19 2 2 -8 -9
-6 -22 -8 -27 -5 -14 9 -12 63 3 68 12 4 37 -2 37 -10z m80 -10 c0 -8 -9 -17
-20 -20 -11 -3 -17 -10 -14 -15 3 -5 13 -7 23 -3 11 4 13 3 5 -5 -6 -6 -18 -8
-27 -4 -20 7 -23 60 -4 67 19 6 37 -3 37 -20z m156 15 c4 -6 3 -8 -4 -4 -6 3
-14 1 -17 -5 -4 -6 2 -13 14 -16 12 -3 21 -12 21 -19 0 -19 -28 -30 -42 -16
-8 8 -5 9 11 5 27 -7 28 13 1 22 -22 7 -27 31 -7 38 6 3 13 6 14 6 1 1 5 -4 9
-11z m93 -22 c0 -19 -1 -19 -8 -3 -11 28 -25 24 -32 -9 l-7 -29 -1 32 c-1 31
12 44 37 35 6 -2 12 -14 11 -26z m132 21 c-12 -15 -5 -27 17 -27 9 0 12 6 7
18 -5 13 -3 14 6 5 15 -15 3 -33 -22 -33 -12 0 -17 -4 -14 -11 4 -6 14 -8 24
-4 12 5 13 4 4 -6 -10 -10 -15 -9 -28 1 -18 15 -20 41 -3 58 16 16 23 15 9 -1z
m118 -36 c-2 -34 -2 -34 -6 -6 -3 17 -10 36 -15 43 -8 9 -7 11 6 6 11 -4 16
-17 15 -43z m61 15 c0 -24 5 -36 18 -39 9 -3 1 -5 -18 -6 -24 0 -30 2 -21 8 9
6 12 20 9 40 -2 17 -1 31 4 31 4 0 8 -15 8 -34z m137 -18 c-2 -13 -4 -5 -4 17
-1 22 1 32 4 23 2 -10 2 -28 0 -40z m368 42 c4 -6 -1 -7 -11 -3 -13 5 -16 3
-11 -10 3 -9 2 -17 -3 -17 -6 0 -10 6 -10 13 0 25 23 36 35 17z m336 -7 c13
-16 12 -17 -3 -4 -10 7 -18 15 -18 17 0 8 8 3 21 -13z m157 -30 c-2 -34 -7
-48 -18 -49 -9 0 -10 1 -2 3 20 7 15 81 -5 86 -13 3 -12 5 5 6 21 1 23 -2 20
-46z m92 19 c0 -13 -2 -13 -13 3 -11 14 -16 15 -22 5 -4 -7 -2 -16 6 -21 12
-7 12 -9 0 -9 -11 0 -11 -3 -1 -15 11 -13 10 -14 -4 -9 -19 7 -22 60 -3 67 19
6 37 -4 37 -21z m250 -3 c0 -4 -5 -11 -10 -14 -6 -4 -9 -2 -8 4 2 5 -6 17 -17
25 -19 16 -19 16 8 5 15 -7 27 -16 27 -20z m-4248 -9 c-6 -39 -12 -39 -12 0 0
17 4 30 8 30 5 0 7 -13 4 -30z m458 1 c0 -10 -8 -25 -17 -32 -16 -13 -17 -12
-4 3 7 10 11 27 8 38 -3 11 -1 18 4 14 5 -3 9 -13 9 -23z m42 -3 c-4 -28 -3
-31 18 -25 16 4 20 3 12 -5 -18 -18 -42 -1 -42 32 0 16 4 30 8 30 5 0 6 -14 4
-32z m36 7 c-3 -3 -9 2 -12 12 -6 14 -5 15 5 6 7 -7 10 -15 7 -18z m44 -1 c-3
-16 1 -30 9 -36 12 -8 11 -9 -1 -5 -16 4 -27 67 -12 67 5 0 7 -12 4 -26z m450
-4 c3 -16 1 -30 -4 -30 -4 0 -8 5 -8 10 0 6 -7 10 -15 10 -17 0 -20 -16 -5
-23 6 -3 5 -4 -2 -3 -23 5 -22 36 1 36 25 0 28 17 4 23 -14 4 -14 5 3 6 17 1
23 -6 26 -29z m168 20 c0 -5 -2 -10 -4 -10 -3 0 -8 5 -11 10 -3 6 -1 10 4 10
6 0 11 -4 11 -10z m658 -22 c-2 -17 -10 -34 -18 -36 -13 -5 -13 -3 -1 11 7 9
11 26 8 37 -3 11 -1 20 5 20 5 0 8 -14 6 -32z m119 -20 c-2 -13 -4 -5 -4 17
-1 22 1 32 4 23 2 -10 2 -28 0 -40z m40 15 c-3 -10 -5 -4 -5 12 0 17 2 24 5
18 2 -7 2 -21 0 -30z m130 -10 c-3 -10 -5 -2 -5 17 0 19 2 27 5 18 2 -10 2
-26 0 -35z m43 12 c0 -19 -2 -35 -4 -35 -2 0 -6 16 -8 35 -2 19 0 35 4 35 4 0
8 -16 8 -35z m617 -2 c-3 -10 -5 -4 -5 12 0 17 2 24 5 18 2 -7 2 -21 0 -30z
m174 -18 c7 -6 13 -5 19 5 6 9 10 10 10 3 0 -19 -20 -26 -35 -13 -8 7 -14 24
-14 39 l2 26 4 -25 c3 -14 9 -29 14 -35z m26 33 c-3 -8 -6 -5 -6 6 -1 11 2 17
5 13 3 -3 4 -12 1 -19z m93 -8 c0 -16 -2 -30 -4 -30 -2 0 -6 14 -8 30 -3 17
-1 30 4 30 4 0 8 -13 8 -30z m205 3 c0 -21 5 -28 19 -26 11 1 15 -2 9 -8 -17
-17 -43 2 -43 32 0 16 4 29 8 29 4 0 8 -12 7 -27z m33 10 c-2 -9 -10 -18 -18
-20 -12 -4 -13 -3 -1 5 7 5 10 15 7 21 -4 6 -2 11 4 11 6 0 10 -8 8 -17z m297
-10 c0 -22 4 -27 19 -25 11 2 15 -1 11 -8 -4 -6 -13 -9 -20 -6 -8 3 -16 -3
-18 -12 -3 -9 -5 4 -6 31 0 26 3 47 7 47 4 0 8 -12 7 -27z m35 7 c0 -11 -2
-20 -4 -20 -2 0 -6 9 -9 20 -3 11 -1 20 4 20 5 0 9 -9 9 -20z m170 -9 c0 -10
-7 -25 -16 -32 -14 -11 -18 -10 -30 6 -8 10 -12 21 -9 24 3 2 12 -4 19 -15 14
-18 15 -18 21 -1 4 9 4 24 1 33 -3 8 -2 12 4 9 6 -3 10 -14 10 -24z m203 9
c-3 -12 -8 -19 -11 -16 -5 6 5 36 12 36 2 0 2 -9 -1 -20z m-1933 -20 c0 -11
-5 -20 -11 -20 -5 0 -7 5 -4 10 3 6 -4 10 -16 10 -19 0 -20 -2 -8 -17 12 -14
12 -16 -1 -11 -8 2 -16 12 -18 21 -3 14 3 17 51 26 4 0 7 -8 7 -19z m-420 -4
c0 -21 -20 -30 -33 -17 -9 9 -7 10 7 5 16 -6 18 -4 13 9 -3 9 -2 17 3 17 6 0
10 -6 10 -14z m2027 -8 c-3 -8 -6 -5 -6 6 -1 11 2 17 5 13 3 -3 4 -12 1 -19z
m-3352 -8 c-3 -5 -12 -10 -18 -10 -7 0 -6 4 3 10 19 12 23 12 15 0z m2230 0
c-3 -5 -12 -10 -18 -10 -7 0 -6 4 3 10 19 12 23 12 15 0z m815 -4 c-7 -7 -13
-7 -20 0 -6 6 -3 10 10 10 13 0 16 -4 10 -10z m660 0 c-7 -7 -13 -7 -20 0 -6
6 -3 10 10 10 13 0 16 -4 10 -10z m-2725 -16 c-3 -5 -14 -10 -23 -9 -14 0 -13
2 3 9 27 11 27 11 20 0z m1078 3 c-7 -2 -19 -2 -25 0 -7 3 -2 5 12 5 14 0 19
-2 13 -5z m750 0 c-7 -2 -21 -2 -30 0 -10 3 -4 5 12 5 17 0 24 -2 18 -5z m410
0 c-7 -2 -21 -2 -30 0 -10 3 -4 5 12 5 17 0 24 -2 18 -5z"/>
<path d="M2074 2856 c-8 -21 3 -49 16 -41 5 3 10 15 10 25 0 25 -18 36 -26 16z"/>
<path d="M170 2650 c0 -15 5 -20 18 -18 9 2 17 10 17 18 0 8 -8 16 -17 18 -13
2 -18 -3 -18 -18z"/>
<path d="M667 2624 c-9 -10 4 -34 19 -34 8 0 14 9 14 20 0 19 -19 27 -33 14z"/>
<path d="M1000 2655 c0 -8 7 -15 15 -15 8 0 15 7 15 15 0 8 -7 15 -15 15 -8 0
-15 -7 -15 -15z"/>
<path d="M1006 2623 c-12 -12 -6 -33 9 -33 8 0 15 6 15 14 0 17 -14 28 -24 19z"/>
<path d="M1660 2614 c0 -31 23 -28 28 4 2 15 -2 22 -12 22 -11 0 -16 -9 -16
-26z"/>
<path d="M2320 2631 c0 -30 4 -41 16 -41 11 0 14 9 12 37 -4 52 -28 56 -28 4z"/>
<path d="M4380 2614 c0 -31 23 -28 28 4 2 15 -2 22 -12 22 -11 0 -16 -9 -16
-26z"/>
<path d="M6520 2650 c0 -15 5 -20 18 -18 9 2 17 10 17 18 0 8 -8 16 -17 18
-13 2 -18 -3 -18 -18z"/>
<path d="M1490 2630 c0 -5 7 -10 15 -10 8 0 15 5 15 10 0 6 -7 10 -15 10 -8 0
-15 -4 -15 -10z"/>
<path d="M1578 2598 c9 -9 15 -9 24 0 9 9 7 12 -12 12 -19 0 -21 -3 -12 -12z"/>
<path d="M2562 2618 c2 -13 10 -23 18 -23 8 0 16 10 18 23 3 17 -2 22 -18 22
-16 0 -21 -5 -18 -22z"/>
<path d="M2893 2624 c-7 -18 11 -39 26 -30 17 11 13 46 -4 46 -9 0 -18 -7 -22
-16z"/>
<path d="M3060 2630 c0 -5 7 -10 15 -10 8 0 15 5 15 10 0 6 -7 10 -15 10 -8 0
-15 -4 -15 -10z"/>
<path d="M3222 2618 c2 -13 10 -23 18 -23 8 0 16 10 18 23 3 17 -2 22 -18 22
-16 0 -21 -5 -18 -22z"/>
<path d="M3470 2630 c0 -5 7 -10 15 -10 8 0 15 5 15 10 0 6 -7 10 -15 10 -8 0
-15 -4 -15 -10z"/>
<path d="M3720 2630 c0 -5 7 -10 15 -10 8 0 15 5 15 10 0 6 -7 10 -15 10 -8 0
-15 -4 -15 -10z"/>
<path d="M3880 2630 c0 -5 9 -10 20 -10 11 0 20 5 20 10 0 6 -9 10 -20 10 -11
0 -20 -4 -20 -10z"/>
<path d="M4710 2630 c0 -5 7 -10 15 -10 8 0 15 5 15 10 0 6 -7 10 -15 10 -8 0
-15 -4 -15 -10z"/>
<path d="M5200 2600 c0 -5 6 -10 14 -10 8 0 18 5 21 10 3 6 -3 10 -14 10 -12
0 -21 -4 -21 -10z"/>
<path d="M5943 2624 c-7 -18 11 -39 26 -30 17 11 13 46 -4 46 -9 0 -18 -7 -22
-16z"/>
<path d="M6110 2600 c0 -5 7 -10 15 -10 8 0 15 5 15 10 0 6 -7 10 -15 10 -8 0
-15 -4 -15 -10z"/>
<path d="M6360 2630 c0 -5 7 -10 15 -10 8 0 15 5 15 10 0 6 -7 10 -15 10 -8 0
-15 -4 -15 -10z"/>
<path d="M6610 2630 c0 -5 7 -10 15 -10 8 0 15 5 15 10 0 6 -7 10 -15 10 -8 0
-15 -4 -15 -10z"/>
<path d="M8010 2630 c0 -5 7 -10 15 -10 8 0 15 5 15 10 0 6 -7 10 -15 10 -8 0
-15 -4 -15 -10z"/>
<path d="M8090 2600 c0 -5 7 -10 15 -10 8 0 15 5 15 10 0 6 -7 10 -15 10 -8 0
-15 -4 -15 -10z"/>
<path d="M8830 2630 c0 -5 9 -10 21 -10 11 0 17 5 14 10 -3 6 -13 10 -21 10
-8 0 -14 -4 -14 -10z"/>
<path d="M995 2430 c-8 -14 3 -30 21 -30 8 0 14 9 14 20 0 21 -24 28 -35 10z"/>
<path d="M2320 2401 c0 -30 4 -41 16 -41 11 0 14 9 12 37 -4 52 -28 56 -28 4z"/>
<path d="M2980 2385 c0 -16 6 -25 15 -25 9 0 15 9 15 25 0 16 -6 25 -15 25 -9
0 -15 -9 -15 -25z"/>
<path d="M6520 2420 c0 -15 5 -20 18 -18 9 2 17 10 17 18 0 8 -8 16 -17 18
-13 2 -18 -3 -18 -18z"/>
<path d="M665 2390 c-8 -14 3 -30 21 -30 8 0 14 9 14 20 0 21 -24 28 -35 10z"/>
<path d="M6192 2388 c2 -12 10 -23 18 -23 22 0 19 39 -3 43 -15 3 -18 -1 -15
-20z"/>
<path d="M1490 2400 c0 -5 7 -10 15 -10 8 0 15 5 15 10 0 6 -7 10 -15 10 -8 0
-15 -4 -15 -10z"/>
<path d="M1578 2368 c9 -9 15 -9 24 0 9 9 7 12 -12 12 -19 0 -21 -3 -12 -12z"/>
<path d="M3060 2400 c0 -5 7 -10 15 -10 8 0 15 5 15 10 0 6 -7 10 -15 10 -8 0
-15 -4 -15 -10z"/>
<path d="M3470 2400 c0 -5 7 -10 15 -10 8 0 15 5 15 10 0 6 -7 10 -15 10 -8 0
-15 -4 -15 -10z"/>
<path d="M3720 2400 c0 -5 7 -10 15 -10 8 0 15 5 15 10 0 6 -7 10 -15 10 -8 0
-15 -4 -15 -10z"/>
<path d="M4210 2400 c0 -5 9 -10 21 -10 11 0 17 5 14 10 -3 6 -13 10 -21 10
-8 0 -14 -4 -14 -10z"/>
<path d="M4710 2400 c0 -5 7 -10 15 -10 8 0 15 5 15 10 0 6 -7 10 -15 10 -8 0
-15 -4 -15 -10z"/>
<path d="M4956 2401 c-9 -14 4 -41 20 -41 8 0 14 10 14 25 0 25 -23 35 -34 16z"/>
<path d="M5946 2401 c-9 -14 5 -42 18 -38 18 6 20 47 2 47 -8 0 -17 -4 -20 -9z"/>
<path d="M6110 2370 c0 -5 7 -10 15 -10 8 0 15 5 15 10 0 6 -7 10 -15 10 -8 0
-15 -4 -15 -10z"/>
<path d="M6360 2400 c0 -5 7 -10 15 -10 8 0 15 5 15 10 0 6 -7 10 -15 10 -8 0
-15 -4 -15 -10z"/>
<path d="M6610 2400 c0 -5 7 -10 15 -10 8 0 15 5 15 10 0 6 -7 10 -15 10 -8 0
-15 -4 -15 -10z"/>
<path d="M8010 2400 c0 -5 7 -10 15 -10 8 0 15 5 15 10 0 6 -7 10 -15 10 -8 0
-15 -4 -15 -10z"/>
<path d="M8420 2400 c0 -5 7 -10 15 -10 8 0 15 5 15 10 0 6 -7 10 -15 10 -8 0
-15 -4 -15 -10z"/>
<path d="M8500 2370 c0 -5 7 -10 15 -10 8 0 15 5 15 10 0 6 -7 10 -15 10 -8 0
-15 -4 -15 -10z"/>
<path d="M5200 2370 c0 -5 6 -10 14 -10 8 0 18 5 21 10 3 6 -3 10 -14 10 -12
0 -21 -4 -21 -10z"/>
<path d="M6936 1945 c-8 -21 1 -35 20 -35 10 0 14 8 12 22 -4 27 -23 34 -32
13z"/>
<path d="M4130 1935 c0 -16 6 -25 15 -25 9 0 15 9 15 25 0 16 -6 25 -15 25 -9
0 -15 -9 -15 -25z"/>
<path d="M170 1950 c0 -5 7 -10 15 -10 8 0 15 5 15 10 0 6 -7 10 -15 10 -8 0
-15 -4 -15 -10z"/>
<path d="M420 1950 c0 -5 7 -10 15 -10 8 0 15 5 15 10 0 6 -7 10 -15 10 -8 0
-15 -4 -15 -10z"/>
<path d="M750 1950 c0 -5 7 -10 15 -10 8 0 15 5 15 10 0 6 -7 10 -15 10 -8 0
-15 -4 -15 -10z"/>
<path d="M1410 1950 c0 -5 7 -10 15 -10 8 0 15 5 15 10 0 6 -7 10 -15 10 -8 0
-15 -4 -15 -10z"/>
<path d="M1660 1950 c0 -5 7 -10 16 -10 8 0 12 5 9 10 -3 6 -10 10 -16 10 -5
0 -9 -4 -9 -10z"/>
<path d="M2070 1950 c0 -5 7 -10 15 -10 8 0 15 5 15 10 0 6 -7 10 -15 10 -8 0
-15 -4 -15 -10z"/>
<path d="M2400 1950 c0 -5 7 -10 15 -10 8 0 15 5 15 10 0 6 -7 10 -15 10 -8 0
-15 -4 -15 -10z"/>
<path d="M2895 1950 c-3 -5 3 -10 15 -10 12 0 18 5 15 10 -3 6 -10 10 -15 10
-5 0 -12 -4 -15 -10z"/>
<path d="M5700 1920 c0 -5 7 -10 15 -10 8 0 15 5 15 10 0 6 -7 10 -15 10 -8 0
-15 -4 -15 -10z"/>
<path d="M6110 1950 c0 -5 7 -10 15 -10 8 0 15 5 15 10 0 6 -7 10 -15 10 -8 0
-15 -4 -15 -10z"/>
<path d="M6855 1920 c-3 -5 1 -10 9 -10 9 0 16 5 16 10 0 6 -4 10 -9 10 -6 0
-13 -4 -16 -10z"/>
<path d="M7100 1950 c0 -5 7 -10 15 -10 8 0 15 5 15 10 0 6 -7 10 -15 10 -8 0
-15 -4 -15 -10z"/>
<path d="M1165 1920 c-3 -5 1 -10 9 -10 9 0 16 5 16 10 0 6 -4 10 -9 10 -6 0
-13 -4 -16 -10z"/>
<path d="M2074 1496 c-8 -21 3 -49 16 -41 5 3 10 15 10 25 0 25 -18 36 -26 16z"/>
<path d="M3224 1496 c-8 -22 3 -49 19 -43 6 2 12 14 12 27 0 27 -22 39 -31 16z"/>
<path d="M8340 1480 c0 -21 4 -30 13 -27 6 2 12 14 12 27 0 13 -6 25 -12 28
-9 2 -13 -7 -13 -28z"/>
<path d="M10986 1503 c-12 -12 -6 -43 9 -43 8 0 15 9 15 19 0 21 -13 34 -24
24z"/>
<path d="M11310 1025 c0 -16 6 -25 15 -25 9 0 15 9 15 25 0 16 -6 25 -15 25
-9 0 -15 -9 -15 -25z"/>
<path d="M670 1040 c0 -5 7 -10 15 -10 8 0 15 5 15 10 0 6 -7 10 -15 10 -8 0
-15 -4 -15 -10z"/>
<path d="M1740 1040 c0 -5 7 -10 15 -10 8 0 15 5 15 10 0 6 -7 10 -15 10 -8 0
-15 -4 -15 -10z"/>
<path d="M1820 1010 c0 -5 7 -10 15 -10 8 0 15 5 15 10 0 6 -7 10 -15 10 -8 0
-15 -4 -15 -10z"/>
<path d="M1990 1040 c0 -5 7 -10 15 -10 8 0 15 5 15 10 0 6 -7 10 -15 10 -8 0
-15 -4 -15 -10z"/>
<path d="M2400 1040 c0 -5 7 -10 15 -10 8 0 15 5 15 10 0 6 -7 10 -15 10 -8 0
-15 -4 -15 -10z"/>
<path d="M2730 1025 c0 -16 6 -25 15 -25 9 0 15 9 15 25 0 16 -6 25 -15 25 -9
0 -15 -9 -15 -25z"/>
<path d="M11220 1010 c0 -5 6 -10 14 -10 8 0 18 5 21 10 3 6 -3 10 -14 10 -12
0 -21 -4 -21 -10z"/>
<path d="M11720 1025 c0 -16 6 -25 15 -25 9 0 15 9 15 25 0 16 -6 25 -15 25
-9 0 -15 -9 -15 -25z"/>
<path d="M12050 1040 c0 -5 7 -10 15 -10 8 0 15 5 15 10 0 6 -7 10 -15 10 -8
0 -15 -4 -15 -10z"/>
<path d="M90 150 c0 -15 5 -20 18 -18 9 2 17 10 17 18 0 8 -8 16 -17 18 -13 2
-18 -3 -18 -18z"/>
<path d="M2074 136 c-8 -21 3 -49 16 -41 5 3 10 15 10 25 0 25 -18 36 -26 16z"/>
<path d="M2240 135 c0 -9 5 -15 11 -13 6 2 11 8 11 13 0 5 -5 11 -11 13 -6 2
-11 -4 -11 -13z"/>
<path d="M3140 130 c0 -5 7 -10 15 -10 8 0 15 5 15 10 0 6 -7 10 -15 10 -8 0
-15 -4 -15 -10z"/>
</g>
</svg>
